<svg id="Layer_1" xmlns="http://www.w3.org/2000/svg" viewBox="0 0 6448 682.8"><style>.st2{opacity:.9;fill:#793236;enable-background:new}</style><g id="clouds"><path d="M447.8 386.8c0-7-5.7-12.7-12.7-12.7-5.4 0-10 3.4-11.8 8.1-2.8-3.7-7.3-6.1-12.3-6.1-4.2 0-8.1 1.7-10.9 4.5-.9-6-6-10.5-12.2-10.5-1.8 0-3.5.4-5.1 1.1-.8-7.8-7.3-13.8-15.3-13.8-8.5 0-15.4 6.9-15.4 15.4 0 .5 0 1 .1 1.6-7.3 1.2-12.8 7.6-12.8 15.2 0 7.1 4.8 13.1 11.3 14.9-1.7 2.5-2.6 5.4-2.6 8.6 0 8.5 6.9 15.4 15.4 15.4 8 0 14.6-6.1 15.3-14 2.7 4 7.3 6.6 12.5 6.6 4.2 0 8-1.7 10.7-4.5 1.5 6.4 7.2 11.2 14 11.2 5.7 0 10.6-3.3 12.9-8.1 1.4.5 2.9.7 4.5.7 8 0 14.4-6.4 14.4-14.4 0-3.8-1.5-7.3-4-9.9 2.5-2.6 4-5.8 4-9.3z" opacity=".57" fill="#793236"/><path d="M181.6 274.4c6-4.3 8.1-12.5 4.7-19.3-3.2-6.3-10.1-9.6-16.8-8.2.4-2.9-.1-6-1.5-8.9-3.8-7.6-13-10.7-20.7-6.9-1.7.8-3.2 2-4.4 3.3v60.7c2.8.7 5.8.4 8.5-.9 1.6-.8 3-1.9 4.1-3.3 4.2 6.6 12.7 9.1 19.9 5.5 7.6-3.8 10.7-13 6.9-20.7-.1-.4-.4-.9-.7-1.3z" opacity=".64" fill="#793236"/><path class="st2" d="M968.9 237.5c0-6.1-2.7-11.5-7-15.2v-1.2c0-11.1-9-20-20-20-8.4 0-15.5 5.1-18.5 12.4-3.6-3.9-8.8-6.3-14.5-6.3-6.3 0-11.9 2.9-15.5 7.4-4.2-3.5-9.5-5.6-15.4-5.6-13.2 0-23.9 10.7-23.9 23.9s10.7 23.9 23.9 23.9c2.6 0 5.1-.4 7.4-1.2v1.2c0 11.1 9 20 20 20 8.1 0 15.1-4.8 18.2-11.7 3.2 2.2 7.1 3.5 11.4 3.5 8.1 0 15-4.8 18.2-11.7 8.9-1.8 15.7-9.9 15.7-19.4z"/><path d="M1487.5 390.9c0-6.3-5.1-11.5-11.5-11.5-5 0-9.2 3.1-10.8 7.5-2-3.4-5.7-5.8-10-5.8-1.2 0-2.4.2-3.4.5v-.5c0-6.3-5.1-11.5-11.5-11.5-3.8 0-7.1 1.8-9.2 4.6-.1-.1-.2-.2-.4-.3-.8-8.7-8.1-15.5-17-15.5-9.4 0-17.1 7.7-17.1 17.1 0 2.6.6 5.1 1.7 7.3-.8-.2-1.7-.3-2.5-.3-6.3 0-11.5 5.1-11.5 11.5 0 6.3 5.1 11.5 11.5 11.5 2.4 0 4.7-.8 6.5-2 .6 5.8 5.5 10.3 11.4 10.3 4 0 7.4-2 9.5-5 2.5 3.4 6.5 5.6 11.1 5.6h.6c.4 7.2 6.4 13 13.8 13 5.5 0 10.3-3.3 12.5-8 2.2 1.5 4.9 2.4 7.8 2.4 7.6 0 13.8-6.2 13.8-13.8 0-2.5-.7-4.8-1.8-6.8 3.9-2 6.5-5.9 6.5-10.3z" opacity=".68" fill="#793236"/><path d="M484.6 365.2c-1.2.3-2.4.8-3.3 1.5 0-.9 0-1.9-.2-2.8-1.3-6-7.2-9.7-13.1-8.4-1.5.3-2.8.9-4 1.8 0-.7-.1-1.4-.3-2.2-1.5-7-8.4-11.4-15.4-9.9s-11.4 8.4-9.9 15.3c-3.2-2-7.2-2.8-11.2-2-8.2 1.8-13.4 9.8-11.6 18s9.8 13.4 18 11.6c1.1-.2 2.2-.6 3.2-1.1 1.9 3.9 6.2 6.2 10.7 5.3 3.2-.7 5.7-2.9 6.8-5.7 2 6.7 8.8 10.9 15.8 9.4s11.6-8.3 10.5-15.3c2.1 1.9 5 2.8 7.9 2.1 4.9-1.1 7.9-5.8 6.9-10.7-1.1-4.9-5.9-8-10.8-6.9z" opacity=".74" fill="#793236"/></g><path d="M2429.4 173.9c0-6.3-5.1-11.5-11.5-11.5-3.8 0-7.2 1.9-9.3 4.7-2.5-5.2-7.8-8.8-14-8.8-2.3 0-4.5.5-6.5 1.5-3.6-9.4-12.7-16.1-23.4-16.1-10 0-18.6 5.8-22.6 14.3-.8-.1-1.6-.2-2.4-.2-3.4 0-6.6 1-9.3 2.6-1-5.6-5.8-9.8-11.6-9.8-6.5 0-11.8 5.3-11.8 11.8v.2c-7.4 0-13.4 6-13.4 13.4s6 13.4 13.4 13.4c1 0 2-.1 3-.4v.4c0 7.4 6 13.4 13.4 13.4 2.9 0 5.6-.9 7.8-2.5 2.7 7.7 10 13.2 18.6 13.2 8.7 0 16.1-5.6 18.7-13.4 2.3 4.2 6.7 7 11.8 7 5.6 0 10.4-3.4 12.4-8.3 2.6 4.9 7.8 8.3 13.7 8.3 8.6 0 15.5-7 15.5-15.5 0-2.3-.5-4.5-1.4-6.5 5.1-1.1 8.9-5.7 8.9-11.2z" opacity=".99" fill="#793236"/><path d="M1404.5 435.3v17.5m11.5-3.6v10.2m8.5-18.6v5.7m11.4-8.5v7.5m0 12.8v10.2m-11.4 6.3v7.3m25-35.6v9.7m-5.5 8.1v8.7m19.5-37.7v8.7m-3.5 16.4v5.9m15-22.3v14.3m-7.5 11.7v6.1m-26.5 7.4v7.4m12-13.7v6.8m-45-21.1v8.6m8-46.5v6.9m8.5-13.4v6.5m-6 72.2v12M1433 484v8.3m14.8 6.5v8.2" fill="none" stroke="#000" stroke-miterlimit="10"/><path d="M1951.8 301.2c.6 7.5 7 13.5 14.7 13.5 4.7 0 8.9-2.2 11.6-5.7 3.4 2.2 7.5 3.5 12 3.5 6 0 11.5-2.4 15.5-6.3 2 5.8 7.5 10 13.9 10 8.1 0 14.7-6.6 14.7-14.7 0-6.2-3.8-11.5-9.2-13.6 4.5-3.4 7.5-8.7 7.5-14.8 0-10.2-8.2-18.4-18.4-18.4-8.8 0-16.1 6.2-17.9 14.4-1.9-.6-4-.9-6.1-.9-7.4 0-14 3.6-18 9.2-2.4-7.4-9.3-12.7-17.5-12.7-10.2 0-18.4 8.2-18.4 18.4 0 9.1 6.8 16.7 15.6 18.1z" opacity=".89" fill="#793236"/><path class="st2" d="M2928 369.2c0-6.1-2.7-11.5-7-15.2v-1.2c0-11.1-9-20-20-20-8.4 0-15.5 5.1-18.5 12.4-3.6-3.9-8.8-6.3-14.5-6.3-6.3 0-11.9 2.9-15.5 7.4-4.2-3.5-9.5-5.6-15.4-5.6-13.2 0-23.9 10.7-23.9 23.9s10.7 23.9 23.9 23.9c2.6 0 5.1-.4 7.4-1.2v1.2c0 11.1 9 20 20 20 8.1 0 15.1-4.8 18.2-11.7 3.2 2.2 7.1 3.5 11.4 3.5 8.1 0 15-4.8 18.2-11.7 8.9-1.8 15.7-9.9 15.7-19.4z"/></svg>