<svg id="Layer_1" xmlns="http://www.w3.org/2000/svg" viewBox="0 0 250 250"><style>.st1{fill:#231f20}</style><path d="M29.6 128.1v-12.3h29.2v24.3zm31.9 13.3v-14.7h14.3v20.8zm17 7.1V127h13.9v27.8zm22.5-22.2h14.4v19.3H101zm17 0v19.3h14.5v-19.3zm-14.5 32.4h11.7v5.3zm14.8 6.3v-6.3h14.1v12zm39.6-38.1h13.2v18.6h-13.2zm16.1 0h13.2v18.5H174zm24.6 19.1H190v-19.3h15.5v-10.6h6.3l-11.8 47h-10.2v-4.2h8.8zm-57.3-19h13.8v18.5h-13.8zm0 31.9h13.8v4.2h-13.8zm16.6 0h13.2v4.2h-13.2zm16 0h13.2v4.2h-13.2z" fill="none" stroke="#793236" stroke-width="1.5"/><path class="st1" d="M29 88.4h64.1v16.9H29zm71.4 0h7.4v16.9h-7.4zm8.6 0h24.2v16.9H109zm31.6 5.5h64.1v11.4h-64.1zm65.6-4.9h6.5v16.3h-6.5z"/><path class="st1" d="M140.6 88.4h72v4.2h-72zm48.9 27h14v9.3h-14zm-16.2 0h14.5v9.3h-14.5zm-16 0h14.5v9.3h-14.5zm-39.9 0H133v9.3h-15.6zm-17 0h15.7v9.3h-15.7zm-22.6 0h15.3v9.3H77.8zm-16.8 0h15.3v9.3H61zm79.6 0h15.1v9.3h-15.1zm32.7 32.1h14.5v9.3h-14.5zm-16 0h14.5v9.3h-14.5zm-16.7 0h15.1v9.3h-15.1zm-23 0h15.5v9.3h-15.5zm-17.2 0h15.5v9.3h-15.5zm88.7 0h7.4v9.3h-7.4z"/></svg>