<svg id="Layer_1" xmlns="http://www.w3.org/2000/svg" viewBox="0 0 250 250"><style>.st0{fill:none;stroke:#793236;stroke-width:2}</style><path class="st0" d="M58.6 121.7h8.6M71 128v31.3m-7.6-61.5v23.6m7.3 37.9h12m30.8 4.3h9.9m-.4 0v-14m6.8 0h-7.1m7.1-3h-7.1m.3 0v-43.7m.4 38.7h-10.5m-20.2-.5h-8.1m.7.4v-20.2m.7 0h-5M63.1 97.8h28.2m62.9-.6h13.2m-55.1 0h17.4m25.8 52.5h11.4m0 .3v-29.4m-.3.3h14.9m-14.9-8.6h14.9m-14.6-15v15.3"/><path d="M33.8 115.8h24.5v11.9H33.8zm33.5 0h13.6v11.9H67.3zm25.4 19.8h20.1v11.9H92.7zm-1.2-42.5h20.1V105H91.5zm-8.3 59.6h30.2v17.2H83.2zm47.1-9.9h24.5v13.6h-24.5zm-.5-51.7h23.5v14.6h-23.5zm51.1 14.2h43.7v26.5h-43.7z" stroke="#231f20" stroke-width="4" fill="none"/><path class="st0" d="M129.2 102.9h-6.7"/></svg>