<svg id="Layer_1" xmlns="http://www.w3.org/2000/svg" viewBox="0 0 250 250"><style>.st0{fill:#793236}</style><circle class="st0" cx="100.3" cy="128.5" r="30.1"/><path class="st0" d="M128.4 156.7s1-.4 3.4-3.2c2.4-2.9 2.5-3.6 2.5-3.6l15.2 9.1s-1.2 2.5-3.7 5.4c-2.4 2.8-4.6 4.7-4.6 4.7l-12.8-12.4z"/><path d="M88.5 186.9l-1.1-.2-1.2-.3-1.1-.3-1.2-.3-1.1-.4-1.2-.3-1.1-.4-1.1-.4-1.1-.5-1.2-.4-1.1-.5-1.1-.5-1-.5-1.1-.5-1-.6-3.9 7.2 1.2.6 1.2.6 1.2.6 1.2.6 1.3.5 1.2.5 1.3.5 1.3.5 1.3.4 1.3.4 1.2.4 1.4.4 1.3.3 1.3.3 1.3.3 1.4.3 1.4-8.1zM47.5 68L36.8 55.7 35.4 57l-1.5 1.3-1.3 1.3-1.4 1.4-1.3 1.4-1.3 1.4-1.2 1.5-1.3 1.4-1.2 1.5-1.2 1.5-1.1 1.6-1.1 1.5-1.1 1.6-1 1.6-1 1.6-1 1.7 22.8 13.3.7-1.1.8-1.2.7-1.2.8-1.1.8-1.1.8-1.2.9-1.1.9-1 .9-1.1.9-1 .9-1.1 1-1 .9-1 1-.9 1.1-1 1-.9zm23.3 49.7l-.2-.5-.1.3z"/><path d="M70.6 117.2l.2.5.1-.4zm-14.9 3.1l-.7-.1v.4z"/><path d="M55 120.6l.6.1.1-.4zm9.1 1.1l-.6-.1-.1.4zm-.7.3l.7.1v-.4zm5.1-12.3l-.6-.3-.2.2zm-.8-.1l.6.4.2-.3zm32.7-19.2h-.4v.7zm-.4.7h.4v-.7zm-42.3 21.6l-.6-.2-.1.3zm-.7.1l.6.2.1-.3zm8.8 2.7l-.6-.2-.2.3zm-.8.1l.7.3.1-.4zm4.5 7h-.3l-.1.3zm-.4.3l.3.1.1-.4zM93.8 91l-.3.1.1.6zm-.2.7h.3l-.1-.7zm-38.5 36.9l-.7-.3v.3z"/><path d="M54.4 128.3l.7.3v-.4zm18.8-16l-.3-.1-.2.3zm-.5.2l.3.2.2-.4zm-11.7-7l-.6-.4-.1.3zm-.7-.1l.6.4.1-.3zm90.3 40.1l-.6-.2-.1.3z"/><path d="M149.9 145.6l.6.2.1-.3zm-49.5-49.1l-.3-.3v.3z"/><path d="M100.1 96.2l.3.3v-.3zm53.5 31.5l-.7-.4v.4z"/><path d="M152.9 127.3l.7.4v-.4zm-51.7 52.9h-.4v.7zm-.4.7h.4v-.7zm18.2-4l-.3.1.2.6zm-.1.7l.4-.1-.3-.6zm15.9-9.3l-.2-.7-.2.2z"/><path d="M134.6 167.6l.2.7.3-.2zm22.3-19.9l-.6-.2-.1.3z"/><path d="M156.2 147.8l.6.3.1-.4zm-13.5-71.3l-.5.6.3.2zm-.2.8l.5-.6-.3-.2zm-53 20.8l-.3.1.1.4zm-.2.5l.4-.2-.2-.3zm22-.6l-.3-.1-.1.3zm-.4.2l.3.2.1-.4zm2.1-5l-.1-.7-.2.6zm-.1-.7l.1.7.2-.6zm26.2 57.1l-.5-.3-.2.3zm-.7 0l.6.3.1-.3zm3.9-7l-.6-.2-.1.3z"/><path d="M141.6 142.7l.6.2.1-.3zm2.6-7.6l-.7-.1v.3zm-.7.2l.7.1v-.3zm1.3-7.6l-.7-.3v.4z"/><path d="M144.1 127.4l.7.3v-.3zm2.7 26.6l-.6-.4-.1.3zm-.7-.1l.6.4.1-.3zm6.8-17.3l-.7-.1v.3z"/><path d="M152.2 136.8l.6.1.1-.3zM92 180.2l-.2-.7-.2.7z"/><path d="M91.8 179.5l.2.7.1-.6zm18.5-.1h-.4l.1.7zm-.3.7l.4-.1-.1-.6zm17.3-6.4l-.1-.8-.3.2z"/><path d="M127.2 172.9l.1.8.3-.2zm25.4-15.7l-.6-.3-.1.3zm-.7 0l.5.3.2-.3zm7.6-19.5l-.7-.2-.1.4z"/><path d="M158.7 137.9l.7.1.1-.3zm1.6-10.3l-.7-.3v.3zm-.7-.3l.7.3v-.3zm3.3-22.5h-.8l.1.3zm-.8 0h.8l-.1-.3zm-4.2-10.4h-.7l.1.3zm-.7 0h.7l-.2-.3zm-6-9.5l-.7.2.2.2zm-.7.2l.7-.2-.2-.3zM94.9 96.7h-.4l.1.4z"/><path d="M94.6 97.1l.3-.1v-.3zM133.1 70l-.3.6.3.2zm0 .8l.3-.6-.3-.2zm-23.4 3l-.2-.7-.1.6zm-.2-.7l.2.7.2-.7zm-28.3 2.7l-.3.1.2.7zm-.1.8l.3-.1-.2-.7zm-8.7 4.1V80l-.3.1zm0-.7v.7l.4-.1zm-7.7 6.3l-.2-.7-.3.2zm-.2-.7l.2.7.2-.2zm35.7-13.3h-.3v.7zm-.3.7h.3v-.7zm-9.4.2l-.3.1.1.7zm-.2.8l.4-.1-.2-.7zm35.4 9.1l-.5.9.3.1zm-.2 1l.5-.9-.3-.1zm7.7 4l-.7.8.3.2zm-.4 1l.6-.8-.2-.2zm7 5.5l-1 .4.2.3z"/><path d="M138.8 95l1-.4-.2-.2zm10 15.1h-1l.1.3zm-1 0h1l-.1-.3zM145 102l-1.1.2.2.3z"/><path d="M143.9 102.2l1.1-.2-.2-.3zm-48.4 56.9l-.3-.1-.1.4z"/><path d="M95.1 159.4h.4v-.3zm-.6 5.7l-.2-.7-.1.6z"/><path d="M94.3 164.4l.2.7.1-.7zm6.7-4.9h-.3v.3zm-.3.3h.3v-.3zm.3 5.1h-.3v.7zm-.3.7h.3v-.7zm5.7-6.7l-.3.1.1.3zm-.2.4h.3l-.1-.4zm1.2 5h-.3l.1.7zm-.2.7l.4-.1-.2-.6zm4.5-7.6l-.3.1.1.4zm-.2.5l.3-.2-.1-.3zm2.2 4.6l-.4.1.3.7z"/><path d="M113.6 163.3l.3-.2-.2-.6zm3.1-8.3l-.3.2.2.3zm-.1.5l.2-.2-.1-.3zm2.9 5l-.1-.8-.3.2z"/><path d="M119.4 159.7l.1.8.3-.2zm5.4-3l-.1-.7-.3.2z"/><path d="M124.7 156l.1.7.3-.2zm-3.6-4.2l-.2.3.2.2zm0 .5l.3-.2-.3-.3zm8.6-.5l-.6-.5-.2.3z"/><path d="M128.9 151.6l.6.4.2-.2zm-3.9-3.3l-.1-.4-.2.2z"/><path d="M124.9 147.9l.1.4.2-.2zm8.5-1.6l-.6-.3-.2.3zm-.8 0l.6.4.2-.4zm-4.4-2.5l-.2-.5-.1.3zm-.2-.5l.2.5.1-.3zm8-2.9l-.6-.3-.1.4z"/><path d="M135.3 140.5l.6.2.1-.3zm-4.8-1.7l-.2-.5-.1.4z"/><path d="M130.3 138.3l.2.5.1-.4zm7.3-4.3l-.6-.1-.1.3z"/><path d="M136.9 134.2l.7.2v-.4zm-5-.8l-.3-.4v.4z"/><path d="M131.6 133l.3.4.1-.3zm.8-5.1l-.4-.4v.4z"/><path d="M132 127.5l.4.4v-.4zm6.1.3l-.7-.3v.3z"/><path d="M137.4 127.5l.7.3v-.3zm-1.6-12.5l-.7-.1.1.3z"/><path d="M135.1 114.9l.7.1-.1-.4zm-4.7 2.1l-.4-.2.1.3z"/><path d="M130 116.8l.4.2-.1-.3zm3-7.8l-.8.1.2.3z"/><path d="M132.2 109.1l.8-.1-.2-.2zM128 112l-.4-.1.2.2z"/><path d="M127.6 111.9l.4.1-.1-.3zm1.6-8.2l-.7.2.2.2z"/><path d="M128.5 103.9l.7-.2-.2-.3zm-3.7 3.5h-.4l.2.3zm-.4 0h.4l-.2-.2zm-.1-8.5l-.4.5.2.2z"/><path d="M124.1 99.6l.5-.5-.3-.2zm-3.2 3.9l-.3-.2-.2.3zm-.5.1l.3.2.2-.3zm-1.5-8.4l-.3.6.3.1zm0 .7l.3-.6-.3-.1zm-2.5 4.5l-.4-.2-.1.3zm-.5.1l.3.2.2-.3zm-9.1-8.9l-.2-.7-.2.6z"/><path d="M106.6 90.9l.2.7.1-.7zm-.6 5.7h-.4v.3zm-.4.3l.3.1.1-.4zm-18.1-4.2l-.3.1.2.7zm-.1.8l.3-.1-.2-.7zm-23.8 35l-.7-.3v.3z"/><path d="M62.9 128.2l.7.3v-.3zm18.7-31.9v-.8l-.3.2zm0-.8v.8l.3-.2zm3.1 5.3l-.5-.1.2.3z"/><path d="M84.2 100.7l.5.1-.2-.3zm-4 3.3l-.5-.1.2.3z"/><path d="M79.7 103.9l.5.1-.2-.3zm-3.3-3.9l-.2-.7-.2.2z"/><path d="M76.2 99.3l.2.7.3-.2zm55.7 23l-.4-.2v.3z"/><path d="M131.5 122.1l.4.2-.1-.3zm6-.8l-.7-.2.1.3z"/><path d="M136.8 121.1l.7.2v-.3zm-60.7-13v-.5l-.2.3zm0-.5v.5l.2-.3zm-4-3.2l-.5-.4-.2.2zm-.7-.2l.5.4.2-.2zm16.8 59.3l-.1-.8-.2.7z"/><path d="M88.1 162.7l.1.8.2-.6zm2.1-5l-.3-.1-.1.3zm-.4.2l.3.2.1-.4zm-4.8-2.1l-.1-.5-.2.3zm-.1-.5l.1.5.2-.3zm-2.7 4.7l-.3.6.3.2zm0 .8l.3-.6-.3-.2zm-4.2 6.7l-.3.6.3.2zm0 .8l.3-.6-.3-.2zm2.6-15.9l-.2-.2-.2.3zm-.4.1l.2.2.2-.3zm-3.3 3.9l-.4.5.3.2zm-.1.7l.4-.5-.3-.2zm-5.3 5.9l-.4.5.2.2zm-.2.7l.5-.5-.3-.2zm5.4-15.1h-.5l.2.2zm-.5 0h.5l-.2-.3zm-3.6 3.5l-.8.2.3.2z"/><path d="M71.8 152.3l.8-.2-.2-.2zm-5.7 5.4l-.7.2.2.2z"/><path d="M65.4 157.9l.7-.2-.2-.3zm8.1-13.8l-.5-.1.2.3z"/><path d="M73 144l.5.1-.2-.3zm-4.2 2.9h-.7l.1.3zm-.7 0h.7l-.1-.3zm-6.7 4.4h-.7l.2.3zm-.7 0h.7l-.1-.4zm10.4-12.1l-.4-.2.1.3zm-.4-.2l.4.2-.1-.3zm-4.7 2.1l-.7-.1.1.3zm-.7-.1l.7.1-.1-.3zm-7.3 3.1l-.8-.1.2.3zm-.8-.1l.8.1-.1-.3zm12.4-10.1l-.4-.3.1.4zm-.4-.3l.4.3-.1-.3zm-4.9 1.3l-.8-.2.1.3zm-.8-.2l.8.2-.1-.3zm-7.6 1.8l-.8-.2.1.3zm-.8-.2l.8.2-.1-.4zm14-7.8l-.4-.4v.4zm-.4-.4l.4.4-.1-.4z"/><path d="M63.3 85.8l.6-.5C76.7 74.4 93.4 69.7 110 72.5l.7.1 2-10.7 1 .2c22.7 4.5 41.7 20.6 49.8 42.4l.4 1 63.3-22.6.4 1.2c4.4 12.7 6.8 25.8 7.3 39.2v1.3l-74 1.8v1.6c0 16.9-7.3 33.4-19.9 44.7l-.6.5-4.5-5.1-.5.5c-12.2 10.4-28.1 14.8-43.8 12.2l-.7-.1-2.6 14.4 1 .2 2.3-13.8.7.1c15.5 2.3 30.9-1.9 43-12l.5-.5 4.4 5.2.6-.5c12.9-11.3 20.5-27.7 20.8-44.9v-1.6l74.7-.7v-1.5c-.3-14.8-3-29.5-8.1-43.5l-.5-1.4-63.6 23.8-.3-.8c-8.5-22-28.1-38-51.3-42.2l-.7-.1-1.8 10.7-.7-.1C93 69.2 76.6 73.7 64.1 84.2l-.6.5-15-17.5L37 53.7l-.8.7c-8 7-14.9 15.4-20.2 24.6l-.5.9 43.7 24.7-.5.9c-12 22.5-4.3 50.2 17.6 63.3l.9.5L67 187.4l.9.5 10.3-18.8-.5-.3c-22.4-12.5-30.6-41.1-18.1-63.5l.5-1-42.7-25 1-1.6c4.8-7.9 10.8-15.1 17.7-21.3l.7-.6 26.5 30" stroke="#000" stroke-width=".36" stroke-linecap="round" stroke-linejoin="round" stroke-miterlimit="10"/><path class="st0" d="M115.3 64.7l-6.3 25 4.5 1.4 3.8 1.7L129.2 70s-.1-1-6.9-3.5-7-1.8-7-1.8m22.8 51.4s.6 1.7 1.1 4.9.4 4.5.4 4.5l91.9-4.3s.5-5.7-1.6-16.6c-2.2-10.8-4.7-16.5-4.7-16.5l-87.1 28zm-85-19s.8-2.1 3.7-5.1c3-3.2 4.6-3.9 4.6-3.9l11.8 12s-1.5 1.1-3.1 3.1-2.4 3.4-2.4 3.4l-14.6-9.5zM76.8 178s1.9 1.7 5.1 2.8c3.5 1.3 6.1 1.4 6.1 1.4l3.3-15.1s-.8 0-4-1.3-4.1-1.7-4.1-1.7L76.8 178z"/></svg>