<svg id="Layer_1" xmlns="http://www.w3.org/2000/svg" viewBox="0 0 250 250"><style>.st2{fill:none;stroke:#793236;stroke-width:.356}</style><path d="M102.5 117.2l6 3.9 5.4-8.2-6-4-5.4 8.3m12.1 1l2.9 1.9 2.5-3.9-2.8-1.9-2.6 3.9m.4 8l3 1.8 3.4-5.4-3-1.9-3.4 5.5m4.6 2.9l4.9 3.1 3.4-5.5-4.9-3-3.4 5.4m7.6 4.9l3 1.8 3.4-5.4-3-1.9-3.4 5.5m19.4 3l3 1.9 3.5-5.6-3-1.9-3.5 5.6m4.9 2.9l1.9 1.1 3.5-5.6-1.9-1.1-3.5 5.6m-72.9-21.2l5 4.3 3.3-3.9-5-4.3-3.3 3.9m-10.8 8.4l5 4.4 2.3-2.6-5-4.4-2.3 2.6m82.4 17.8l5.7 3.6 1.2-2-5.6-3.5-1.3 1.9m-3.6 10.7l5.6 3.6 1.1-1.7-5.7-3.6-1 1.7m-7.4 11.6l5.6 3.5.9-1.4-5.6-3.5-.9 1.4m-8.5 2.6l-2.3 9.3 1.6.4 2.3-9.3-1.6-.4m3.4.9l-2.3 9.3 1.6.5 2.4-9.4-1.7-.4m-9.3 2.8l-1.2 4.7 2.7.6 1.1-4.7-2.6-.6m-8.8-7.3l-3.9 5.8 3.4 2.3 3.9-5.8-3.4-2.3m-4.8-3.1l-3.9 5.8 1.8 1.2 3.9-5.8-1.8-1.2m-8.5-5l-3.6 5.4 1.6 1.1 3.6-5.4-1.6-1.1m-5.6-5.6l-4.5 6.6 3.2 2.3 4.6-6.7-3.3-2.2m-8-2.5l-3.2 4.8 2.8 1.9 3.3-4.8-2.9-1.9m-7.3-5.6l-3.6 5.3 1.6 1.1 3.6-5.4-1.6-1m-12.1-8.1l-3.7 5.5 1.6 1 3.7-5.5-1.6-1m1.1 4.3l-2.6 3.9 2.1 1.4 2.6-3.9-2.1-1.4m76 9.6l5.6 3.5 1.8-2.9-5.6-3.5-1.8 2.9" fill="#793236"/><path d="M80.2 132.6l-4.6-5 1.7-1.8 7.1 6.8 2.8-3.1-5.9-5.1.9-1.4 6.9 6.2 5.2-5.5-7.7-6.7 1.8-2.2 7.5 5.5 2.9-3.8-5.9-5.6 1-1.1 8.2 6.3-5 7.6 8 5.5 6.1-9.1 4.7 2.7-3.5 5.9 4.4 2.9-1.7 2.8 6.4 4.2 4.4-7.3 1.4 1.1-4.5 8 4.2 2.5 4.9-8.2 4.6 2.9-2.2 3.7 3.3 2.5 5.5-7.6 6.8 4.6-8.3 13.1 5.1 3.3-1.3 1.9-8.8-5.7-2.5 4 9.2 6.1-1.1 1.9-2.2-1.4-2.5 2.8 2.3 2-3.5 4.8.9-5-7.9-2.1-.9 4.1-3.5-.6-.4 1.4-1.4-.4-2.8-2 4.5-7.1-4.5-2.8-4.9 6.6-2-1 2.1-3.5-2.2-1.9 5.7-8.9-3.3-2.8s-8.5 13-8.7 13-2-1.3-2-1.3l2.3-3.6-2.7-1.9-2.3 3.4-2-1.2 5.3-8.8-4-3.2-6 9-2.7-1.7 3.7-5.6-3.5-2.4-3.9 5.4-1.2-.6 5.4-8.6-2.9-1.9-5.8 8.5-.7-.4.8-2-2.5-1.6-1.7 2.2-5.7-3.5 5.3-8.2z" fill="none" stroke="#231f20" stroke-width="1.07"/><path class="st2" d="M69.2 139.4l-3.6-2.3-.2-.2.2-.2L77 123.9l.2-.2.2.2c2.3 2.1 4.5 4.3 6.8 6.4.3-.3.5-.6.8-1-2.3-2-4.7-4.1-7-6.1l-.2-.2.2-.2 10.1-11.1.2-.2.2.2c2.2 1.9 4.3 3.9 6.5 5.8l.7-.7-6.6-5.8.2-.2 7.1-8.3.1-.2.2.1 8.4 5.2.2.1-.1.2c-.6 1.1-1.2 2.3-1.9 3.5 5.7 3.7 11.5 7.4 17.2 11l.2.1-.1.2c-.2.5-.5 1-.7 1.5 4.8 3 9.7 5.9 14.5 8.9l3.9-5.3.1-.2.2.1 3.8 2.6.2.1-.1.2c-2.1 3.3-4.2 6.6-6.3 9.8l.7.7c2.2-3.2 4.5-6.4 6.7-9.6l.1-.2.2.1 13.2 9 .2.1-.1.2c-2.9 4.9-5.7 9.8-8.6 14.7.3.3.5.6.8.9l.1.1-.1.2-3.6 4.8-.1.2-.2-.1c-2.9-1.8-5.8-3.5-8.7-5.3-.1.2-.2.4-.4.5 2.9 1.9 5.7 3.7 8.6 5.6l.2.1-.1.2-8.2 13-.1.1-15.1-3.1-13.9-9.4.1-.2c2.5-3.5 4.9-6.9 7.4-10.4l-.9-.3c-2.4 3.4-4.8 6.9-7.2 10.3l-.1.2-.2-.1c-1.4-1-2.8-1.9-4.1-2.9l-.4 1-.1.3-.3-.2-16.3-12-.2-.1.1-.2c1.7-2.6 3.4-5.1 5.2-7.7l-.5-.2c-1.8 2.3-3.5 4.6-5.3 6.8l-.1.2-.2-.1c-.9-.5-1.7-.9-2.6-1.4l-1.2.9-.1.1-.1-.1-8.6-5.8-.2-.1.1-.2c1.8-2.6 3.6-5.2 5.4-7.9-.3-.3-.6-.5-1-.8-1.6 2.7-3.2 5.4-4.8 8.2l-.1.2-.2-.1c-.7-.3-1.4-.8-2.1-1.2z"/><path class="st2" d="M69.4 139c-1.1-.7-2.3-1.4-3.4-2.1 3.7-4.1 7.5-8.3 11.2-12.4 2.3 2.1 4.5 4.3 6.8 6.4l.2.2.2-.2 1.1-1.4.2-.2-.2-.2c-2.3-2-4.7-4.1-7-6.1 3.3-3.6 6.5-7.1 9.8-10.7 2.2 1.9 4.3 3.9 6.5 5.8l.2.2.2-.2 1-1 .2-.2-.2-.2c-2.1-1.9-4.3-3.8-6.4-5.7 2.3-2.7 4.5-5.3 6.8-8 2.7 1.7 5.4 3.3 8.1 5-.6 1.1-1.2 2.3-1.9 3.4l-.1.2.2.1c5.7 3.7 11.5 7.4 17.2 11-.2.5-.5 1-.7 1.5l-.1.2.2.1 14.9 9.1.2.1.1-.2c1.3-1.8 2.6-3.5 3.9-5.3 1.1.8 2.2 1.5 3.4 2.3-2.1 3.3-4.2 6.5-6.2 9.8l-.1.2.1.1 1 1 .2.2.2-.2c2.2-3.2 4.5-6.5 6.7-9.7 4.3 2.9 8.5 5.8 12.8 8.7-2.9 4.9-5.7 9.7-8.6 14.6l-.1.2.1.1c.3.3.5.6.8.9l-3.3 4.5c-2.9-1.8-5.8-3.5-8.7-5.3l-.2-.1-.1.2-.6.9-.1.2.2.1c2.9 1.9 5.7 3.7 8.6 5.6-2.7 4.2-5.3 8.4-8 12.6-4.9-1-9.8-2-14.8-3-4.4-3-8.8-6-13.3-9 2.5-3.5 4.9-7 7.4-10.4l.2-.3-.3-.1-1.4-.5-.2-.1-.1.2-7.2 10.2c-1.4-1-2.8-1.9-4.2-2.9l-.2-.2-.1.3-.4 1-15.9-11.7c1.7-2.6 3.5-5.2 5.2-7.7l.2-.3-1.2-.4-.2-.1-.1.1c-1.8 2.3-3.5 4.6-5.3 6.8-.8-.4-1.7-.9-2.5-1.3l-.1-.1-.2.4-1.2.9c-2.7-1.9-5.5-3.7-8.2-5.6l5.4-7.8.1-.2-.2-.1-1.4-1.1-.2-.2-.1.2c-1.6 2.7-3.2 5.5-4.8 8.2-.7-.5-1.3-.9-2-1.3z"/><path d="M115.7 50.7h-1.3l-74.8 82 63.3 47.8 50.7 10.6 49.4-77.2 1.5.9 2.6-4s-91.2-60.1-91.4-60.1zm55.1 40.4l3.4 1.8-1.4 1.8-3-1.9 1-1.7zm-2.6 5.3l2.4 2-3.5 5.4-.4.2-2.9-1.8 4.4-5.8zm-8.6-9.3l.8.8-1.7 2.7-1.1-1.1 2-2.4zm.3 25.9l-4.9 7.1-10.1-7 4.5-6.9 10.5 6.8zm-20.1-40.6l15.2 9.9-2.5 3.9-15.3-10 2.6-3.8zM133.6 85l1.4-2.2 13.5 8.8-1.9 2.3 1.4.9-13.8 21-14.6-10.3 3.9-5.3.3.8 9.8-15.2V85zm-4.8-16.9l4.6 2.9s-5.8 6.5-6.2 6.5l-4.2-3.1 5.8-6.3zm-13-8.6l7.1 4.6-4.7 5-6.2-5.3 3.8-4.3zm-8.9 7.8l8.6 7-1.3 1.2-3.5-2.8-7 7.9-5-4.6 8.2-8.7zM96.4 78.5l5.5 5.2s-5.6 6-5.9 6.4l-5.4-5 5.8-6.6zM84.7 90.6l1.2.9-4.9 6.6-2-1.4 5.7-6.1zm-32 48.5l-9.2-6.7 1.8-2.1 9 6.5-1.6 2.3zm2.6-4.9l-5.8-4.4 3.4-3.8 5.7 4-3.3 4.2zm75.1 49.9l-2.8-.6.8-2.3 2.7.8-.7 2.1zm13.5.3l-2.9-1.9 1.5-2.2 3 1.8-1.6 2.3zm20.5-43.9l-12.5 19.1 1.1.7-3.8 5.9-1.1-.8-8.5 13.4 1.8 1.1-1.7 2.4-1.7-1.2-14-2.8-.6 1.2-16.1-10.6-3.4 4.6-1.2-1 3.2-4.2L81.4 152l-1 1.3-1.4-1.2.7-1.3-7.5-4.9-.7 1-4.4-3.3.3-.8-1.4-1.2-.9.9-4.5-3 .6-1-2.3-1.7 15.7-17.6-.9-.6 8.8-9.3 1 .7 5.5-6.5-.7-.5 4.7-6.5 1.9 1.3 7.1-7.5 10.5 9.2 4-4.4 2.5 1.7-4 5.8-4.6-3-3 4.2 32.7 21.9 1.4-2 5.3 3.7-2 3.4 3.9 2.3 1.1-1.7 9.5 5.6.6-1.2-3.6-2.3 4.1-6.4 3.3 1.8 1.7-2.6-5.8-3.5 16.7-26.5 20.1 13.2-23.3 36.4-8.7-5.4zm11.4 7.5l-1.6-1.1 1.8-2.3 1.4.9-1.6 2.5zm5.3-7.6l-1.9-1.1 1.2-1.7 1.9 1.1-1.2 1.7zm3.9-6l-1.9-1.1 1.2-1.8 1.8 1.2-1.1 1.7zm3.8-6.1l-1.8-1.1 1.1-1.9 1.8 1.3-1.1 1.7zm3.6-6.1l-1.8-1.2 1.1-1.8 1.9 1.3-1.2 1.7zm5.1-6.7l-2.5-1.7 1.5-2.6 2.6 1.9-1.6 2.4z" fill="#231f20"/></svg>