<svg id="Layer_1" xmlns="http://www.w3.org/2000/svg" viewBox="0 0 250 250"><style>.st0{fill:none;stroke:#929497}.st12,.st15{fill:none;stroke:#231f20;stroke-width:2.5}.st15{stroke:#793236;stroke-width:1.5}</style><path class="st0" d="M45 102.3l6.9-11.2 28.2-25.4 17.4 3.6m-27.4 33.1l8.5-17.2 25.5-21.3m-16.5 38.6l16.6-9.6m27.7-37.5l37 19.8-13.3 27m55.3-23.8l-21.4-15.6-20.6 12.6"/><path fill="none" stroke="#929497" stroke-dasharray="3.2751,2.2751" d="M95 73.7l6.8-.7"/><path fill="none" stroke="#929497" stroke-dasharray="2.9839,1.9839" d="M105.7 71.5l5-3.4"/><path fill="none" stroke="#929497" stroke-dasharray="3.404,2.404" d="M114.9 66.5l7-1.5"/><path fill="none" stroke="#929497" stroke-dasharray="2.5518,1.5518" d="M128.6 64.1l2 1"/><path fill="none" stroke="#929497" stroke-dasharray="2.8854,1.8854" d="M134.1 66.3l2.5.7"/><path fill="none" stroke="#929497" stroke-dasharray="3.0365,2.0365" d="M140.6 67.3l9.7-.5"/><path class="st0" d="M92.3 73.9l1.2-.1m9.1-.8l1.1-.1.9-.6m6.7-4.6l.9-.6 1.1-.2m9.4-2.1l1.1-.3.9-.3m1.2-.6l.9-.3.8.3m3.5 1.7l.8.4.9.3m4.4 1.2l1 .2h1m11.8-.6l1.1-.1"/><path d="M175.9 73.3c2.2 1.3 5.8 3.4 7.7 4.5" fill="none" stroke="#929497" stroke-dasharray="2.8275,1.8275"/><path d="M187.6 78.4c2.9-.1 7.5-.3 10.1-.4" fill="none" stroke="#929497" stroke-dasharray="3.1237,2.1237"/><path fill="none" stroke="#929497" stroke-dasharray="3.293,2.293" d="M202 77.1l2.8-1.1"/><path class="st0" d="M174 72.2s.3.2.8.5m9.4 5.4c.5.3.8.4.9.4h1.1m12.2-.5h1.1l1.1-.4m5-1.8l1-.4"/><path fill="none" stroke="#231f20" d="M34.1 102.5h68.1v83.7h31.2v-83.7h77.7"/><path d="M34.1 186.2h177.3m-101.3-.7v-83.4m-5.9 53v-20.2m11.1 50.6v-83.4m5.3 83.4v-83.4m5.5 83.4v-83.4m5.7 83.2v-44.9" fill="none" stroke="#231f20" stroke-width="2"/><path class="st12" d="M104.3 135.7h22m-16.9-5.6h17.3m-17.3-5.6h17.3m-17.3-5.6h17.3m-17.3-5.6h17.3m-17.3-5.2h17.3"/><path d="M104.3 141.3h28.2m-28.2 5.6h27.1m-27.5 7.2h27.5" stroke-width="3" fill="none" stroke="#231f20"/><path d="M110.4 160.7h21m-21 8.7h21" stroke-width="4" fill="none" stroke="#231f20"/><path class="st15" d="M104 135.1V63.9l9.4-7.6 15.7-2.7 2.9 1.9v85.2"/><path class="st15" d="M103.9 93.1l18-14.4 7.3-25m-11.3 49l4-24.1m-8.4-22.2l12.3 8.9"/><path class="st12" d="M109.7 103h16.9"/></svg>