<svg xmlns="http://www.w3.org/2000/svg" viewBox="0 0 250 250"><path d="M44.6 114.2h173.7M44.5 127.8h173.8m-145 9.2h101.9" fill="none" stroke="#793236" stroke-width="4"/><path d="M66.7 114.2l7.1 13.3m-21.5-13.3l7.1 13.3M81 114.2l7.1 13.3m7.2-13.3l7.1 13.3m7.2-13.3l7.1 13.3m7.2-13.3l7.1 13.3m7.2-13.3l7.1 13.3m7.2-13.3l7.2 13.3m7.1-13.3l7.2 13.3m7.1-13.3l7.2 13.3m7.2-13.3l7.1 13.3m7.2-13.3l7.1 13.3m-157.3.3l7.1-13.3m-21.5 13.3l7.1-13.3m21.6 13.3l7.1-13.3m7.2 13.3l7.1-13.3m7.2 13.3l7.2-13.3m7.1 13.3l7.2-13.3m7.2 13.3l7.1-13.3m7.2 13.3l7.1-13.3m7.2 13.3l7.1-13.3m7.2 13.3l7.1-13.3m7.2 13.3l7.1-13.3m7.2 13.3l7.1-13.3m-150-.3v12.9m-14.4-12.9v12.9m28.7-12.9v22.4m14.3-22.4v34.4m14.3-34.4v34.4m14.3-34.4v34.4m14.3-34.4v34.4m14.3-34.4v34.4m14.4-34.4V137m14.3-22.8V137m14.3-22.8v12.9m14.3-12.9v12.9m14.3-12.9v12.9M75 128.8l6.1 7.8m8.1-8.2l6.2 8.2m7.8-8.1l6.5 8.1m7.8-8.1l6.6 8.1m8-7.7l6.2 7.7m7.8-8.1l6.6 8.1m8-8.1l6.6 8.1m-86.4 0l7-8.6m7.7 8.6l6.6-8.6m7.8 8.6l6.8-8.6m6.8 8.6l7.3-8.1m7.2 8.1l7.3-8.5m7.1 8.9l6.8-8.5m7.5 8.1l7.2-8.5" stroke-width="2" fill="none" stroke="#793236"/><path d="M80.9 137l7.2 11.6m7.1-11.6l7.3 11.6m7-11.6l7.3 11.6m6.8-11.6l7.3 11.7m7.2-11.7l7.3 11.7m-56.7-.1l7.2-11.6m7.1 11.6l7.2-11.6m7.2 11.6l7.1-11.6m7 11.7l7.1-11.6m7.4 11.6l7.2-11.6" stroke-width="3" fill="none" stroke="#793236"/><path d="M45.2 138.3H6.9m37.7-.7v11.6m-.6-.1h173.8m-.6.7v-12.5m-.6.3h23.7" stroke="#231f20" stroke-width="2" fill="none"/></svg>