<svg xmlns="http://www.w3.org/2000/svg" viewBox="0 0 259.3 103.5"><path d="M49.4 100.3V59.8c0-12.7-8.5-21.9-20.2-21.9S9 47.1 9 59.8v40.5H1.8V59.1C1.8 42.8 13.3 31 29.2 31c15.9 0 27.4 11.8 27.4 28.1v41.2h-7.2z"/><path d="M157.8 102c-12.3 0-20.2-4.5-27.2-15.4l-.8-1.3-.8 1.3c-6.9 11-14.8 15.4-27.2 15.4-17.5 0-29.7-12-29.7-29.3V1.1h7.7V72c0 13.3 9.4 22.9 22.4 22.9 11.8 0 23.7-8.6 23.7-27.7V1.1h7.7v66c0 19.1 11.9 27.7 23.7 27.7 13 0 22.4-9.6 22.4-22.9V1h7.7v71.6c0 17.3-12.2 29.4-29.6 29.4z" fill="#670c00"/><path d="M250.4 100.3V59.8c0-12.7-8.5-21.9-20.2-21.9S210 47.1 210 59.8v40.5h-7.2V59.1c0-16.3 11.5-28.1 27.4-28.1 15.9 0 27.4 11.8 27.4 28.1v41.2h-7.2z"/></svg>