<svg xmlns="http://www.w3.org/2000/svg" viewBox="0 0 250 250"><path d="M74.3 82.1L117.1 94m-42-12.5l-15.7 32m-.5-.8l40.6 12.7m17.3-31.2l41.2 35.1m-.3.1l28.8 8.4m-.1.4l27.8 3.1m-115-15.8l41.2 34.5m-.1 0l35.2 11.8m-.3.3l34.9 3.3m2.9-34.7l-3.8 35.5" fill="none" stroke="#231f20" stroke-width="3"/><path d="M99.9 124.6l16.5-31.1m24.6 65.7l16.3-29m17.8 40.7l11.1-31.9m.1-.1l21.7 36.2m-21.8-36.4l-45 20.5m-.6.1L116 94.7m-.3.4l-55.6 17.3M69 92.2L33.8 81.6M30 123.3l3.6-42m-4 42.1l61.5 18m-.1 0l40.3 34.2m-.2 0l39.2 13m-.2.3l4.6-16.3" fill="none" stroke="#231f20"/></svg>