<?xml version="1.0" encoding="utf-8"?>
<!-- Generator: Adobe Illustrator 22.0.0, SVG Export Plug-In . SVG Version: 6.00 Build 0)  -->
<svg version="1.1" id="Layer_1" xmlns="http://www.w3.org/2000/svg" xmlns:xlink="http://www.w3.org/1999/xlink" x="0px" y="0px"
	 viewBox="0 0 250 250" style="enable-background:new 0 0 250 250;" xml:space="preserve">
<style type="text/css">
	.st0{fill:none;stroke:#231F20;stroke-width:3;}
	.st1{fill:none;stroke:#231F20;}
</style>
<line class="st0" x1="74.3" y1="82.1" x2="117.1" y2="94"/>
<line class="st0" x1="75.1" y1="81.5" x2="59.4" y2="113.5"/>
<line class="st0" x1="58.9" y1="112.7" x2="99.5" y2="125.4"/>
<line class="st0" x1="116.8" y1="94.2" x2="158" y2="129.3"/>
<line class="st0" x1="157.7" y1="129.4" x2="186.5" y2="137.8"/>
<line class="st0" x1="186.4" y1="138.2" x2="214.2" y2="141.3"/>
<line class="st0" x1="99.2" y1="125.5" x2="140.4" y2="160"/>
<line class="st0" x1="140.3" y1="160" x2="175.5" y2="171.8"/>
<line class="st0" x1="175.2" y1="172.1" x2="210.1" y2="175.4"/>
<line class="st0" x1="213" y1="140.7" x2="209.2" y2="176.2"/>
<line class="st1" x1="99.9" y1="124.6" x2="116.4" y2="93.5"/>
<line class="st1" x1="141" y1="159.2" x2="157.3" y2="130.2"/>
<line class="st1" x1="175.1" y1="170.9" x2="186.2" y2="139"/>
<line class="st1" x1="186.3" y1="138.9" x2="208" y2="175.1"/>
<line class="st1" x1="186.2" y1="138.7" x2="141.2" y2="159.2"/>
<line class="st1" x1="140.6" y1="159.3" x2="116" y2="94.7"/>
<line class="st1" x1="115.7" y1="95.1" x2="60.1" y2="112.4"/>
<line class="st1" x1="69" y1="92.2" x2="33.8" y2="81.6"/>
<line class="st1" x1="30" y1="123.3" x2="33.6" y2="81.3"/>
<line class="st1" x1="29.6" y1="123.4" x2="91.1" y2="141.4"/>
<line class="st1" x1="91" y1="141.4" x2="131.3" y2="175.6"/>
<line class="st1" x1="131.1" y1="175.6" x2="170.3" y2="188.6"/>
<line class="st1" x1="170.1" y1="188.9" x2="174.7" y2="172.6"/>
</svg>
