<svg xmlns="http://www.w3.org/2000/svg" viewBox="0 0 215.6 180.4"><path d="M112.5 29.8l63-26v130l-63 11z"/><path d="M185.5 31.8v111l-78 14v19l103-17v-135zm-83-2l-63-26v130l63 11z"/><path d="M29.5 31.8v111l78 14v19l-103-17v-135zm89.2 39.1H90.5V116h34.7V77.2l-6.5-6.3zM93.5 113V73.9h23.7v4.8h5V113H93.5z"/><path fill="none" stroke="#000" stroke-width="4" stroke-miterlimit="10" d="M107.8 87.5v6.1"/><path d="M103.8 92.4l4 6.9 4-6.9z"/><path fill="none" stroke="#000" stroke-width="2" stroke-miterlimit="10" d="M103.2 101.5h9.3"/></svg>