<svg id="Layer_1" xmlns="http://www.w3.org/2000/svg" viewBox="0 0 250 250"><style>.st0{fill:#793236}.st1{stroke-width:1.5;fill:none;stroke:#231f20}</style><path class="st0" d="M61.3 146.1V64.8l61.8 28.5v36l-61.8 16.8"/><path class="st1" d="M61.3 146.1V64.8l61.8 28.5v36z"/><path class="st0" d="M107.8 164.5c2.8 0 5.1-2.3 5.1-5.1s-2.3-5.1-5.1-5.1-5.1 2.3-5.1 5.1c-.1 2.8 2.2 5.1 5.1 5.1"/><ellipse transform="rotate(-67.5 107.754 159.352)" cx="107.8" cy="159.4" rx="5.1" ry="5.1" fill="none" stroke="#793236" stroke-width="2"/><path class="st0" d="M168.9 156.6c5.4 0 9.7-4.4 9.7-9.7 0-5.4-4.4-9.7-9.7-9.7-5.4 0-9.7 4.4-9.7 9.7-.1 5.3 4.3 9.7 9.7 9.7"/><path d="M168.9 156.6c5.4 0 9.7-4.4 9.7-9.7 0-5.4-4.4-9.7-9.7-9.7-5.4 0-9.7 4.4-9.7 9.7-.1 5.3 4.3 9.7 9.7 9.7z" fill="none" stroke="#793236" stroke-width="3"/><path class="st1" d="M28.3 184.7h198.4m-165.4-40v39.4m6.8 0v-32.3m-.2.2l63-17.7m-.5.4v-30.8l58.9 26.1m.2-.3v55m7-.6v-58.6m-73.7-32.4l74.1 33"/><path d="M68.1 184.2l-6.4-5.4m-.3-.1l6.7-5.6m0 .3l-6.3-5.6m-.5.2l7-6.3m-.2.8l-6.9-6.3m.6.9l6.4-5.2m-.1 0l-7-5.4m7.1 5.6l3.4-8.4m0 .2l6.6 4.8m-.2.2l4.2-8.7m-.5.7l7 5m-.1 0l4.3-8.7m-.9.8l7.4 4.9m.1 0l3.5-8.2m-.7.4l7.3 5m0-.3l3.2-7.4m-.1-.1l7.1 4.7m.3 0l3.1-7.2m-.1-.6l7 5m-6.5-4.9l6.8-5.6m-7.4-5l6.7 5.1m-6.3-15.8l6.6 5.1m-6.8 6.1l6.8-5.8m-6.5-5.4l6.7-3.9m.5 0l-6.8-10.3m6.7 10.1l7.7-4m-.1.1l1.8 7.6m.1.3l7.8-3.6m-.1-.4l1.9 8.5m0-.3l8.3-3.6m0 .6l2 7.5m0-.1l7.9-3.5m-.1.5l1.9 7.6m0 0l8.3-3.5m-.5.3l2.1 7.2m.1.5l7.9-3.7m-.2.2l2.1 7.5m0 .4l7-4.4m-6.8 4.8l7 5.8m-7 4.9l7.2 5.4m-7.4 5.3l7.2 6.2m-7.2 4.6l7.2 5.4m-6.9 5.4l6.9 5.4m-6.8 4.7l6.8-5m-7.1-5.4l7.2-5.7m-7.1-4.6l7-5.8m-7-5.2l7.2-5.9m-6.9-4.8l6.5-5.9" fill="none" stroke="#231f20"/></svg>