<svg id="Layer_1" xmlns="http://www.w3.org/2000/svg" viewBox="0 0 250 250"><style>.st0{fill:#231f20}.st1{fill:none;stroke:#231f20;stroke-width:3.68}</style><path class="st0" d="M171.5 114.9h15.9v22.8h-15.9z"/><path class="st1" d="M171.5 114.9h15.9v22.8h-15.9z"/><path class="st0" d="M128.7 91h45.1v12.6h-45.1z"/><path class="st1" d="M128.7 91h45.1v12.6h-45.1z"/><path class="st0" d="M98.1 70.4h45.1V83H98.1z"/><path class="st1" d="M98.1 70.4h45.1V83H98.1z"/><path class="st0" d="M83.5 59.6h9.4v7.8h-9.4z"/><path class="st1" d="M83.5 59.6h9.4v7.8h-9.4z"/><path class="st0" d="M59.5 67.4h15.9v36.2H59.5z"/><path class="st1" d="M59.5 67.4h15.9v36.2H59.5z"/><path class="st0" d="M52.4 111h9.4v18.1h-9.4z"/><path class="st1" d="M52.4 111h9.4v18.1h-9.4z"/><path fill="none" d="M73.4 114.9h86.4v81.3H73.4z"/><path d="M158.2 195.9h3.1m-3.1-1.6h3.1m-3.1-1.5h3.1m-3.1-1.5h3.1m-3.1-1.6h3.1m-3.1-1.5h3.1m-3.1-1.5h3.1m-3.1-1.5h3.1m-3.1-1.6h3.1m-3.1-1.5h3.1m-3.1-1.5h3.1m-3.1-1.6h3.1m-3.1-1.5h3.1m-3.1-1.5h3.1m-3.1-1.5h3.1m-3.1-1.6h3.1m-3.1-1.5h3.1m-3.1-1.5h3.1m-3.1-1.6h3.1m-3.1-1.5h3.1m-3.1-1.5h3.1m-3.1-1.5h3.1m-3.1-1.6h3.1m-3.1-1.5h3.1m-3.1-1.5h3.1m-3.1-1.5h3.1m-3.1-1.6h3.1m-3.1-1.5h3.1m-3.1-1.5h3.1m-3.1-1.6h3.1m-3.1-1.5h3.1m-3.1-1.5h3.1m-3.1-1.5h3.1m-3.1-1.6h3.1m-3.1-1.5h3.1m-3.1-1.5h3.1m-3.1-1.6h3.1m-3.1-1.5h3.1m-3.1-1.5h3.1m-3.1-1.5h3.1m-3.1-1.6h3.1m-3.1-1.5h3.1m-3.1-1.5h3.1m-3.1-1.6h3.1m-3.1-1.5h3.1m-3.1-1.5h3.1m-3.1-1.5h3.1m-3.1-1.6h3.1m-3.1-1.5h3.1m-3.1-1.5h3.1m-3.1-1.6h3.1m-3.1-1.5h3.1m-3.1-1.5h3.1m-1.5 0v-3.1m-1.6 3.1v-3.1m-1.5 3.1v-3.1m-1.5 3.1v-3.1m-1.6 3.1v-3.1m-1.5 3.1v-3.1m-1.5 3.1v-3.1m-1.5 3.1v-3.1m-1.6 3.1v-3.1m-1.5 3.1v-3.1m-1.5 3.1v-3.1m-1.6 3.1v-3.1m-1.5 3.1v-3.1m-1.5 3.1v-3.1m-1.5 3.1v-3.1m-1.6 3.1v-3.1m-1.5 3.1v-3.1m-1.5 3.1v-3.1m-1.5 3.1v-3.1m-1.6 3.1v-3.1m-1.5 3.1v-3.1m-1.5 3.1v-3.1m-1.6 3.1v-3.1m-1.5 3.1v-3.1m-1.5 3.1v-3.1m-1.5 3.1v-3.1m-1.6 3.1v-3.1m-1.5 3.1v-3.1m-1.5 3.1v-3.1m-1.6 3.1v-3.1m-1.5 3.1v-3.1m-1.5 3.1v-3.1m-1.5 3.1v-3.1m-1.6 3.1v-3.1m-1.5 3.1v-3.1m-1.5 3.1v-3.1m-1.6 3.1v-3.1m-1.5 3.1v-3.1m-1.5 3.1v-3.1m-1.5 3.1v-3.1m-1.6 3.1v-3.1m-1.5 3.1v-3.1m-1.5 3.1v-3.1m-1.6 3.1v-3.1m-1.5 3.1v-3.1m-1.5 3.1v-3.1m-1.5 3.1v-3.1m-1.6 3.1v-3.1m-1.5 3.1v-3.1m-1.5 3.1v-3.1m-1.5 3.1v-3.1m-1.6 3.1v-3.1m-1.5 3.1v-3.1m-1.5 3.1v-3.1m-1.6 3.1v-3.1m-1.5 3.1v-3.1m-1.5 3.1v-3.1m.7 2.3h-3m3 1.6h-3m3 1.5h-3m3 1.5h-3m3 1.6h-3m3 1.5h-3m3 1.5h-3m3 1.5h-3m3 1.6h-3m3 1.5h-3m3 1.5h-3m3 1.5h-3m3 1.6h-3m3 1.5h-3m3 1.5h-3m3 1.6h-3m3 1.5h-3m3 1.5h-3m3 1.5h-3m3 1.6h-3m3 1.5h-3m3 1.5h-3m3 1.6h-3m3 1.5h-3m3 1.5h-3m3 1.5h-3m3 1.6h-3m3 1.5h-3m3 1.5h-3m3 1.6h-3m3 1.5h-3m3 1.5h-3m3 1.5h-3m3 1.6h-3m3 1.5h-3m3 1.5h-3m3 1.6h-3m3 1.5h-3m3 1.5h-3m3 1.5h-3m3 1.6h-3m3 1.5h-3m3 1.5h-3m3 1.5h-3m3 1.6h-3m3 1.5h-3m3 1.5h-3m3 1.6h-3m3 1.5h-3m3 1.5h-3m3 1.5h-3m3 1.6h-3m3 1.5h-3m2-.5v3.1m1.5-3.1v3.1m1.6-3.1v3.1m1.5-3.1v3.1m1.5-3.1v3.1m1.5-3.1v3.1m1.6-3.1v3.1m1.5-3.1v3.1m1.5-3.1v3.1m1.6-3.1v3.1m1.5-3.1v3.1m1.5-3.1v3.1m1.5-3.1v3.1m1.6-3.1v3.1m1.5-3.1v3.1m1.5-3.1v3.1m1.6-3.1v3.1m1.5-3.1v3.1m1.5-3.1v3.1m1.5-3.1v3.1m1.6-3.1v3.1m1.5-3.1v3.1m1.5-3.1v3.1m1.6-3.1v3.1m1.5-3.1v3.1m1.5-3.1v3.1m1.5-3.1v3.1m1.6-3.1v3.1m1.5-3.1v3.1m1.5-3.1v3.1m1.6-3.1v3.1m1.5-3.1v3.1m1.5-3.1v3.1m1.5-3.1v3.1m1.6-3.1v3.1m1.5-3.1v3.1m1.5-3.1v3.1m1.5-3.1v3.1m1.6-3.1v3.1m1.5-3.1v3.1m1.5-3.1v3.1m1.6-3.1v3.1m1.5-3.1v3.1m1.5-3.1v3.1m1.5-3.1v3.1m1.6-3.1v3.1m1.5-3.1v3.1m1.5-3.1v3.1m1.6-3.1v3.1m1.5-3.1v3.1m1.5-3.1v3.1m1.5-3.1v3.1m1.6-3.1v3.1m1.5-3.1v3.1m1.5-3.1v3.1m1.6-3.1v3.1m1.5-3.1v3.1" stroke="#793236" stroke-width=".688" fill="none"/><path class="st0" d="M196.4 138h9.4v12.6h-9.4z"/><path class="st1" d="M196.4 138h9.4v12.6h-9.4z"/></svg>