<?xml version="1.0" encoding="utf-8"?>
<!-- Generator: Adobe Illustrator 22.0.0, SVG Export Plug-In . SVG Version: 6.00 Build 0)  -->
<svg version="1.1" id="Layer_1" xmlns="http://www.w3.org/2000/svg" xmlns:xlink="http://www.w3.org/1999/xlink" x="0px" y="0px"
	 viewBox="0 0 6448 682.8" style="enable-background:new 0 0 6448 682.8;" xml:space="preserve">
<style type="text/css">
	.st0{opacity:0.57;fill:#793236;enable-background:new    ;}
	.st1{opacity:0.64;fill:#793236;enable-background:new    ;}
	.st2{opacity:0.9;fill:#793236;enable-background:new    ;}
	.st3{opacity:0.68;fill:#793236;enable-background:new    ;}
	.st4{opacity:0.74;fill:#793236;enable-background:new    ;}
	.st5{opacity:0.99;fill:#793236;enable-background:new    ;}
	.st6{fill:none;stroke:#000000;stroke-miterlimit:10;}
	.st7{opacity:0.89;fill:#793236;enable-background:new    ;}
</style>
<g id="clouds">
	<path class="st0" d="M447.8,386.8c0-7-5.7-12.7-12.7-12.7c-5.4,0-10,3.4-11.8,8.1c-2.8-3.7-7.3-6.1-12.3-6.1
		c-4.2,0-8.1,1.7-10.9,4.5c-0.9-6-6-10.5-12.2-10.5c-1.8,0-3.5,0.4-5.1,1.1c-0.8-7.8-7.3-13.8-15.3-13.8c-8.5,0-15.4,6.9-15.4,15.4
		c0,0.5,0,1,0.1,1.6c-7.3,1.2-12.8,7.6-12.8,15.2c0,7.1,4.8,13.1,11.3,14.9c-1.7,2.5-2.6,5.4-2.6,8.6c0,8.5,6.9,15.4,15.4,15.4
		c8,0,14.6-6.1,15.3-14c2.7,4,7.3,6.6,12.5,6.6c4.2,0,8-1.7,10.7-4.5c1.5,6.4,7.2,11.2,14,11.2c5.7,0,10.6-3.3,12.9-8.1
		c1.4,0.5,2.9,0.7,4.5,0.7c8,0,14.4-6.4,14.4-14.4c0-3.8-1.5-7.3-4-9.9C446.3,393.5,447.8,390.3,447.8,386.8z"/>
	<path class="st1" d="M181.6,274.4c6-4.3,8.1-12.5,4.7-19.3c-3.2-6.3-10.1-9.6-16.8-8.2c0.4-2.9-0.1-6-1.5-8.9
		c-3.8-7.6-13-10.7-20.7-6.9c-1.7,0.8-3.2,2-4.4,3.3v60.7c2.8,0.7,5.8,0.4,8.5-0.9c1.6-0.8,3-1.9,4.1-3.3c4.2,6.6,12.7,9.1,19.9,5.5
		c7.6-3.8,10.7-13,6.9-20.7C182.2,275.3,181.9,274.8,181.6,274.4z"/>
	<path class="st2" d="M968.9,237.5c0-6.1-2.7-11.5-7-15.2c0-0.4,0-0.8,0-1.2c0-11.1-9-20-20-20c-8.4,0-15.5,5.1-18.5,12.4
		c-3.6-3.9-8.8-6.3-14.5-6.3c-6.3,0-11.9,2.9-15.5,7.4c-4.2-3.5-9.5-5.6-15.4-5.6c-13.2,0-23.9,10.7-23.9,23.9s10.7,23.9,23.9,23.9
		c2.6,0,5.1-0.4,7.4-1.2c0,0.4,0,0.8,0,1.2c0,11.1,9,20,20,20c8.1,0,15.1-4.8,18.2-11.7c3.2,2.2,7.1,3.5,11.4,3.5
		c8.1,0,15-4.8,18.2-11.7C962.1,255.1,968.9,247,968.9,237.5z"/>
	<path class="st3" d="M1487.5,390.9c0-6.3-5.1-11.5-11.5-11.5c-5,0-9.2,3.1-10.8,7.5c-2-3.4-5.7-5.8-10-5.8c-1.2,0-2.4,0.2-3.4,0.5
		c0-0.2,0-0.3,0-0.5c0-6.3-5.1-11.5-11.5-11.5c-3.8,0-7.1,1.8-9.2,4.6c-0.1-0.1-0.2-0.2-0.4-0.3c-0.8-8.7-8.1-15.5-17-15.5
		c-9.4,0-17.1,7.7-17.1,17.1c0,2.6,0.6,5.1,1.7,7.3c-0.8-0.2-1.7-0.3-2.5-0.3c-6.3,0-11.5,5.1-11.5,11.5c0,6.3,5.1,11.5,11.5,11.5
		c2.4,0,4.7-0.8,6.5-2c0.6,5.8,5.5,10.3,11.4,10.3c4,0,7.4-2,9.5-5c2.5,3.4,6.5,5.6,11.1,5.6c0.2,0,0.4,0,0.6,0
		c0.4,7.2,6.4,13,13.8,13c5.5,0,10.3-3.3,12.5-8c2.2,1.5,4.9,2.4,7.8,2.4c7.6,0,13.8-6.2,13.8-13.8c0-2.5-0.7-4.8-1.8-6.8
		C1484.9,399.2,1487.5,395.3,1487.5,390.9z"/>
	<path class="st4" d="M484.6,365.2c-1.2,0.3-2.4,0.8-3.3,1.5c0-0.9,0-1.9-0.2-2.8c-1.3-6-7.2-9.7-13.1-8.4c-1.5,0.3-2.8,0.9-4,1.8
		c0-0.7-0.1-1.4-0.3-2.2c-1.5-7-8.4-11.4-15.4-9.9s-11.4,8.4-9.9,15.3c-3.2-2-7.2-2.8-11.2-2c-8.2,1.8-13.4,9.8-11.6,18
		s9.8,13.4,18,11.6c1.1-0.2,2.2-0.6,3.2-1.1c1.9,3.9,6.2,6.2,10.7,5.3c3.2-0.7,5.7-2.9,6.8-5.7c2,6.7,8.8,10.9,15.8,9.4
		s11.6-8.3,10.5-15.3c2.1,1.9,5,2.8,7.9,2.1c4.9-1.1,7.9-5.8,6.9-10.7C494.3,367.2,489.5,364.1,484.6,365.2z"/>
</g>
<path class="st5" d="M2429.4,173.9c0-6.3-5.1-11.5-11.5-11.5c-3.8,0-7.2,1.9-9.3,4.7c-2.5-5.2-7.8-8.8-14-8.8
	c-2.3,0-4.5,0.5-6.5,1.5c-3.6-9.4-12.7-16.1-23.4-16.1c-10,0-18.6,5.8-22.6,14.3c-0.8-0.1-1.6-0.2-2.4-0.2c-3.4,0-6.6,1-9.3,2.6
	c-1-5.6-5.8-9.8-11.6-9.8c-6.5,0-11.8,5.3-11.8,11.8c0,0.1,0,0.2,0,0.2l0,0c-7.4,0-13.4,6-13.4,13.4s6,13.4,13.4,13.4
	c1,0,2-0.1,3-0.4c0,0.1,0,0.2,0,0.4c0,7.4,6,13.4,13.4,13.4c2.9,0,5.6-0.9,7.8-2.5c2.7,7.7,10,13.2,18.6,13.2
	c8.7,0,16.1-5.6,18.7-13.4c2.3,4.2,6.7,7,11.8,7c5.6,0,10.4-3.4,12.4-8.3c2.6,4.9,7.8,8.3,13.7,8.3c8.6,0,15.5-7,15.5-15.5
	c0-2.3-0.5-4.5-1.4-6.5C2425.6,184,2429.4,179.4,2429.4,173.9z"/>
<g>
	<line class="st6" x1="1404.5" y1="435.3" x2="1404.5" y2="452.8"/>
	<line class="st6" x1="1416" y1="449.2" x2="1416" y2="459.4"/>
	<line class="st6" x1="1424.5" y1="440.8" x2="1424.5" y2="446.5"/>
	<line class="st6" x1="1435.9" y1="438" x2="1435.9" y2="445.5"/>
	<line class="st6" x1="1435.9" y1="458.3" x2="1435.9" y2="468.5"/>
	<line class="st6" x1="1424.5" y1="474.8" x2="1424.5" y2="482.1"/>
	<line class="st6" x1="1449.5" y1="446.5" x2="1449.5" y2="456.2"/>
	<line class="st6" x1="1444" y1="464.3" x2="1444" y2="473"/>
	<line class="st6" x1="1463.5" y1="435.3" x2="1463.5" y2="444"/>
	<line class="st6" x1="1460" y1="460.4" x2="1460" y2="466.3"/>
	<line class="st6" x1="1475" y1="444" x2="1475" y2="458.3"/>
	<line class="st6" x1="1467.5" y1="470" x2="1467.5" y2="476.1"/>
	<line class="st6" x1="1441" y1="483.5" x2="1441" y2="490.9"/>
	<line class="st6" x1="1453" y1="477.2" x2="1453" y2="484"/>
	<line class="st6" x1="1408" y1="462.9" x2="1408" y2="471.5"/>
	<line class="st6" x1="1416" y1="425" x2="1416" y2="431.9"/>
	<line class="st6" x1="1424.5" y1="418.5" x2="1424.5" y2="425"/>
	<line class="st6" x1="1418.5" y1="497.2" x2="1418.5" y2="509.2"/>
	<line class="st6" x1="1433" y1="484" x2="1433" y2="492.3"/>
	<line class="st6" x1="1447.8" y1="498.8" x2="1447.8" y2="507"/>
</g>
<path class="st7" d="M1951.8,301.2c0.6,7.5,7,13.5,14.7,13.5c4.7,0,8.9-2.2,11.6-5.7c3.4,2.2,7.5,3.5,12,3.5c6,0,11.5-2.4,15.5-6.3
	c2,5.8,7.5,10,13.9,10c8.1,0,14.7-6.6,14.7-14.7c0-6.2-3.8-11.5-9.2-13.6c4.5-3.4,7.5-8.7,7.5-14.8c0-10.2-8.2-18.4-18.4-18.4
	c-8.8,0-16.1,6.2-17.9,14.4c-1.9-0.6-4-0.9-6.1-0.9c-7.4,0-14,3.6-18,9.2c-2.4-7.4-9.3-12.7-17.5-12.7c-10.2,0-18.4,8.2-18.4,18.4
	C1936.2,292.2,1943,299.8,1951.8,301.2z"/>
<path class="st2" d="M2928,369.2c0-6.1-2.7-11.5-7-15.2c0-0.4,0-0.8,0-1.2c0-11.1-9-20-20-20c-8.4,0-15.5,5.1-18.5,12.4
	c-3.6-3.9-8.8-6.3-14.5-6.3c-6.3,0-11.9,2.9-15.5,7.4c-4.2-3.5-9.5-5.6-15.4-5.6c-13.2,0-23.9,10.7-23.9,23.9
	c0,13.2,10.7,23.9,23.9,23.9c2.6,0,5.1-0.4,7.4-1.2c0,0.4,0,0.8,0,1.2c0,11.1,9,20,20,20c8.1,0,15.1-4.8,18.2-11.7
	c3.2,2.2,7.1,3.5,11.4,3.5c8.1,0,15-4.8,18.2-11.7C2921.2,386.8,2928,378.7,2928,369.2z"/>
</svg>
