<?xml version="1.0" encoding="utf-8"?>
<!-- Generator: Adobe Illustrator 22.0.0, SVG Export Plug-In . SVG Version: 6.00 Build 0)  -->
<svg version="1.1" id="Layer_1" xmlns="http://www.w3.org/2000/svg" xmlns:xlink="http://www.w3.org/1999/xlink" x="0px" y="0px"
	 viewBox="0 0 250 250" style="enable-background:new 0 0 250 250;" xml:space="preserve">
<style type="text/css">
	.st0{fill:none;stroke:#793236;stroke-width:2;}
	.st1{fill:none;stroke:#231F20;stroke-width:4;}
</style>
<line class="st0" x1="58.6" y1="121.7" x2="67.2" y2="121.7"/>
<line class="st0" x1="71" y1="128" x2="71" y2="159.3"/>
<line class="st0" x1="63.4" y1="97.8" x2="63.4" y2="121.4"/>
<line class="st0" x1="70.7" y1="159.3" x2="82.7" y2="159.3"/>
<line class="st0" x1="113.5" y1="163.6" x2="123.4" y2="163.6"/>
<line class="st0" x1="123" y1="163.6" x2="123" y2="149.6"/>
<line class="st0" x1="129.8" y1="149.6" x2="122.7" y2="149.6"/>
<line class="st0" x1="129.8" y1="146.6" x2="122.7" y2="146.6"/>
<line class="st0" x1="123" y1="146.6" x2="123" y2="102.9"/>
<line class="st0" x1="123.4" y1="141.6" x2="112.9" y2="141.6"/>
<line class="st0" x1="92.7" y1="141.1" x2="84.6" y2="141.1"/>
<line class="st0" x1="85.3" y1="141.5" x2="85.3" y2="121.3"/>
<line class="st0" x1="86" y1="121.3" x2="81" y2="121.3"/>
<line class="st0" x1="63.1" y1="97.8" x2="91.3" y2="97.8"/>
<line class="st0" x1="154.2" y1="97.2" x2="167.4" y2="97.2"/>
<line class="st0" x1="112.3" y1="97.2" x2="129.7" y2="97.2"/>
<line class="st0" x1="155.5" y1="149.7" x2="166.9" y2="149.7"/>
<line class="st0" x1="166.9" y1="150" x2="166.9" y2="120.6"/>
<line class="st0" x1="166.6" y1="120.9" x2="181.5" y2="120.9"/>
<line class="st0" x1="166.6" y1="112.3" x2="181.5" y2="112.3"/>
<line class="st0" x1="166.9" y1="97.3" x2="166.9" y2="112.6"/>
<rect x="33.8" y="115.8" class="st1" width="24.5" height="11.9"/>
<path class="st1" d="M33.8,127.7"/>
<rect x="67.3" y="115.8" class="st1" width="13.6" height="11.9"/>
<path class="st1" d="M67.3,127.7"/>
<rect x="92.7" y="135.6" class="st1" width="20.1" height="11.9"/>
<path class="st1" d="M92.7,147.5"/>
<rect x="91.5" y="93.1" class="st1" width="20.1" height="11.9"/>
<path class="st1" d="M91.5,105"/>
<rect x="83.2" y="152.7" class="st1" width="30.2" height="17.2"/>
<path class="st1" d="M83.2,169.9"/>
<rect x="130.3" y="142.8" class="st1" width="24.5" height="13.6"/>
<path class="st1" d="M130.3,156.4"/>
<rect x="129.8" y="91.1" class="st1" width="23.5" height="14.6"/>
<path class="st1" d="M129.8,105.7"/>
<rect x="180.9" y="105.3" class="st1" width="43.7" height="26.5"/>
<path class="st1" d="M180.9,131.8"/>
<line class="st0" x1="129.2" y1="102.9" x2="122.5" y2="102.9"/>
<path class="st0" d="M113.5,163.6"/>
</svg>
