<?xml version="1.0" encoding="utf-8"?>
<!-- Generator: Adobe Illustrator 22.0.0, SVG Export Plug-In . SVG Version: 6.00 Build 0)  -->
<svg version="1.1" id="Layer_1" xmlns="http://www.w3.org/2000/svg" xmlns:xlink="http://www.w3.org/1999/xlink" x="0px" y="0px"
	 viewBox="0 0 250 250" style="enable-background:new 0 0 250 250;" xml:space="preserve">
<style type="text/css">
	.st0{fill:none;stroke:#793236;stroke-width:4;}
	.st1{fill:none;stroke:#793236;stroke-width:2;}
	.st2{fill:none;stroke:#793236;stroke-width:3;}
	.st3{fill:none;stroke:#231F20;stroke-width:2;}
</style>
<line class="st0" x1="44.6" y1="114.2" x2="218.3" y2="114.2"/>
<line class="st0" x1="44.5" y1="127.8" x2="218.3" y2="127.8"/>
<line class="st0" x1="73.3" y1="137" x2="175.2" y2="137"/>
<line class="st1" x1="66.7" y1="114.2" x2="73.8" y2="127.5"/>
<line class="st1" x1="52.3" y1="114.2" x2="59.4" y2="127.5"/>
<line class="st1" x1="81" y1="114.2" x2="88.1" y2="127.5"/>
<line class="st1" x1="95.3" y1="114.2" x2="102.4" y2="127.5"/>
<line class="st1" x1="109.6" y1="114.2" x2="116.7" y2="127.5"/>
<line class="st1" x1="123.9" y1="114.2" x2="131" y2="127.5"/>
<line class="st1" x1="138.2" y1="114.2" x2="145.3" y2="127.5"/>
<line class="st1" x1="152.5" y1="114.2" x2="159.7" y2="127.5"/>
<line class="st1" x1="166.8" y1="114.2" x2="174" y2="127.5"/>
<line class="st1" x1="181.1" y1="114.2" x2="188.3" y2="127.5"/>
<line class="st1" x1="195.5" y1="114.2" x2="202.6" y2="127.5"/>
<line class="st1" x1="209.8" y1="114.2" x2="216.9" y2="127.5"/>
<line class="st1" x1="59.6" y1="127.8" x2="66.7" y2="114.5"/>
<line class="st1" x1="45.2" y1="127.8" x2="52.3" y2="114.5"/>
<line class="st1" x1="73.9" y1="127.8" x2="81" y2="114.5"/>
<line class="st1" x1="88.2" y1="127.8" x2="95.3" y2="114.5"/>
<line class="st1" x1="102.5" y1="127.8" x2="109.7" y2="114.5"/>
<line class="st1" x1="116.8" y1="127.8" x2="124" y2="114.5"/>
<line class="st1" x1="131.2" y1="127.8" x2="138.3" y2="114.5"/>
<line class="st1" x1="145.5" y1="127.8" x2="152.6" y2="114.5"/>
<line class="st1" x1="159.8" y1="127.8" x2="166.9" y2="114.5"/>
<line class="st1" x1="174.1" y1="127.8" x2="181.2" y2="114.5"/>
<line class="st1" x1="188.4" y1="127.8" x2="195.5" y2="114.5"/>
<line class="st1" x1="202.7" y1="127.8" x2="209.8" y2="114.5"/>
<line class="st1" x1="59.8" y1="114.2" x2="59.8" y2="127.1"/>
<line class="st1" x1="45.4" y1="114.2" x2="45.4" y2="127.1"/>
<line class="st1" x1="74.1" y1="114.2" x2="74.1" y2="136.6"/>
<line class="st1" x1="88.4" y1="114.2" x2="88.4" y2="148.6"/>
<line class="st1" x1="102.7" y1="114.2" x2="102.7" y2="148.6"/>
<line class="st1" x1="117" y1="114.2" x2="117" y2="148.6"/>
<line class="st1" x1="131.3" y1="114.2" x2="131.3" y2="148.6"/>
<line class="st1" x1="145.6" y1="114.2" x2="145.6" y2="148.6"/>
<line class="st1" x1="160" y1="114.2" x2="160" y2="137"/>
<line class="st1" x1="174.3" y1="114.2" x2="174.3" y2="137"/>
<line class="st1" x1="188.6" y1="114.2" x2="188.6" y2="127.1"/>
<line class="st1" x1="202.9" y1="114.2" x2="202.9" y2="127.1"/>
<line class="st1" x1="217.2" y1="114.2" x2="217.2" y2="127.1"/>
<line class="st1" x1="75" y1="128.8" x2="81.1" y2="136.6"/>
<line class="st1" x1="89.2" y1="128.4" x2="95.4" y2="136.6"/>
<line class="st1" x1="103.2" y1="128.5" x2="109.7" y2="136.6"/>
<line class="st1" x1="117.5" y1="128.5" x2="124.1" y2="136.6"/>
<line class="st1" x1="132.1" y1="128.9" x2="138.3" y2="136.6"/>
<line class="st1" x1="146.1" y1="128.5" x2="152.7" y2="136.6"/>
<line class="st1" x1="160.7" y1="128.5" x2="167.3" y2="136.6"/>
<line class="st1" x1="80.9" y1="136.6" x2="87.9" y2="128"/>
<line class="st1" x1="95.6" y1="136.6" x2="102.2" y2="128"/>
<line class="st1" x1="110" y1="136.6" x2="116.8" y2="128"/>
<line class="st1" x1="123.6" y1="136.6" x2="130.9" y2="128.5"/>
<line class="st1" x1="138.1" y1="136.6" x2="145.4" y2="128.1"/>
<line class="st1" x1="152.5" y1="137" x2="159.3" y2="128.5"/>
<line class="st1" x1="166.8" y1="136.6" x2="174" y2="128.1"/>
<line class="st2" x1="80.9" y1="137" x2="88.1" y2="148.6"/>
<line class="st2" x1="95.2" y1="137" x2="102.5" y2="148.6"/>
<line class="st2" x1="109.5" y1="137" x2="116.8" y2="148.6"/>
<line class="st2" x1="123.6" y1="137" x2="130.9" y2="148.7"/>
<line class="st2" x1="138.1" y1="137" x2="145.4" y2="148.7"/>
<line class="st2" x1="88.7" y1="148.6" x2="95.9" y2="137"/>
<line class="st2" x1="103" y1="148.6" x2="110.2" y2="137"/>
<line class="st2" x1="117.4" y1="148.6" x2="124.5" y2="137"/>
<line class="st2" x1="131.5" y1="148.7" x2="138.6" y2="137.1"/>
<line class="st2" x1="146" y1="148.7" x2="153.2" y2="137.1"/>
<line class="st3" x1="45.2" y1="138.3" x2="6.9" y2="138.3"/>
<line class="st3" x1="44.6" y1="137.6" x2="44.6" y2="149.2"/>
<line class="st3" x1="44" y1="149.1" x2="217.8" y2="149.1"/>
<line class="st3" x1="217.2" y1="149.8" x2="217.2" y2="137.3"/>
<line class="st3" x1="216.6" y1="137.6" x2="240.3" y2="137.6"/>
</svg>
