<?xml version="1.0" encoding="utf-8"?>
<!-- Generator: Adobe Illustrator 22.0.0, SVG Export Plug-In . SVG Version: 6.00 Build 0)  -->
<svg version="1.1" id="WLine" xmlns="http://www.w3.org/2000/svg" xmlns:xlink="http://www.w3.org/1999/xlink" x="0px" y="0px"
	 viewBox="0 0 259.3 103.5" style="enable-background:new 0 0 259.3 103.5;" xml:space="preserve">
<style type="text/css">
	.st0{fill:none;stroke:#000000;stroke-width:7;stroke-miterlimit:10;}
	.st1{fill:none;stroke:#793236;stroke-width:7;stroke-miterlimit:10;}
</style>
<path class="st0" d="M254.6,100.3V59.1c0-14.5-10.3-25.1-24.4-25.1c-14.1,0-24.4,10.6-24.4,25.1v41.2"/>
<path class="st0" d="M53.6,100.3V59.1C53.6,44.6,43.3,34,29.2,34C15.1,34,4.8,44.6,4.8,59.1v41.2"/>
<path class="st1" d="M75.1,1.1v71.6c0,15.7,10.7,26.3,26.7,26.3c27.9,0,28-26.3,28-26.3s-0.1,26.3,28,26.3
	c16.3,0,26.6-10.9,26.6-26.4V1"/>
<line class="st1" x1="129.8" y1="79.6" x2="129.8" y2="1"/>
</svg>
