<?xml version="1.0" encoding="utf-8"?>
<!-- Generator: Adobe Illustrator 22.0.0, SVG Export Plug-In . SVG Version: 6.00 Build 0)  -->
<svg version="1.1" id="Layer_1" xmlns="http://www.w3.org/2000/svg" xmlns:xlink="http://www.w3.org/1999/xlink" x="0px" y="0px"
	 viewBox="0 0 1334 750" style="enable-background:new 0 0 1334 750;" xml:space="preserve">
<style type="text/css">
	.st0{fill:#FFFFFF;stroke:#000000;stroke-width:6;stroke-miterlimit:10;}
	.st1{fill:url(#SVGID_1_);stroke:#D4145A;stroke-width:6;stroke-miterlimit:10;}
	.st2{fill:url(#SVGID_2_);stroke:#D4145A;stroke-width:6;stroke-miterlimit:10;}
</style>
<path class="st0" d="M-26.5,547.5h156v-383h60v383h178v-40h-49c0,0-2-20,0-20s44,0,44,0v-21h-102v-28h156v-42h42v83h110v33h-103v49
	h42h206l-11-78l50-103l81-28l59,28l-4,69l-33,73l-22,39h139v-71h263v71h146"/>
<linearGradient id="SVGID_1_" gradientUnits="userSpaceOnUse" x1="466.9632" y1="192.4506" x2="667" y2="192.4506">
	<stop  offset="0" style="stop-color:#7F47DD"/>
	<stop  offset="0.5169" style="stop-color:#FBAE17"/>
	<stop  offset="1" style="stop-color:#FBAE17"/>
</linearGradient>
<path class="st1" d="M484,164c78-59,141-27,141-27l42,66l-67,24l-56-14c0,0-70,82-76,21S484,164,484,164z"/>
<linearGradient id="SVGID_2_" gradientUnits="userSpaceOnUse" x1="853.0362" y1="286.0603" x2="1157.6448" y2="286.0603">
	<stop  offset="0" style="stop-color:#7F47DD"/>
	<stop  offset="0.5169" style="stop-color:#FBAE17"/>
	<stop  offset="1" style="stop-color:#FBAE17"/>
</linearGradient>
<path class="st2" d="M963,269c43-33,104-66,141-33s77,83,37,90s-95,39-100,15s41-41,19-55s14,16-58,22s-167-9-146-22
	S963,269,963,269z"/>
</svg>
