<?xml version="1.0" encoding="utf-8"?>
<!-- Generator: Adobe Illustrator 22.0.0, SVG Export Plug-In . SVG Version: 6.00 Build 0)  -->
<svg version="1.1" id="Layer_1" xmlns="http://www.w3.org/2000/svg" xmlns:xlink="http://www.w3.org/1999/xlink" x="0px" y="0px"
	 viewBox="0 0 6448 682.8" style="enable-background:new 0 0 6448 682.8;" xml:space="preserve">
<style type="text/css">
	.st0{fill:none;stroke:#000000;stroke-miterlimit:10;}
	.st1{fill:none;stroke:#793236;stroke-width:0.5;stroke-miterlimit:10;}
	.st2{fill:none;stroke:#000000;stroke-width:2;stroke-miterlimit:10;}
	.st3{fill:none;stroke:#793236;stroke-miterlimit:10;}
	.st4{fill:#793236;stroke:#000000;stroke-width:0.25;stroke-miterlimit:10;}
	.st5{fill:none;stroke:#000000;stroke-width:0.25;stroke-miterlimit:10;}
	.st6{fill:#793236;}
	.st7{opacity:0.5;}
	.st8{fill:#FFFFFF;}
	.st9{opacity:0.6;}
	.st10{opacity:0.7;}
	.st11{fill:#AFD554;}
	.st12{fill:#921D0F;}
	.st13{fill:#DBE460;}
	.st14{fill:#603106;}
	.st15{fill:#A6BA48;}
	.st16{fill:#5A240B;}
	.st17{fill:#63A73C;}
	.st18{fill:#9EBE49;}
	.st19{fill:#5C2D03;}
	.st20{fill:#619D5B;}
	.st21{fill:#5F3606;}
	.st22{fill:#7C4C33;}
	.st23{fill:#ABAF5A;}
	.st24{fill:#4A2801;}
	.st25{fill:#64AA3D;}
	.st26{opacity:0.64;fill:#793236;}
	.st27{fill:none;stroke:#000000;stroke-width:3;stroke-miterlimit:10;}
	.st28{opacity:0.72;fill:#793236;}
	.st29{opacity:0.76;fill:#793236;}
	.st30{fill:none;stroke:#000000;stroke-width:0.5;stroke-miterlimit:10;}
</style>
<image style="overflow:visible;" width="1358" height="898" xlink:href="C:\Users\mcqueen\Desktop\0486cbg5cxzz1b70.jpg"  transform="matrix(0.2183 0 0 0.2183 989 450.7807)">
</image>
<path class="st0" d="M964.5,577.3c14-1.4,58.1-3.6,152-6c54.7-1.4,169.4,2.3,207-7c3.9-1,15.1-3.7,15-7c-0.1-3-18.9-5.4-24-6
	c-18-2-66-3-82-3c-11.3,0-43.9-1.1-95-5c-13-1-27-3-27-4c0.1-2.1,200-1,203-7c1.2-2.4-93.9-14.3-111-17c-23.2-3.7-21-4-52-10
	c0,0-36-8-74-19c-1.7-0.5-15.2-5-15-6c0.2-1.2,11.5-1.1,16-1c24.3,0.6,40.4,1.8,42,2c32.3,3.2,30.3,4.6,55,6c36,2,61.8,2.2,62,1
	c0.2-1.4-35.9-9.3-78-10c-23.7-0.4-47.7-0.8-71-1c-27.5-0.2-26.1,0.4-41,0c-33.6-0.8-56.6-0.4-57,0c-3,3,20.8,4.9,36,7
	c18.1,2.5,35.7,6.4,44,8c24.5,4.6,107.9,22,119,24c10.9,1.9,80.1,10.6,85,12c7,2-64,1-90,2c-26,1-82,0-102,1c-20.9,1-34,1-34,3
	c0,1.7,17.9,5.5,40,8c18.1,2.1,39.3,2.9,54,4c26.8,1.9,123,12.4,123,13c0,0.7-20,3-40,4c-25,1.2,0.5,0.7-62,1
	c-54.9,0.3-46.2,0.5-67,1c-46.3,1.1-47,2-75,4c-11.3,0.8-28,1-39,1c-5,0-13,0-23,0c-10.8,0-17.8,2.2-19,6
	C938.4,579.9,944.2,579.3,964.5,577.3z"/>
<image style="overflow:visible;" width="912" height="709" xlink:href="44D3555A.jpg"  transform="matrix(0.4217 0 0 0.4217 414.6327 432.7807)">
</image>
<image style="overflow:visible;" width="599" height="415" xlink:href="44D35558.jpg"  transform="matrix(1 0 0 1 2797 353.7807)">
</image>
<image style="overflow:visible;" width="399" height="440" xlink:href="44D35559.jpg"  transform="matrix(1 0 0 1 2166 212.7807)">
</image>
<image style="overflow:visible;" width="440" height="320" xlink:href="44D35556.jpg"  transform="matrix(1.4406 0 0 1.4406 2844 185.7807)">
</image>
<image style="overflow:visible;" width="1600" height="1051" xlink:href="44D35557.jpg"  transform="matrix(0.6327 0 0 0.6327 3696 128.7807)">
</image>
<rect x="531.3" y="560.4" class="st0" width="60.6" height="9.3"/>
<rect x="591.9" y="560.4" class="st0" width="98.5" height="9.3"/>
<rect x="538.9" y="538.5" class="st0" width="83.4" height="9.3"/>
<rect x="429.4" y="553.6" class="st0" width="69.9" height="12.6"/>
<rect x="487.5" y="537.6" class="st0" width="11.8" height="6.7"/>
<rect x="499.3" y="520.4" class="st0" width="9.7" height="61.9"/>
<rect x="528.3" y="509.4" class="st0" width="10.5" height="38.3"/>
<rect x="622.2" y="545.2" class="st0" width="74.1" height="15.2"/>
<rect x="513.6" y="530.1" class="st1" width="5.9" height="3.4"/>
<rect x="513.6" y="526.7" class="st1" width="5.9" height="3.4"/>
<rect x="513.6" y="533.4" class="st1" width="5.9" height="3.4"/>
<rect x="513.6" y="536.8" class="st1" width="5.9" height="3.4"/>
<rect x="513.6" y="540.2" class="st1" width="5.9" height="3.4"/>
<rect x="513.6" y="543.5" class="st1" width="5.9" height="3.4"/>
<rect x="513.6" y="552" class="st1" width="5.9" height="3.4"/>
<rect x="513.6" y="548.6" class="st1" width="5.9" height="3.4"/>
<rect x="513.6" y="555.3" class="st1" width="5.9" height="3.4"/>
<rect x="513.6" y="558.7" class="st1" width="5.9" height="3.4"/>
<rect x="513.6" y="562.1" class="st1" width="5.9" height="3.4"/>
<rect x="513.6" y="565.4" class="st1" width="5.9" height="3.4"/>
<rect x="513.6" y="568.8" class="st1" width="5.9" height="3.4"/>
<rect x="513.6" y="572.2" class="st1" width="5.9" height="3.4"/>
<rect x="513.6" y="575.5" class="st1" width="5.9" height="3.4"/>
<rect x="513.6" y="578.9" class="st1" width="5.9" height="3.4"/>
<rect x="603.3" y="525.4" class="st0" width="9.3" height="13.1"/>
<rect x="494.2" y="582.3" class="st0" width="157.5" height="10.1"/>
<path class="st2" d="M511.5,618.1c-2.2-3.6-4.3-4.7-5.9-5.1c-0.7-0.1-1.5-0.2-2.5-0.8c-1.5-1-1.8-2.3-2.5-3.4
	c-1-1.5-2.7-2.2-5.9-3.4c-6.5-2.4-8.3-1-10.9-3.4c-1.8-1.6-1.1-2.3-3.4-4.2c-2.3-1.9-3.6-1.7-5.9-3.4c-2.4-1.8-2-2.8-4.2-5.1
	c-3.7-3.8-8.7-4.7-10.9-5.1c-2.4-0.4-3.2-0.2-8.4,0c0,0-5.6,0.2-15.2,0c-6.3-0.1-8.3-0.5-14.3-0.8c-9.1-0.5-11.8-0.1-30.3,0
	c-6.2,0-12.3,0-18.5,0c-49.7,0-99.4,0-149.1,0l-80-0.3"/>
<path class="st0" d="M474.4,594.5c2.3,1.7,3.6,1.5,5.9,3.4c2.2,1.9,1.6,2.6,3.4,4.2c2.7,2.3,4.5,1,10.9,3.4c2.2,0.8,3.6,1.4,4.6,2.1
	v-15.1h-5.1v-10.1h5.1v-16h-27v26C472.8,593,473.3,593.7,474.4,594.5z"/>
<path class="st2" d="M550.2,618.9c4.1-1.9,7.2-1.9,9.3-1.7c2.5,0.3,3,1.1,5.1,0.8c3.3-0.3,4.1-2.4,7.6-3.4c1.8-0.5,3.2-0.4,5.9,0
	c7.1,0.9,12.5,2.2,14.3,2.5c6,1.2,7.7-0.3,16.8-0.8c8.5-0.5,16.9,0.5,33.7,2.5c5.9,0.7,9.9,1.3,16,0.8c6-0.5,7.2-1.5,11.8-1.7
	c7.7-0.3,11.1,2.3,18.5,4.2c7.3,1.9,7,0.1,25.3,0.8c16.5,0.7,16.6,2.1,27,1.7c8.9-0.3,10-1.4,21.9-2.5c3.6-0.3,8.1-0.6,24.4-0.8
	c15.2-0.2,30.3,0,45.5,0c6.2,0,13.9,0,22.7,0c5-3.9,10-7.8,15-11.7c181.3,0,362.7,0,544,0"/>
<path class="st3" d="M550.2,617.2c-14.1,0.6-21.7-0.1-26.1-0.8c-1.2-0.2-4-0.8-7.6,0c-3.9,0.8-6.6,2.9-8.4,4.2
	c-2.5,1.9-4.4,3.3-5.9,5.9c-1.9,3.4-1.8,6.7-1.7,10.1c0.2,5,1.2,4.8,1.7,10.1c0.2,2.1,0.5,6.9-0.8,12.6c-1.1,4.7-2.3,5.3-1.7,6.7
	c1.4,3.6,9.5,3.5,19.4,3.4c7.9-0.1,11.9-0.2,16-1.7c6-2.2,7.4-5.1,12.6-5.9c0.7-0.1,2.9-0.4,3.4-1.7c0.3-0.7-0.2-1.4-0.8-3.4
	c0,0,0-0.1-0.8-3.4c-2-8.2,0-28.7,0-28.7C549.6,623,549.8,620.4,550.2,617.2z"/>
<g>
	<g>
		<g>
			<rect x="86.9" y="-187.7" class="st4" width="7.1" height="7.1"/>
			<rect x="96.3" y="-187.7" class="st4" width="7.1" height="7.1"/>
			<rect x="105.7" y="-187.7" class="st4" width="7.1" height="7.1"/>
			<rect x="115.1" y="-187.7" class="st4" width="7.1" height="7.1"/>
			<rect x="124.5" y="-187.7" class="st4" width="7.1" height="7.1"/>
			<rect x="133.9" y="-187.7" class="st4" width="7.1" height="7.1"/>
		</g>
		<g>
			<rect x="86.9" y="-197.1" class="st4" width="7.1" height="7.1"/>
			<rect x="96.3" y="-197.1" class="st4" width="7.1" height="7.1"/>
			<rect x="105.7" y="-197.1" class="st4" width="7.1" height="7.1"/>
			<rect x="115.1" y="-197.1" class="st4" width="7.1" height="7.1"/>
			<rect x="124.5" y="-197.1" class="st4" width="7.1" height="7.1"/>
			<rect x="133.9" y="-197.1" class="st4" width="7.1" height="7.1"/>
		</g>
		<g>
			<rect x="86.9" y="-206.5" class="st5" width="7.1" height="7.1"/>
			<rect x="96.3" y="-206.5" class="st5" width="7.1" height="7.1"/>
			<rect x="105.7" y="-206.5" class="st5" width="7.1" height="7.1"/>
			<rect x="115.1" y="-206.5" class="st5" width="7.1" height="7.1"/>
			<rect x="124.5" y="-206.5" class="st5" width="7.1" height="7.1"/>
			<rect x="133.9" y="-206.5" class="st5" width="7.1" height="7.1"/>
		</g>
		<g>
			<rect x="86.9" y="-215.9" class="st5" width="7.1" height="7.1"/>
			<rect x="96.3" y="-215.9" class="st5" width="7.1" height="7.1"/>
			<rect x="105.7" y="-215.9" class="st5" width="7.1" height="7.1"/>
			<rect x="115.1" y="-215.9" class="st5" width="7.1" height="7.1"/>
			<rect x="124.5" y="-215.9" class="st5" width="7.1" height="7.1"/>
			<rect x="133.9" y="-215.9" class="st5" width="7.1" height="7.1"/>
		</g>
		<g>
			<rect x="86.9" y="-225.3" class="st5" width="7.1" height="7.1"/>
			<rect x="96.3" y="-225.3" class="st5" width="7.1" height="7.1"/>
			<rect x="105.7" y="-225.3" class="st5" width="7.1" height="7.1"/>
			<rect x="115.1" y="-225.3" class="st5" width="7.1" height="7.1"/>
			<rect x="124.5" y="-225.3" class="st5" width="7.1" height="7.1"/>
			<rect x="133.9" y="-225.3" class="st5" width="7.1" height="7.1"/>
		</g>
		<g>
			<rect x="86.9" y="-234.7" class="st5" width="7.1" height="7.1"/>
			<rect x="96.3" y="-234.7" class="st5" width="7.1" height="7.1"/>
			<rect x="105.7" y="-234.7" class="st5" width="7.1" height="7.1"/>
			<rect x="115.1" y="-234.7" class="st5" width="7.1" height="7.1"/>
			<rect x="124.5" y="-234.7" class="st5" width="7.1" height="7.1"/>
			<rect x="133.9" y="-234.7" class="st5" width="7.1" height="7.1"/>
		</g>
		<g>
			<rect x="86.9" y="-244.1" class="st5" width="7.1" height="7.1"/>
			<rect x="96.3" y="-244.1" class="st5" width="7.1" height="7.1"/>
			<rect x="105.7" y="-244.1" class="st5" width="7.1" height="7.1"/>
			<rect x="115.1" y="-244.1" class="st5" width="7.1" height="7.1"/>
			<rect x="124.5" y="-244.1" class="st5" width="7.1" height="7.1"/>
			<rect x="133.9" y="-244.1" class="st5" width="7.1" height="7.1"/>
		</g>
		<g>
			<rect x="86.9" y="-253.5" class="st5" width="7.1" height="7.1"/>
			<rect x="96.3" y="-253.5" class="st5" width="7.1" height="7.1"/>
			<rect x="105.7" y="-253.5" class="st5" width="7.1" height="7.1"/>
			<rect x="115.1" y="-253.5" class="st5" width="7.1" height="7.1"/>
			<rect x="124.5" y="-253.5" class="st5" width="7.1" height="7.1"/>
			<rect x="133.9" y="-253.5" class="st5" width="7.1" height="7.1"/>
		</g>
		<g>
			<rect x="86.9" y="-262.9" class="st5" width="7.1" height="7.1"/>
			<rect x="96.3" y="-262.9" class="st5" width="7.1" height="7.1"/>
			<rect x="105.7" y="-262.9" class="st5" width="7.1" height="7.1"/>
			<rect x="115.1" y="-262.9" class="st5" width="7.1" height="7.1"/>
			<rect x="124.5" y="-262.9" class="st5" width="7.1" height="7.1"/>
			<rect x="133.9" y="-262.9" class="st5" width="7.1" height="7.1"/>
		</g>
		<g>
			<rect x="86.9" y="-272.3" class="st5" width="7.1" height="7.1"/>
			<rect x="96.3" y="-272.3" class="st5" width="7.1" height="7.1"/>
			<rect x="105.7" y="-272.3" class="st5" width="7.1" height="7.1"/>
			<rect x="115.1" y="-272.3" class="st5" width="7.1" height="7.1"/>
			<rect x="124.5" y="-272.3" class="st5" width="7.1" height="7.1"/>
			<rect x="133.9" y="-272.3" class="st5" width="7.1" height="7.1"/>
		</g>
		<g>
			<rect x="86.9" y="-281.7" class="st5" width="7.1" height="7.1"/>
			<rect x="96.3" y="-281.7" class="st5" width="7.1" height="7.1"/>
			<rect x="105.7" y="-281.7" class="st5" width="7.1" height="7.1"/>
			<rect x="115.1" y="-281.7" class="st5" width="7.1" height="7.1"/>
			<rect x="124.5" y="-281.7" class="st5" width="7.1" height="7.1"/>
			<rect x="133.9" y="-281.7" class="st5" width="7.1" height="7.1"/>
		</g>
		<g>
			<rect x="86.9" y="-291.1" class="st5" width="7.1" height="7.1"/>
			<rect x="96.3" y="-291.1" class="st5" width="7.1" height="7.1"/>
			<rect x="105.7" y="-291.1" class="st5" width="7.1" height="7.1"/>
			<rect x="115.1" y="-291.1" class="st5" width="7.1" height="7.1"/>
			<rect x="124.5" y="-291.1" class="st5" width="7.1" height="7.1"/>
			<rect x="133.9" y="-291.1" class="st5" width="7.1" height="7.1"/>
		</g>
		<g>
			<rect x="86.9" y="-300.5" class="st5" width="7.1" height="7.1"/>
			<rect x="96.3" y="-300.5" class="st5" width="7.1" height="7.1"/>
			<rect x="105.7" y="-300.5" class="st5" width="7.1" height="7.1"/>
			<rect x="115.1" y="-300.5" class="st5" width="7.1" height="7.1"/>
			<rect x="124.5" y="-300.5" class="st5" width="7.1" height="7.1"/>
			<rect x="133.9" y="-300.5" class="st5" width="7.1" height="7.1"/>
		</g>
		<g>
			<rect x="86.9" y="-309.9" class="st5" width="7.1" height="7.1"/>
			<rect x="96.3" y="-309.9" class="st5" width="7.1" height="7.1"/>
			<rect x="105.7" y="-309.9" class="st5" width="7.1" height="7.1"/>
			<rect x="115.1" y="-309.9" class="st5" width="7.1" height="7.1"/>
			<rect x="124.5" y="-309.9" class="st5" width="7.1" height="7.1"/>
			<rect x="133.9" y="-309.9" class="st5" width="7.1" height="7.1"/>
		</g>
	</g>
	<g>
		<g>
			<rect x="86.9" y="-56" class="st4" width="7.1" height="7.1"/>
			<rect x="96.3" y="-56" class="st4" width="7.1" height="7.1"/>
			<rect x="105.7" y="-56" class="st4" width="7.1" height="7.1"/>
			<rect x="115.1" y="-56" class="st4" width="7.1" height="7.1"/>
			<rect x="124.5" y="-56" class="st4" width="7.1" height="7.1"/>
			<rect x="133.9" y="-56" class="st4" width="7.1" height="7.1"/>
		</g>
		<g>
			<rect x="86.9" y="-65.4" class="st4" width="7.1" height="7.1"/>
			<rect x="96.3" y="-65.4" class="st4" width="7.1" height="7.1"/>
			<rect x="105.7" y="-65.4" class="st4" width="7.1" height="7.1"/>
			<rect x="115.1" y="-65.4" class="st4" width="7.1" height="7.1"/>
			<rect x="124.5" y="-65.4" class="st4" width="7.1" height="7.1"/>
			<rect x="133.9" y="-65.4" class="st4" width="7.1" height="7.1"/>
		</g>
		<g>
			<rect x="86.9" y="-74.8" class="st5" width="7.1" height="7.1"/>
			<rect x="96.3" y="-74.8" class="st5" width="7.1" height="7.1"/>
			<rect x="105.7" y="-74.8" class="st5" width="7.1" height="7.1"/>
			<rect x="115.1" y="-74.8" class="st5" width="7.1" height="7.1"/>
			<rect x="124.5" y="-74.8" class="st5" width="7.1" height="7.1"/>
			<rect x="133.9" y="-74.8" class="st5" width="7.1" height="7.1"/>
		</g>
		<g>
			<rect x="86.9" y="-84.2" class="st5" width="7.1" height="7.1"/>
			<rect x="96.3" y="-84.2" class="st5" width="7.1" height="7.1"/>
			<rect x="105.7" y="-84.2" class="st5" width="7.1" height="7.1"/>
			<rect x="115.1" y="-84.2" class="st5" width="7.1" height="7.1"/>
			<rect x="124.5" y="-84.2" class="st5" width="7.1" height="7.1"/>
			<rect x="133.9" y="-84.2" class="st5" width="7.1" height="7.1"/>
		</g>
		<g>
			<rect x="86.9" y="-93.6" class="st5" width="7.1" height="7.1"/>
			<rect x="96.3" y="-93.6" class="st5" width="7.1" height="7.1"/>
			<rect x="105.7" y="-93.6" class="st5" width="7.1" height="7.1"/>
			<rect x="115.1" y="-93.6" class="st5" width="7.1" height="7.1"/>
			<rect x="124.5" y="-93.6" class="st5" width="7.1" height="7.1"/>
			<rect x="133.9" y="-93.6" class="st5" width="7.1" height="7.1"/>
		</g>
		<g>
			<rect x="86.9" y="-103" class="st5" width="7.1" height="7.1"/>
			<rect x="96.3" y="-103" class="st5" width="7.1" height="7.1"/>
			<rect x="105.7" y="-103" class="st5" width="7.1" height="7.1"/>
			<rect x="115.1" y="-103" class="st5" width="7.1" height="7.1"/>
			<rect x="124.5" y="-103" class="st5" width="7.1" height="7.1"/>
			<rect x="133.9" y="-103" class="st5" width="7.1" height="7.1"/>
		</g>
		<g>
			<rect x="86.9" y="-112.4" class="st5" width="7.1" height="7.1"/>
			<rect x="96.3" y="-112.4" class="st5" width="7.1" height="7.1"/>
			<rect x="105.7" y="-112.4" class="st5" width="7.1" height="7.1"/>
			<rect x="115.1" y="-112.4" class="st5" width="7.1" height="7.1"/>
			<rect x="124.5" y="-112.4" class="st5" width="7.1" height="7.1"/>
			<rect x="133.9" y="-112.4" class="st5" width="7.1" height="7.1"/>
		</g>
		<g>
			<rect x="86.9" y="-121.8" class="st5" width="7.1" height="7.1"/>
			<rect x="96.3" y="-121.8" class="st5" width="7.1" height="7.1"/>
			<rect x="105.7" y="-121.8" class="st5" width="7.1" height="7.1"/>
			<rect x="115.1" y="-121.8" class="st5" width="7.1" height="7.1"/>
			<rect x="124.5" y="-121.8" class="st5" width="7.1" height="7.1"/>
			<rect x="133.9" y="-121.8" class="st5" width="7.1" height="7.1"/>
		</g>
		<g>
			<rect x="86.9" y="-131.2" class="st5" width="7.1" height="7.1"/>
			<rect x="96.3" y="-131.2" class="st5" width="7.1" height="7.1"/>
			<rect x="105.7" y="-131.2" class="st5" width="7.1" height="7.1"/>
			<rect x="115.1" y="-131.2" class="st5" width="7.1" height="7.1"/>
			<rect x="124.5" y="-131.2" class="st5" width="7.1" height="7.1"/>
			<rect x="133.9" y="-131.2" class="st5" width="7.1" height="7.1"/>
		</g>
		<g>
			<rect x="86.9" y="-140.6" class="st5" width="7.1" height="7.1"/>
			<rect x="96.3" y="-140.6" class="st5" width="7.1" height="7.1"/>
			<rect x="105.7" y="-140.6" class="st5" width="7.1" height="7.1"/>
			<rect x="115.1" y="-140.6" class="st5" width="7.1" height="7.1"/>
			<rect x="124.5" y="-140.6" class="st5" width="7.1" height="7.1"/>
			<rect x="133.9" y="-140.6" class="st5" width="7.1" height="7.1"/>
		</g>
		<g>
			<rect x="86.9" y="-150" class="st5" width="7.1" height="7.1"/>
			<rect x="96.3" y="-150" class="st5" width="7.1" height="7.1"/>
			<rect x="105.7" y="-150" class="st5" width="7.1" height="7.1"/>
			<rect x="115.1" y="-150" class="st5" width="7.1" height="7.1"/>
			<rect x="124.5" y="-150" class="st5" width="7.1" height="7.1"/>
			<rect x="133.9" y="-150" class="st5" width="7.1" height="7.1"/>
		</g>
		<g>
			<rect x="86.9" y="-159.4" class="st5" width="7.1" height="7.1"/>
			<rect x="96.3" y="-159.4" class="st5" width="7.1" height="7.1"/>
			<rect x="105.7" y="-159.4" class="st5" width="7.1" height="7.1"/>
			<rect x="115.1" y="-159.4" class="st5" width="7.1" height="7.1"/>
			<rect x="124.5" y="-159.4" class="st5" width="7.1" height="7.1"/>
			<rect x="133.9" y="-159.4" class="st5" width="7.1" height="7.1"/>
		</g>
		<g>
			<rect x="86.9" y="-168.8" class="st5" width="7.1" height="7.1"/>
			<rect x="96.3" y="-168.8" class="st5" width="7.1" height="7.1"/>
			<rect x="105.7" y="-168.8" class="st5" width="7.1" height="7.1"/>
			<rect x="115.1" y="-168.8" class="st5" width="7.1" height="7.1"/>
			<rect x="124.5" y="-168.8" class="st5" width="7.1" height="7.1"/>
			<rect x="133.9" y="-168.8" class="st5" width="7.1" height="7.1"/>
		</g>
		<g>
			<rect x="86.9" y="-178.2" class="st5" width="7.1" height="7.1"/>
			<rect x="96.3" y="-178.2" class="st5" width="7.1" height="7.1"/>
			<rect x="105.7" y="-178.2" class="st5" width="7.1" height="7.1"/>
			<rect x="115.1" y="-178.2" class="st5" width="7.1" height="7.1"/>
			<rect x="124.5" y="-178.2" class="st5" width="7.1" height="7.1"/>
			<rect x="133.9" y="-178.2" class="st5" width="7.1" height="7.1"/>
		</g>
	</g>
	<g>
		<g>
			<rect x="86.9" y="75.6" class="st4" width="7.1" height="7.1"/>
			<rect x="96.3" y="75.6" class="st4" width="7.1" height="7.1"/>
			<rect x="105.7" y="75.6" class="st4" width="7.1" height="7.1"/>
			<rect x="115.1" y="75.6" class="st4" width="7.1" height="7.1"/>
			<rect x="124.5" y="75.6" class="st4" width="7.1" height="7.1"/>
			<rect x="133.9" y="75.6" class="st4" width="7.1" height="7.1"/>
		</g>
		<g>
			<rect x="86.9" y="66.2" class="st4" width="7.1" height="7.1"/>
			<rect x="96.3" y="66.2" class="st4" width="7.1" height="7.1"/>
			<rect x="105.7" y="66.2" class="st4" width="7.1" height="7.1"/>
			<rect x="115.1" y="66.2" class="st4" width="7.1" height="7.1"/>
			<rect x="124.5" y="66.2" class="st4" width="7.1" height="7.1"/>
			<rect x="133.9" y="66.2" class="st4" width="7.1" height="7.1"/>
		</g>
		<g>
			<rect x="86.9" y="56.8" class="st5" width="7.1" height="7.1"/>
			<rect x="96.3" y="56.8" class="st5" width="7.1" height="7.1"/>
			<rect x="105.7" y="56.8" class="st5" width="7.1" height="7.1"/>
			<rect x="115.1" y="56.8" class="st5" width="7.1" height="7.1"/>
			<rect x="124.5" y="56.8" class="st5" width="7.1" height="7.1"/>
			<rect x="133.9" y="56.8" class="st5" width="7.1" height="7.1"/>
		</g>
		<g>
			<rect x="86.9" y="47.4" class="st5" width="7.1" height="7.1"/>
			<rect x="96.3" y="47.4" class="st5" width="7.1" height="7.1"/>
			<rect x="105.7" y="47.4" class="st5" width="7.1" height="7.1"/>
			<rect x="115.1" y="47.4" class="st5" width="7.1" height="7.1"/>
			<rect x="124.5" y="47.4" class="st5" width="7.1" height="7.1"/>
			<rect x="133.9" y="47.4" class="st5" width="7.1" height="7.1"/>
		</g>
		<g>
			<rect x="86.9" y="38" class="st5" width="7.1" height="7.1"/>
			<rect x="96.3" y="38" class="st5" width="7.1" height="7.1"/>
			<rect x="105.7" y="38" class="st5" width="7.1" height="7.1"/>
			<rect x="115.1" y="38" class="st5" width="7.1" height="7.1"/>
			<rect x="124.5" y="38" class="st5" width="7.1" height="7.1"/>
			<rect x="133.9" y="38" class="st5" width="7.1" height="7.1"/>
		</g>
		<g>
			<rect x="86.9" y="28.6" class="st5" width="7.1" height="7.1"/>
			<rect x="96.3" y="28.6" class="st5" width="7.1" height="7.1"/>
			<rect x="105.7" y="28.6" class="st5" width="7.1" height="7.1"/>
			<rect x="115.1" y="28.6" class="st5" width="7.1" height="7.1"/>
			<rect x="124.5" y="28.6" class="st5" width="7.1" height="7.1"/>
			<rect x="133.9" y="28.6" class="st5" width="7.1" height="7.1"/>
		</g>
		<g>
			<rect x="86.9" y="19.2" class="st5" width="7.1" height="7.1"/>
			<rect x="96.3" y="19.2" class="st5" width="7.1" height="7.1"/>
			<rect x="105.7" y="19.2" class="st5" width="7.1" height="7.1"/>
			<rect x="115.1" y="19.2" class="st5" width="7.1" height="7.1"/>
			<rect x="124.5" y="19.2" class="st5" width="7.1" height="7.1"/>
			<rect x="133.9" y="19.2" class="st5" width="7.1" height="7.1"/>
		</g>
		<g>
			<rect x="86.9" y="9.8" class="st5" width="7.1" height="7.1"/>
			<rect x="96.3" y="9.8" class="st5" width="7.1" height="7.1"/>
			<rect x="105.7" y="9.8" class="st5" width="7.1" height="7.1"/>
			<rect x="115.1" y="9.8" class="st5" width="7.1" height="7.1"/>
			<rect x="124.5" y="9.8" class="st5" width="7.1" height="7.1"/>
			<rect x="133.9" y="9.8" class="st5" width="7.1" height="7.1"/>
		</g>
		<g>
			<rect x="86.9" y="0.4" class="st5" width="7.1" height="7.1"/>
			<rect x="96.3" y="0.4" class="st5" width="7.1" height="7.1"/>
			<rect x="105.7" y="0.4" class="st5" width="7.1" height="7.1"/>
			<rect x="115.1" y="0.4" class="st5" width="7.1" height="7.1"/>
			<rect x="124.5" y="0.4" class="st5" width="7.1" height="7.1"/>
			<rect x="133.9" y="0.4" class="st5" width="7.1" height="7.1"/>
		</g>
		<g>
			<rect x="86.9" y="-9" class="st5" width="7.1" height="7.1"/>
			<rect x="96.3" y="-9" class="st5" width="7.1" height="7.1"/>
			<rect x="105.7" y="-9" class="st5" width="7.1" height="7.1"/>
			<rect x="115.1" y="-9" class="st5" width="7.1" height="7.1"/>
			<rect x="124.5" y="-9" class="st5" width="7.1" height="7.1"/>
			<rect x="133.9" y="-9" class="st5" width="7.1" height="7.1"/>
		</g>
		<g>
			<rect x="86.9" y="-18.4" class="st5" width="7.1" height="7.1"/>
			<rect x="96.3" y="-18.4" class="st5" width="7.1" height="7.1"/>
			<rect x="105.7" y="-18.4" class="st5" width="7.1" height="7.1"/>
			<rect x="115.1" y="-18.4" class="st5" width="7.1" height="7.1"/>
			<rect x="124.5" y="-18.4" class="st5" width="7.1" height="7.1"/>
			<rect x="133.9" y="-18.4" class="st5" width="7.1" height="7.1"/>
		</g>
		<g>
			<rect x="86.9" y="-27.8" class="st5" width="7.1" height="7.1"/>
			<rect x="96.3" y="-27.8" class="st5" width="7.1" height="7.1"/>
			<rect x="105.7" y="-27.8" class="st5" width="7.1" height="7.1"/>
			<rect x="115.1" y="-27.8" class="st5" width="7.1" height="7.1"/>
			<rect x="124.5" y="-27.8" class="st5" width="7.1" height="7.1"/>
			<rect x="133.9" y="-27.8" class="st5" width="7.1" height="7.1"/>
		</g>
		<g>
			<rect x="86.9" y="-37.2" class="st5" width="7.1" height="7.1"/>
			<rect x="96.3" y="-37.2" class="st5" width="7.1" height="7.1"/>
			<rect x="105.7" y="-37.2" class="st5" width="7.1" height="7.1"/>
			<rect x="115.1" y="-37.2" class="st5" width="7.1" height="7.1"/>
			<rect x="124.5" y="-37.2" class="st5" width="7.1" height="7.1"/>
			<rect x="133.9" y="-37.2" class="st5" width="7.1" height="7.1"/>
		</g>
		<g>
			<rect x="86.9" y="-46.6" class="st5" width="7.1" height="7.1"/>
			<rect x="96.3" y="-46.6" class="st5" width="7.1" height="7.1"/>
			<rect x="105.7" y="-46.6" class="st5" width="7.1" height="7.1"/>
			<rect x="115.1" y="-46.6" class="st5" width="7.1" height="7.1"/>
			<rect x="124.5" y="-46.6" class="st5" width="7.1" height="7.1"/>
			<rect x="133.9" y="-46.6" class="st5" width="7.1" height="7.1"/>
		</g>
	</g>
	<g>
		<g>
			<rect x="86.9" y="207.2" class="st4" width="7.1" height="7.1"/>
			<rect x="96.3" y="207.2" class="st4" width="7.1" height="7.1"/>
			<rect x="105.7" y="207.2" class="st4" width="7.1" height="7.1"/>
			<rect x="115.1" y="207.2" class="st4" width="7.1" height="7.1"/>
			<rect x="124.5" y="207.2" class="st4" width="7.1" height="7.1"/>
			<rect x="133.9" y="207.2" class="st4" width="7.1" height="7.1"/>
		</g>
		<g>
			<rect x="86.9" y="197.8" class="st4" width="7.1" height="7.1"/>
			<rect x="96.3" y="197.8" class="st4" width="7.1" height="7.1"/>
			<rect x="105.7" y="197.8" class="st4" width="7.1" height="7.1"/>
			<rect x="115.1" y="197.8" class="st4" width="7.1" height="7.1"/>
			<rect x="124.5" y="197.8" class="st4" width="7.1" height="7.1"/>
			<rect x="133.9" y="197.8" class="st4" width="7.1" height="7.1"/>
		</g>
		<g>
			<rect x="86.9" y="188.4" class="st5" width="7.1" height="7.1"/>
			<rect x="96.3" y="188.4" class="st5" width="7.1" height="7.1"/>
			<rect x="105.7" y="188.4" class="st5" width="7.1" height="7.1"/>
			<rect x="115.1" y="188.4" class="st5" width="7.1" height="7.1"/>
			<rect x="124.5" y="188.4" class="st5" width="7.1" height="7.1"/>
			<rect x="133.9" y="188.4" class="st5" width="7.1" height="7.1"/>
		</g>
		<g>
			<rect x="86.9" y="179" class="st5" width="7.1" height="7.1"/>
			<rect x="96.3" y="179" class="st5" width="7.1" height="7.1"/>
			<rect x="105.7" y="179" class="st5" width="7.1" height="7.1"/>
			<rect x="115.1" y="179" class="st5" width="7.1" height="7.1"/>
			<rect x="124.5" y="179" class="st5" width="7.1" height="7.1"/>
			<rect x="133.9" y="179" class="st5" width="7.1" height="7.1"/>
		</g>
		<g>
			<rect x="86.9" y="169.6" class="st5" width="7.1" height="7.1"/>
			<rect x="96.3" y="169.6" class="st5" width="7.1" height="7.1"/>
			<rect x="105.7" y="169.6" class="st5" width="7.1" height="7.1"/>
			<rect x="115.1" y="169.6" class="st5" width="7.1" height="7.1"/>
			<rect x="124.5" y="169.6" class="st5" width="7.1" height="7.1"/>
			<rect x="133.9" y="169.6" class="st5" width="7.1" height="7.1"/>
		</g>
		<g>
			<rect x="86.9" y="160.2" class="st5" width="7.1" height="7.1"/>
			<rect x="96.3" y="160.2" class="st5" width="7.1" height="7.1"/>
			<rect x="105.7" y="160.2" class="st5" width="7.1" height="7.1"/>
			<rect x="115.1" y="160.2" class="st5" width="7.1" height="7.1"/>
			<rect x="124.5" y="160.2" class="st5" width="7.1" height="7.1"/>
			<rect x="133.9" y="160.2" class="st5" width="7.1" height="7.1"/>
		</g>
		<g>
			<rect x="86.9" y="150.8" class="st5" width="7.1" height="7.1"/>
			<rect x="96.3" y="150.8" class="st5" width="7.1" height="7.1"/>
			<rect x="105.7" y="150.8" class="st5" width="7.1" height="7.1"/>
			<rect x="115.1" y="150.8" class="st5" width="7.1" height="7.1"/>
			<rect x="124.5" y="150.8" class="st5" width="7.1" height="7.1"/>
			<rect x="133.9" y="150.8" class="st5" width="7.1" height="7.1"/>
		</g>
		<g>
			<rect x="86.9" y="141.4" class="st5" width="7.1" height="7.1"/>
			<rect x="96.3" y="141.4" class="st5" width="7.1" height="7.1"/>
			<rect x="105.7" y="141.4" class="st5" width="7.1" height="7.1"/>
			<rect x="115.1" y="141.4" class="st5" width="7.1" height="7.1"/>
			<rect x="124.5" y="141.4" class="st5" width="7.1" height="7.1"/>
			<rect x="133.9" y="141.4" class="st5" width="7.1" height="7.1"/>
		</g>
		<g>
			<rect x="86.9" y="132" class="st5" width="7.1" height="7.1"/>
			<rect x="96.3" y="132" class="st5" width="7.1" height="7.1"/>
			<rect x="105.7" y="132" class="st5" width="7.1" height="7.1"/>
			<rect x="115.1" y="132" class="st5" width="7.1" height="7.1"/>
			<rect x="124.5" y="132" class="st5" width="7.1" height="7.1"/>
			<rect x="133.9" y="132" class="st5" width="7.1" height="7.1"/>
		</g>
		<g>
			<rect x="86.9" y="122.6" class="st5" width="7.1" height="7.1"/>
			<rect x="96.3" y="122.6" class="st5" width="7.1" height="7.1"/>
			<rect x="105.7" y="122.6" class="st5" width="7.1" height="7.1"/>
			<rect x="115.1" y="122.6" class="st5" width="7.1" height="7.1"/>
			<rect x="124.5" y="122.6" class="st5" width="7.1" height="7.1"/>
			<rect x="133.9" y="122.6" class="st5" width="7.1" height="7.1"/>
		</g>
		<g>
			<rect x="86.9" y="113.2" class="st5" width="7.1" height="7.1"/>
			<rect x="96.3" y="113.2" class="st5" width="7.1" height="7.1"/>
			<rect x="105.7" y="113.2" class="st5" width="7.1" height="7.1"/>
			<rect x="115.1" y="113.2" class="st5" width="7.1" height="7.1"/>
			<rect x="124.5" y="113.2" class="st5" width="7.1" height="7.1"/>
			<rect x="133.9" y="113.2" class="st5" width="7.1" height="7.1"/>
		</g>
		<g>
			<rect x="86.9" y="103.8" class="st5" width="7.1" height="7.1"/>
			<rect x="96.3" y="103.8" class="st5" width="7.1" height="7.1"/>
			<rect x="105.7" y="103.8" class="st5" width="7.1" height="7.1"/>
			<rect x="115.1" y="103.8" class="st5" width="7.1" height="7.1"/>
			<rect x="124.5" y="103.8" class="st5" width="7.1" height="7.1"/>
			<rect x="133.9" y="103.8" class="st5" width="7.1" height="7.1"/>
		</g>
		<g>
			<rect x="86.9" y="94.4" class="st5" width="7.1" height="7.1"/>
			<rect x="96.3" y="94.4" class="st5" width="7.1" height="7.1"/>
			<rect x="105.7" y="94.4" class="st5" width="7.1" height="7.1"/>
			<rect x="115.1" y="94.4" class="st5" width="7.1" height="7.1"/>
			<rect x="124.5" y="94.4" class="st5" width="7.1" height="7.1"/>
			<rect x="133.9" y="94.4" class="st5" width="7.1" height="7.1"/>
		</g>
		<g>
			<rect x="86.9" y="85" class="st5" width="7.1" height="7.1"/>
			<rect x="96.3" y="85" class="st5" width="7.1" height="7.1"/>
			<rect x="105.7" y="85" class="st5" width="7.1" height="7.1"/>
			<rect x="115.1" y="85" class="st5" width="7.1" height="7.1"/>
			<rect x="124.5" y="85" class="st5" width="7.1" height="7.1"/>
			<rect x="133.9" y="85" class="st5" width="7.1" height="7.1"/>
		</g>
	</g>
	<g>
		<g>
			<rect x="86.9" y="338.8" class="st4" width="7.1" height="7.1"/>
			<rect x="96.3" y="338.8" class="st4" width="7.1" height="7.1"/>
			<rect x="105.7" y="338.8" class="st4" width="7.1" height="7.1"/>
			<rect x="115.1" y="338.8" class="st4" width="7.1" height="7.1"/>
			<rect x="124.5" y="338.8" class="st4" width="7.1" height="7.1"/>
			<rect x="133.9" y="338.8" class="st4" width="7.1" height="7.1"/>
		</g>
		<g>
			<rect x="86.9" y="329.4" class="st4" width="7.1" height="7.1"/>
			<rect x="96.3" y="329.4" class="st4" width="7.1" height="7.1"/>
			<rect x="105.7" y="329.4" class="st4" width="7.1" height="7.1"/>
			<rect x="115.1" y="329.4" class="st4" width="7.1" height="7.1"/>
			<rect x="124.5" y="329.4" class="st4" width="7.1" height="7.1"/>
			<rect x="133.9" y="329.4" class="st4" width="7.1" height="7.1"/>
		</g>
		<g>
			<rect x="86.9" y="320" class="st5" width="7.1" height="7.1"/>
			<rect x="96.3" y="320" class="st5" width="7.1" height="7.1"/>
			<rect x="105.7" y="320" class="st5" width="7.1" height="7.1"/>
			<rect x="115.1" y="320" class="st5" width="7.1" height="7.1"/>
			<rect x="124.5" y="320" class="st5" width="7.1" height="7.1"/>
			<rect x="133.9" y="320" class="st5" width="7.1" height="7.1"/>
		</g>
		<g>
			<rect x="86.9" y="310.6" class="st5" width="7.1" height="7.1"/>
			<rect x="96.3" y="310.6" class="st5" width="7.1" height="7.1"/>
			<rect x="105.7" y="310.6" class="st5" width="7.1" height="7.1"/>
			<rect x="115.1" y="310.6" class="st5" width="7.1" height="7.1"/>
			<rect x="124.5" y="310.6" class="st5" width="7.1" height="7.1"/>
			<rect x="133.9" y="310.6" class="st5" width="7.1" height="7.1"/>
		</g>
		<g>
			<rect x="86.9" y="301.2" class="st5" width="7.1" height="7.1"/>
			<rect x="96.3" y="301.2" class="st5" width="7.1" height="7.1"/>
			<rect x="105.7" y="301.2" class="st5" width="7.1" height="7.1"/>
			<rect x="115.1" y="301.2" class="st5" width="7.1" height="7.1"/>
			<rect x="124.5" y="301.2" class="st5" width="7.1" height="7.1"/>
			<rect x="133.9" y="301.2" class="st5" width="7.1" height="7.1"/>
		</g>
		<g>
			<rect x="86.9" y="291.8" class="st5" width="7.1" height="7.1"/>
			<rect x="96.3" y="291.8" class="st5" width="7.1" height="7.1"/>
			<rect x="105.7" y="291.8" class="st5" width="7.1" height="7.1"/>
			<rect x="115.1" y="291.8" class="st5" width="7.1" height="7.1"/>
			<rect x="124.5" y="291.8" class="st5" width="7.1" height="7.1"/>
			<rect x="133.9" y="291.8" class="st5" width="7.1" height="7.1"/>
		</g>
		<g>
			<rect x="86.9" y="282.4" class="st5" width="7.1" height="7.1"/>
			<rect x="96.3" y="282.4" class="st5" width="7.1" height="7.1"/>
			<rect x="105.7" y="282.4" class="st5" width="7.1" height="7.1"/>
			<rect x="115.1" y="282.4" class="st5" width="7.1" height="7.1"/>
			<rect x="124.5" y="282.4" class="st5" width="7.1" height="7.1"/>
			<rect x="133.9" y="282.4" class="st5" width="7.1" height="7.1"/>
		</g>
		<g>
			<rect x="86.9" y="273" class="st5" width="7.1" height="7.1"/>
			<rect x="96.3" y="273" class="st5" width="7.1" height="7.1"/>
			<rect x="105.7" y="273" class="st5" width="7.1" height="7.1"/>
			<rect x="115.1" y="273" class="st5" width="7.1" height="7.1"/>
			<rect x="124.5" y="273" class="st5" width="7.1" height="7.1"/>
			<rect x="133.9" y="273" class="st5" width="7.1" height="7.1"/>
		</g>
		<g>
			<rect x="86.9" y="263.6" class="st5" width="7.1" height="7.1"/>
			<rect x="96.3" y="263.6" class="st5" width="7.1" height="7.1"/>
			<rect x="105.7" y="263.6" class="st5" width="7.1" height="7.1"/>
			<rect x="115.1" y="263.6" class="st5" width="7.1" height="7.1"/>
			<rect x="124.5" y="263.6" class="st5" width="7.1" height="7.1"/>
			<rect x="133.9" y="263.6" class="st5" width="7.1" height="7.1"/>
		</g>
		<g>
			<rect x="86.9" y="254.2" class="st5" width="7.1" height="7.1"/>
			<rect x="96.3" y="254.2" class="st5" width="7.1" height="7.1"/>
			<rect x="105.7" y="254.2" class="st5" width="7.1" height="7.1"/>
			<rect x="115.1" y="254.2" class="st5" width="7.1" height="7.1"/>
			<rect x="124.5" y="254.2" class="st5" width="7.1" height="7.1"/>
			<rect x="133.9" y="254.2" class="st5" width="7.1" height="7.1"/>
		</g>
		<g>
			<rect x="86.9" y="244.8" class="st5" width="7.1" height="7.1"/>
			<rect x="96.3" y="244.8" class="st5" width="7.1" height="7.1"/>
			<rect x="105.7" y="244.8" class="st5" width="7.1" height="7.1"/>
			<rect x="115.1" y="244.8" class="st5" width="7.1" height="7.1"/>
			<rect x="124.5" y="244.8" class="st5" width="7.1" height="7.1"/>
			<rect x="133.9" y="244.8" class="st5" width="7.1" height="7.1"/>
		</g>
		<g>
			<rect x="86.9" y="235.4" class="st5" width="7.1" height="7.1"/>
			<rect x="96.3" y="235.4" class="st5" width="7.1" height="7.1"/>
			<rect x="105.7" y="235.4" class="st5" width="7.1" height="7.1"/>
			<rect x="115.1" y="235.4" class="st5" width="7.1" height="7.1"/>
			<rect x="124.5" y="235.4" class="st5" width="7.1" height="7.1"/>
			<rect x="133.9" y="235.4" class="st5" width="7.1" height="7.1"/>
		</g>
		<g>
			<rect x="86.9" y="226" class="st5" width="7.1" height="7.1"/>
			<rect x="96.3" y="226" class="st5" width="7.1" height="7.1"/>
			<rect x="105.7" y="226" class="st5" width="7.1" height="7.1"/>
			<rect x="115.1" y="226" class="st5" width="7.1" height="7.1"/>
			<rect x="124.5" y="226" class="st5" width="7.1" height="7.1"/>
			<rect x="133.9" y="226" class="st5" width="7.1" height="7.1"/>
		</g>
		<g>
			<rect x="86.9" y="216.6" class="st5" width="7.1" height="7.1"/>
			<rect x="96.3" y="216.6" class="st5" width="7.1" height="7.1"/>
			<rect x="105.7" y="216.6" class="st5" width="7.1" height="7.1"/>
			<rect x="115.1" y="216.6" class="st5" width="7.1" height="7.1"/>
			<rect x="124.5" y="216.6" class="st5" width="7.1" height="7.1"/>
			<rect x="133.9" y="216.6" class="st5" width="7.1" height="7.1"/>
		</g>
	</g>
	<g>
		<g>
			<rect x="86.9" y="470.4" class="st4" width="7.1" height="7.1"/>
			<rect x="96.3" y="470.4" class="st4" width="7.1" height="7.1"/>
			<rect x="105.7" y="470.4" class="st4" width="7.1" height="7.1"/>
			<rect x="115.1" y="470.4" class="st4" width="7.1" height="7.1"/>
			<rect x="124.5" y="470.4" class="st4" width="7.1" height="7.1"/>
			<rect x="133.9" y="470.4" class="st4" width="7.1" height="7.1"/>
		</g>
		<g>
			<rect x="86.9" y="461" class="st4" width="7.1" height="7.1"/>
			<rect x="96.3" y="461" class="st4" width="7.1" height="7.1"/>
			<rect x="105.7" y="461" class="st4" width="7.1" height="7.1"/>
			<rect x="115.1" y="461" class="st4" width="7.1" height="7.1"/>
			<rect x="124.5" y="461" class="st4" width="7.1" height="7.1"/>
			<rect x="133.9" y="461" class="st4" width="7.1" height="7.1"/>
		</g>
		<g>
			<rect x="86.9" y="451.6" class="st5" width="7.1" height="7.1"/>
			<rect x="96.3" y="451.6" class="st5" width="7.1" height="7.1"/>
			<rect x="105.7" y="451.6" class="st5" width="7.1" height="7.1"/>
			<rect x="115.1" y="451.6" class="st5" width="7.1" height="7.1"/>
			<rect x="124.5" y="451.6" class="st5" width="7.1" height="7.1"/>
			<rect x="133.9" y="451.6" class="st5" width="7.1" height="7.1"/>
		</g>
		<g>
			<rect x="86.9" y="442.2" class="st5" width="7.1" height="7.1"/>
			<rect x="96.3" y="442.2" class="st5" width="7.1" height="7.1"/>
			<rect x="105.7" y="442.2" class="st5" width="7.1" height="7.1"/>
			<rect x="115.1" y="442.2" class="st5" width="7.1" height="7.1"/>
			<rect x="124.5" y="442.2" class="st5" width="7.1" height="7.1"/>
			<rect x="133.9" y="442.2" class="st5" width="7.1" height="7.1"/>
		</g>
		<g>
			<rect x="86.9" y="432.8" class="st5" width="7.1" height="7.1"/>
			<rect x="96.3" y="432.8" class="st5" width="7.1" height="7.1"/>
			<rect x="105.7" y="432.8" class="st5" width="7.1" height="7.1"/>
			<rect x="115.1" y="432.8" class="st5" width="7.1" height="7.1"/>
			<rect x="124.5" y="432.8" class="st5" width="7.1" height="7.1"/>
			<rect x="133.9" y="432.8" class="st5" width="7.1" height="7.1"/>
		</g>
		<g>
			<rect x="86.9" y="423.4" class="st5" width="7.1" height="7.1"/>
			<rect x="96.3" y="423.4" class="st5" width="7.1" height="7.1"/>
			<rect x="105.7" y="423.4" class="st5" width="7.1" height="7.1"/>
			<rect x="115.1" y="423.4" class="st5" width="7.1" height="7.1"/>
			<rect x="124.5" y="423.4" class="st5" width="7.1" height="7.1"/>
			<rect x="133.9" y="423.4" class="st5" width="7.1" height="7.1"/>
		</g>
		<g>
			<rect x="86.9" y="414" class="st5" width="7.1" height="7.1"/>
			<rect x="96.3" y="414" class="st5" width="7.1" height="7.1"/>
			<rect x="105.7" y="414" class="st5" width="7.1" height="7.1"/>
			<rect x="115.1" y="414" class="st5" width="7.1" height="7.1"/>
			<rect x="124.5" y="414" class="st5" width="7.1" height="7.1"/>
			<rect x="133.9" y="414" class="st5" width="7.1" height="7.1"/>
		</g>
		<g>
			<rect x="86.9" y="404.6" class="st5" width="7.1" height="7.1"/>
			<rect x="96.3" y="404.6" class="st5" width="7.1" height="7.1"/>
			<rect x="105.7" y="404.6" class="st5" width="7.1" height="7.1"/>
			<rect x="115.1" y="404.6" class="st5" width="7.1" height="7.1"/>
			<rect x="124.5" y="404.6" class="st5" width="7.1" height="7.1"/>
			<rect x="133.9" y="404.6" class="st5" width="7.1" height="7.1"/>
		</g>
		<g>
			<rect x="86.9" y="395.2" class="st5" width="7.1" height="7.1"/>
			<rect x="96.3" y="395.2" class="st5" width="7.1" height="7.1"/>
			<rect x="105.7" y="395.2" class="st5" width="7.1" height="7.1"/>
			<rect x="115.1" y="395.2" class="st5" width="7.1" height="7.1"/>
			<rect x="124.5" y="395.2" class="st5" width="7.1" height="7.1"/>
			<rect x="133.9" y="395.2" class="st5" width="7.1" height="7.1"/>
		</g>
		<g>
			<rect x="86.9" y="385.8" class="st5" width="7.1" height="7.1"/>
			<rect x="96.3" y="385.8" class="st5" width="7.1" height="7.1"/>
			<rect x="105.7" y="385.8" class="st5" width="7.1" height="7.1"/>
			<rect x="115.1" y="385.8" class="st5" width="7.1" height="7.1"/>
			<rect x="124.5" y="385.8" class="st5" width="7.1" height="7.1"/>
			<rect x="133.9" y="385.8" class="st5" width="7.1" height="7.1"/>
		</g>
		<g>
			<rect x="86.9" y="376.4" class="st5" width="7.1" height="7.1"/>
			<rect x="96.3" y="376.4" class="st5" width="7.1" height="7.1"/>
			<rect x="105.7" y="376.4" class="st5" width="7.1" height="7.1"/>
			<rect x="115.1" y="376.4" class="st5" width="7.1" height="7.1"/>
			<rect x="124.5" y="376.4" class="st5" width="7.1" height="7.1"/>
			<rect x="133.9" y="376.4" class="st5" width="7.1" height="7.1"/>
		</g>
		<g>
			<rect x="86.9" y="367" class="st5" width="7.1" height="7.1"/>
			<rect x="96.3" y="367" class="st5" width="7.1" height="7.1"/>
			<rect x="105.7" y="367" class="st5" width="7.1" height="7.1"/>
			<rect x="115.1" y="367" class="st5" width="7.1" height="7.1"/>
			<rect x="124.5" y="367" class="st5" width="7.1" height="7.1"/>
			<rect x="133.9" y="367" class="st5" width="7.1" height="7.1"/>
		</g>
		<g>
			<rect x="86.9" y="357.6" class="st5" width="7.1" height="7.1"/>
			<rect x="96.3" y="357.6" class="st5" width="7.1" height="7.1"/>
			<rect x="105.7" y="357.6" class="st5" width="7.1" height="7.1"/>
			<rect x="115.1" y="357.6" class="st5" width="7.1" height="7.1"/>
			<rect x="124.5" y="357.6" class="st5" width="7.1" height="7.1"/>
			<rect x="133.9" y="357.6" class="st5" width="7.1" height="7.1"/>
		</g>
		<g>
			<rect x="86.9" y="348.2" class="st5" width="7.1" height="7.1"/>
			<rect x="96.3" y="348.2" class="st5" width="7.1" height="7.1"/>
			<rect x="105.7" y="348.2" class="st5" width="7.1" height="7.1"/>
			<rect x="115.1" y="348.2" class="st5" width="7.1" height="7.1"/>
			<rect x="124.5" y="348.2" class="st5" width="7.1" height="7.1"/>
			<rect x="133.9" y="348.2" class="st5" width="7.1" height="7.1"/>
		</g>
	</g>
	<g>
		<rect x="124.5" y="555" class="st5" width="7.1" height="7.1"/>
		<rect x="133.9" y="555" class="st5" width="7.1" height="7.1"/>
		<rect x="124.5" y="545.6" class="st5" width="7.1" height="7.1"/>
		<rect x="133.9" y="545.6" class="st5" width="7.1" height="7.1"/>
		<rect x="124.5" y="536.2" class="st5" width="7.1" height="7.1"/>
		<rect x="133.9" y="536.2" class="st5" width="7.1" height="7.1"/>
		<g>
			<rect x="86.9" y="526.8" class="st5" width="7.1" height="7.1"/>
			<rect x="96.3" y="526.8" class="st5" width="7.1" height="7.1"/>
			<rect x="105.7" y="526.8" class="st5" width="7.1" height="7.1"/>
			<rect x="115.1" y="526.8" class="st5" width="7.1" height="7.1"/>
			<rect x="124.5" y="526.8" class="st5" width="7.1" height="7.1"/>
			<rect x="133.9" y="526.8" class="st5" width="7.1" height="7.1"/>
		</g>
		<g>
			<rect x="86.9" y="517.4" class="st5" width="7.1" height="7.1"/>
			<rect x="96.3" y="517.4" class="st5" width="7.1" height="7.1"/>
			<rect x="105.7" y="517.4" class="st5" width="7.1" height="7.1"/>
			<rect x="115.1" y="517.4" class="st5" width="7.1" height="7.1"/>
			<rect x="124.5" y="517.4" class="st5" width="7.1" height="7.1"/>
			<rect x="133.9" y="517.4" class="st5" width="7.1" height="7.1"/>
		</g>
		<g>
			<rect x="86.9" y="508" class="st5" width="7.1" height="7.1"/>
			<rect x="96.3" y="508" class="st5" width="7.1" height="7.1"/>
			<rect x="105.7" y="508" class="st5" width="7.1" height="7.1"/>
			<rect x="115.1" y="508" class="st5" width="7.1" height="7.1"/>
			<rect x="124.5" y="508" class="st5" width="7.1" height="7.1"/>
			<rect x="133.9" y="508" class="st5" width="7.1" height="7.1"/>
		</g>
		<g>
			<rect x="86.9" y="498.6" class="st5" width="7.1" height="7.1"/>
			<rect x="96.3" y="498.6" class="st5" width="7.1" height="7.1"/>
			<rect x="105.7" y="498.6" class="st5" width="7.1" height="7.1"/>
			<rect x="115.1" y="498.6" class="st5" width="7.1" height="7.1"/>
			<rect x="124.5" y="498.6" class="st5" width="7.1" height="7.1"/>
			<rect x="133.9" y="498.6" class="st5" width="7.1" height="7.1"/>
		</g>
		<g>
			<rect x="86.9" y="489.2" class="st5" width="7.1" height="7.1"/>
			<rect x="96.3" y="489.2" class="st5" width="7.1" height="7.1"/>
			<rect x="105.7" y="489.2" class="st5" width="7.1" height="7.1"/>
			<rect x="115.1" y="489.2" class="st5" width="7.1" height="7.1"/>
			<rect x="124.5" y="489.2" class="st5" width="7.1" height="7.1"/>
			<rect x="133.9" y="489.2" class="st5" width="7.1" height="7.1"/>
		</g>
		<g>
			<rect x="86.9" y="479.8" class="st5" width="7.1" height="7.1"/>
			<rect x="96.3" y="479.8" class="st5" width="7.1" height="7.1"/>
			<rect x="105.7" y="479.8" class="st5" width="7.1" height="7.1"/>
			<rect x="115.1" y="479.8" class="st5" width="7.1" height="7.1"/>
			<rect x="124.5" y="479.8" class="st5" width="7.1" height="7.1"/>
			<rect x="133.9" y="479.8" class="st5" width="7.1" height="7.1"/>
		</g>
		<polygon class="st5" points="115.1,536.2 115.1,539.3 120.5,539.3 120.5,543.2 122.1,543.2 122.1,536.2 		"/>
		<rect x="105.7" y="536.2" class="st5" width="7.1" height="3.1"/>
		<rect x="96.3" y="536.2" class="st5" width="7.1" height="3.1"/>
		<rect x="86.9" y="536.2" class="st5" width="7.1" height="3.1"/>
		<rect x="120.5" y="545.6" class="st5" width="1.6" height="7.1"/>
		<rect x="120.5" y="555" class="st5" width="1.6" height="7.1"/>
		<rect x="120.5" y="564.4" class="st5" width="1.6" height="5.1"/>
		<rect x="124.5" y="564.4" class="st5" width="7.1" height="5.1"/>
		<rect x="133.9" y="564.4" class="st5" width="7.1" height="5.1"/>
	</g>
	<rect x="68.6" y="539.3" class="st0" width="51.9" height="65.2"/>
	<rect x="120.5" y="569.5" class="st0" width="22.9" height="39.8"/>
	<rect x="68.6" y="539.3" class="st0" width="51.9" height="65.2"/>
	<rect x="120.5" y="569.5" class="st0" width="22.9" height="39.8"/>
	<line class="st2" x1="0" y1="582.3" x2="68.6" y2="582.3"/>
	<polygon class="st5" points="120.5,569.5 143.3,569.5 143.3,-312.2 83.7,-312.2 83.7,539.3 120.5,539.3 	"/>
</g>
<g>
	<path class="st6" d="M199.5,572.7c-0.4,1-1.8,1.6-2.9,1.4c-0.7-0.2-0.9-0.9-1.5-1.2c-1-0.4-0.7,0-1.5,0.1c-1.5,0.1-2.3,0.4-3.5-1
		c-0.9-1-0.9-2.2-1.6-3.1c-0.9-1.3-2.4-2.2-2.7-3.9c-0.3-1.5,0.7-1.8,1-2.9c0.5-1.5-0.4-3.3,0.3-4.9c0.4-0.9,1.9-2.8,2.8-1.4
		c0.1-3.1,3-5,5.8-4.4c0.8-2.9,6.5-4,7.9-1.1c2.6-1.7,6.3,1.1,5.3,4c2.5-0.7,4.2,2.2,4,4.3c-0.1,1.5-1.5,2-1.7,3.1
		c-0.2,1,1.2,2.7,0.9,4.1c-0.3,1.4-1.3,2.2-2.7,2.1c0.6,3-1.3,6.1-4.7,5c-0.3,2.4-4.3,1.3-4.9,0L199.5,572.7z"/>
	<path d="M196.9,570.3c1.8,3.4,1.2,7.2,0.7,10.9c-0.1,0.6-0.5,2-0.4,2.6c0.3,0.9,1.6,0.7,2.3,0.6c1.5-0.2,1.2-0.7,0.9-2
		c-0.3-1.2-0.2-2.5-0.3-3.7c-0.1-2.3,0.1-4.5,0.6-6.7c0.2-1.2,0.4-2,1.7-2.3c1.2-0.3,2.3-0.3,3.4-1.1c-0.9-0.1-1.8-0.1-2.7,0.1
		c0.7-0.4,1.3-1.1,2-1.6c0.9,0.6,2.8-0.3,3.5-1c-0.8,0.3-1.8,0.2-2.7,0.4c1.1-1.2,2.2-2.3,2.6-3.8c-1.7,2.4-4.3,5.1-6.8,6.6
		c0.9-1.4,2.1-2.5,3-3.9c0.4-0.6,0.5-1.3,0.9-1.8c0.4-0.5,1.2-0.6,1.2-1.5c-0.4,0.3-0.8,0.6-1.2,0.8c0.7-0.9,1-2.7,0.7-3.8
		c-0.9,2.1-1.3,4.5-2.8,6.4c0.2-1,0.5-2.4,0-3.3c0.7-0.6,0.9-1.9,0.7-2.8c-0.2,0.5-0.6,1.5-0.8,1.9c0.1-1-0.6-2.3-1.2-3
		c0.2,1.3,0.9,3,0.7,4.3c-0.6,0-1.1-0.5-1.4-1.1c-0.1,0.7,0.4,0.9,0.7,1.4c0.4,0.6,0.6,0.7,0.6,1.6c0,1.2-0.3,2.1-1.1,3.1
		c-0.1-0.5-0.2-0.9-0.6-1.3c0,1.3,0.1,1.5-0.7,2.5c-0.5,0.6-0.9,1.4-1.6,1.7c0.2-0.8,0.3-1.8,0.2-2.6c1.2-0.1,2.4-3.2,2.3-4.2
		c-0.2,1.3-1,2.4-1.9,3.4c0.1-1.1-0.2-2.5-0.4-3.6c-0.4,1-0.1,2.3-0.2,3.4c-0.1,1.1-0.4,2.1-0.6,3.2c-2.1,0.2-1.3-3.1-1.3-4.4
		c-0.1-1.5,0.3-4.6-1-5.7c-0.2,0.9-0.2,2.2,0.1,3.1c-0.5-0.5-0.9-1.3-1.7-1.3c0.3,1.2,1.4,1.6,1.5,2.9c0.1,1.1,0.1,2.3,0.1,3.4
		c-0.5-0.9-1.4-1.7-2-2.6c-0.5-0.8-1-1.7-1.4-2.5c-0.2,0.9,0.3,1.8,0.8,2.5c-0.8-0.3-1.5-1-2.4-1.2c0.4,1.3,2,1.7,2.9,2.6
		c0.8,0.7,1.5,1.9,2.1,2.7c-1.5,1.2-3.8-0.9-5.2-0.9c1,0.3,1.8,1.1,2.8,1.4c-0.4,0.6-1,1.2-1.2,1.9c0.3-0.4,0.9-1,1.5-1.3
		c0.5-0.3,1.3,0,1.8-0.2L196.9,570.3z"/>
</g>
<g>
	<g class="st7">
		
			<image style="overflow:visible;opacity:0.75;" width="714" height="378" xlink:href="44D355AC.png"  transform="matrix(1 0 0 1 664 -300.2193)">
		</image>
		<g>
			<path class="st8" d="M1300.4-122.7c0.7,0.1,1.4,0.1,2.1,0.1c11.5,0,20.8-9.3,20.8-20.8c0-11.5-9.3-20.8-20.8-20.8
				c-1.2,0-2.3,0.1-3.4,0.3c1.8-3.8,2.8-8.1,2.8-12.7c0-16.5-13.4-29.8-29.8-29.8c-10.9,0-20.4,5.8-25.6,14.6
				c-3.8-5.1-9.8-8.3-16.6-8.3c-4.1,0-8,1.2-11.2,3.3c0.4-1.9,0.6-3.8,0.6-5.8c0-16.5-13.4-29.8-29.8-29.8c-3.6,0-7.1,0.6-10.3,1.8
				c0-0.3,0-0.6,0-0.9c0-16.5-13.4-29.8-29.8-29.8c-16.5,0-29.8,13.4-29.8,29.8c0,1.2,0.1,2.4,0.2,3.5c-3.3-2.3-7.4-3.6-11.8-3.6
				c-11.5,0-20.8,9.3-20.8,20.8c0,1.2,0.1,2.3,0.3,3.5c-4.7-3.2-10.4-5-16.5-5c-16.1,0-29.2,12.8-29.8,28.7c-3-1-6.1-1.5-9.4-1.5
				c-6.8,0-13,2.3-18,6c-2.3-8.9-10.4-15.5-20.1-15.5c-6.1,0-11.5,2.6-15.3,6.7c0-0.4,0.1-0.8,0.1-1.2c0-11.5-9.3-20.8-20.8-20.8
				c-5,0-9.6,1.8-13.2,4.7c-2.9-13.5-14.8-23.5-29.2-23.5c-16.5,0-29.8,13.4-29.8,29.8c0,0.7,0,1.3,0.1,1.9c-2-0.6-4.1-1-6.3-1
				c-4.8,0-9.3,1.7-12.8,4.4c0.1-0.7,0.1-1.4,0.1-2.2c0-11.5-9.3-20.8-20.8-20.8c-4.2,0-8,1.2-11.3,3.3c0.5-2.1,0.7-4.3,0.7-6.5
				c0-16.5-13.4-29.8-29.8-29.8c-11.4,0-21.3,6.4-26.3,15.8c-2-9.5-10.3-16.6-20.4-16.6c-10.8,0-19.7,8.3-20.7,18.8
				c-2.9-1.6-6.3-2.5-9.9-2.5c-11.5,0-20.8,9.3-20.8,20.8c0,2,0.3,4,0.8,5.8c-1.7-0.7-3.6-1.2-5.4-1.5V25.4
				c171.6-4.8,471.7-12.5,474.7-12.5c4,0,148.7-42.7,148.7-42.7v-43.3L1300.4-122.7z"/>
		</g>
	</g>
	<g>
		
			<image style="overflow:visible;opacity:0.75;" width="217" height="172" xlink:href="44D355AD.png"  transform="matrix(1 0 0 1 1292 -463.2193)">
		</image>
		<g>
			<path class="st8" d="M1441.1-394.1c-2.2,0-4.3,0.5-6.2,1.4c0.1-0.8,0.2-1.6,0.2-2.4c0-8.3-6.7-15-15-15c-4,0-7.6,1.6-10.3,4.1
				c-1.8-10.9-11.3-19.1-22.7-19.1c-12,0-21.8,9.2-22.9,20.9c-3.3-1.8-7.1-2.9-11.1-2.9c-12.7,0-23,10.3-23,23s10.3,23,23,23
				c1.3,0,2.5-0.1,3.8-0.3c2,6,7.6,10.3,14.2,10.3c6.3,0,11.7-3.9,13.9-9.5c2.8,9.5,11.6,16.5,22.1,16.5c12.7,0,23-10.3,23-23
				c0-0.6,0-1.3-0.1-1.9c2.7,3,6.7,4.9,11.1,4.9c8.3,0,15-6.7,15-15S1449.4-394.1,1441.1-394.1z"/>
		</g>
	</g>
	<g>
		
			<image style="overflow:visible;opacity:0.75;" width="254" height="189" xlink:href="44D355AF.png"  transform="matrix(1 0 0 1 816 -438.2193)">
		</image>
		<g>
			<path class="st8" d="M1017.4-359.3c0-10.3-8.4-18.7-18.7-18.7c-8.4,0-15.6,5.6-17.9,13.2c-4.1-3.5-9.4-5.6-15.2-5.6
				c-6.4,0-12.1,2.5-16.3,6.7c-2.6-7.2-9.5-12.3-17.6-12.3c-3.6,0-7,1.1-9.9,2.8c0.1-0.9,0.2-1.9,0.2-2.8
				c0-12.9-10.5-23.4-23.4-23.4c-12.9,0-23.4,10.5-23.4,23.4c0,1.8,0.2,3.5,0.6,5.1c-0.7-0.1-1.4-0.1-2.1-0.1
				c-10.3,0-18.7,8.4-18.7,18.7c0,10.3,8.4,18.7,18.7,18.7c0.2,0,0.3,0,0.5,0c-0.6,2.1-1,4.3-1,6.6c0,12.9,10.5,23.4,23.4,23.4
				c9.8,0,18.3-6.1,21.7-14.7c4.1,3.5,9.4,5.7,15.3,5.7c6.5,0,12.5-2.7,16.7-7c0.2,10.2,8.5,18.4,18.7,18.4
				c9.2,0,16.8-6.7,18.4-15.4c3,2,6.5,3.1,10.3,3.1c10.3,0,18.7-8.4,18.7-18.7c0-5.1-2-9.7-5.3-13
				C1015-348.8,1017.4-353.7,1017.4-359.3z"/>
		</g>
	</g>
	<g class="st9">
		
			<image style="overflow:visible;opacity:0.75;" width="193" height="141" xlink:href="F28B5D60.png"  transform="matrix(1 0 0 1 976.4425 -498.7768)">
		</image>
		<g>
			<path class="st8" d="M1108-447.2c-4.5,0-8.7,1.6-12,4.2c-1.6-5.8-7-10.1-13.3-10.1c-1.5,0-2.9,0.2-4.2,0.7
				c-1.6-9.1-9.5-16.1-19.1-16.1c-5.9,0-11.1,2.6-14.6,6.7c-2.5-3.3-6.5-5.5-11-5.5c-7.6,0-13.8,6.2-13.8,13.8
				c0,0.6,0.1,1.2,0.1,1.8c-7.7,2.6-13.2,9.8-13.2,18.3c0,10.7,8.7,19.4,19.4,19.4c0.1,0,0.2,0,0.3,0c2.2,8.2,9.8,14.2,18.7,14.2
				c8,0,14.9-4.9,17.8-11.9c3,2,6.7,3.2,10.6,3.2c3.1,0,6-0.7,8.6-2c2.1,4.9,7,8.4,12.7,8.4c4.9,0,9.2-2.5,11.6-6.4
				c0.5,0,0.9,0.1,1.4,0.1c10.7,0,19.4-8.7,19.4-19.4C1127.3-438.5,1118.7-447.2,1108-447.2z"/>
		</g>
	</g>
	<g>
		
			<image style="overflow:visible;opacity:0.75;" width="128" height="92" xlink:href="F28B5D61.png"  transform="matrix(1 0 0 1 1244.4775 -293.7418)">
		</image>
		<g>
			<path class="st8" d="M1331.1-264.5c-3.4,0-6.5,1.4-8.6,3.7c0.1-0.5,0.1-1,0.1-1.5c0-5-4.1-9.1-9.1-9.1c-4.1,0-7.6,2.8-8.7,6.6
				c-0.9-4.1-4.5-7.1-8.9-7.1c-5,0-9.1,4.1-9.1,9.1c0,0.5,0.1,1,0.1,1.5c-2.1-2-5-3.2-8.1-3.2c-6.6,0-11.9,5.3-11.9,11.9
				c0,6.6,5.3,11.9,11.9,11.9c0.4,0,0.8,0,1.2-0.1c0.3,4.8,4.2,8.6,9,8.6c4.1,0,7.5-2.7,8.7-6.4c0.5,0.1,1,0.1,1.6,0.1
				c2.7,0,5.2-0.9,7.3-2.5c1.4,5,6,8.7,11.5,8.7c5.4,0,10-3.6,11.4-8.6c0.5,0.1,1.1,0.1,1.6,0.1c6.6,0,11.9-5.3,11.9-11.9
				C1343-259.1,1337.7-264.5,1331.1-264.5z"/>
		</g>
	</g>
	<g class="st10">
		
			<image style="overflow:visible;opacity:0.75;" width="113" height="86" xlink:href="F28B5D66.png"  transform="matrix(1 0 0 1 1238.0892 -510.1301)">
		</image>
		<g>
			<path class="st8" d="M1311.4-477.8c-1.4,0-2.7,0.3-3.9,0.8c-1.2-1.8-3.2-3-5.5-3c-2.9,0-5.3,1.8-6.2,4.3
				c-1.2-1.3-2.9-2.1-4.9-2.1c-0.6,0-1.2,0.1-1.7,0.2c0-0.3,0-0.5,0-0.8c0-5.5-4.5-10-10-10s-10,4.5-10,10c0,1,0.1,1.9,0.4,2.8
				c-1.1-0.7-2.3-1.1-3.7-1.1c-3.7,0-6.6,3-6.6,6.6c0,3.7,3,6.6,6.6,6.6c0.8,0,1.5-0.1,2.2-0.4c0.1,5.4,4.5,9.8,10,9.8
				c3.5,0,6.5-1.8,8.3-4.5c1.2,1.1,2.7,1.7,4.4,1.7c2.5,0,4.7-1.4,5.8-3.5c0.9,0.5,1.9,0.7,3,0.7c1.6,0,3.1-0.6,4.3-1.6
				c1.8,2,4.4,3.2,7.3,3.2c5.5,0,10-4.5,10-10C1321.4-473.3,1316.9-477.8,1311.4-477.8z"/>
		</g>
	</g>
</g>
<g>
	<g>
		<path class="st11" d="M377.2-323.3c-9,0.6-18-7.3-23-14.1c-3.1-4.2-4.8-8.7-5.5-13.6c-0.2-1.4-1.5-5.3,0.4-5.9
			c1.1-0.4,3.6,2.8,4.9,3.2c1.6-5.3-2.1-11.1-1.8-16.7c0.2-4.2,2.5-13.2,5.8-15.8c0.5,1.5,0.5,3.3,1.1,4.9c3.1-2.9,2.5-11.2,4-15.3
			c1.8-4.8,5.7-14.7,10-17.7c9.4-6.5,15.6,18.6,19.2,23.6c2.7-1.6,1.6-5.7,1.8-8.5c3.8-0.2,7.3,10.1,8.2,13.4
			c0.9,3.8-0.2,15.3,1.7,17.4c0.5-1,1.7-1.8,1.9-3.2c10.2,6.9,6.4,25.1,0.9,33.6c-6.5,9.9-15.9,15-27.8,14.9H377.2z"/>
		<path class="st12" d="M378.7-320.7c1.9,5.2-0.7,13.1-1.2,18.5c-0.6,5.4-1.6,10.9-1.4,16.3c4.1,0.7,8.7-0.7,12.8-0.8
			c-3.1-8.3-2.7-17.1-3.5-25.7c-0.2-1.9-1.2-4.5-0.7-6.4c0.7-2.3,2.9-2.8,4.5-4.6c2-2.3,5.1-7.4,4.6-10.6c-2,0.5-3.1,3.9-4.8,4.2
			c-3.2,0.6-1-4-0.6-5.8c0.8-3.1,3.9-10.9,0.8-13.3c-2.2,2-2.4,7-3.1,9.9c-0.8-1.1-0.8-2.8-2.2-3.8c-1.2,1.2,3.2,17.3-3.8,14.2
			c-4.4-2-4.4-15.1-10.6-14.1c0,1.8,1.7,2.8,1.4,4.8c-1.1-0.4-2.5-0.8-3.7-1c0.1,2.3,1.8,1.4,3.1,2.5c1.3,1.1,2.1,2.4,2.9,3.9
			c1.4,2.4,3.6,5.9,3.4,8.7c-3.5,0.6-6.5-4.3-10.1-4.4C365.2-322.6,375.5-321.9,378.7-320.7L378.7-320.7z"/>
	</g>
	<g>
		<path class="st13" d="M476.6-323c-1.2,3.2-5.7,5.2-9.2,4.3c-2.2-0.6-3-3-4.9-3.7c-3-1.1-2.2,0-4.8,0.3c-4.7,0.4-7.3,1.1-11.2-3.2
			c-2.8-3.2-2.9-7-5-10c-2.9-4.1-7.6-6.9-8.6-12.5c-0.9-4.8,2.2-5.6,3.3-9.1c1.5-4.9-1.2-10.6,1-15.6c1.2-2.7,6.1-8.8,9.1-4.5
			c0.2-9.8,9.6-15.8,18.4-14c2.6-9.2,20.8-12.7,25.3-3.5c8.2-5.5,20,3.6,16.7,12.8c7.8-2.4,13.4,6.9,12.9,13.9
			c-0.3,4.9-4.8,6.5-5.4,9.9c-0.6,3.2,3.7,8.5,2.7,12.9c-1,4.3-4.2,7-8.7,6.6c1.8,9.6-4.2,19.5-14.9,16c-1,7.8-13.6,4-15.7-0.1
			L476.6-323z"/>
		<path class="st14" d="M468.3-330.5c5.6,10.7,3.9,22.9,2.2,34.6c-0.3,1.8-1.7,6.5-1.1,8.1c1,2.7,5.1,2.2,7.4,1.8
			c4.8-0.7,3.7-2.3,2.7-6.4c-0.9-3.7-0.8-7.8-1-11.7c-0.3-7.2,0.3-14.5,1.8-21.2c0.8-3.7,1.2-6.4,5.3-7.4c3.9-1,7.3-1.1,10.8-3.6
			c-3-0.4-5.7-0.2-8.6,0.4c2.4-1.3,4.2-3.4,6.3-5.2c3,1.9,8.9-0.9,11.1-3.3c-2.7,0.9-5.9,0.7-8.6,1.3c3.5-3.7,6.9-7.3,8.4-12.2
			c-5.4,7.8-13.6,16.3-21.6,21c2.9-4.4,6.5-8.1,9.5-12.3c1.2-1.8,1.7-4,2.9-5.6c1.3-1.7,3.9-1.9,3.9-4.8c-1.1,1.1-2.5,2-4,2.6
			c2.2-2.9,3.2-8.7,2.2-12.1c-2.9,6.7-4.1,14.2-8.8,20.3c0.5-3.2,1.5-7.6,0-10.6c2.3-1.9,2.9-6,2.4-8.8c-0.6,1.6-1.8,4.9-2.4,6.1
			c0.4-3.3-1.9-7.2-3.8-9.6c0.6,4.1,2.8,9.6,2.3,13.7c-2,0-3.6-1.6-4.6-3.4c-0.2,2.2,1.2,2.8,2.2,4.4c1.3,2,1.9,2.3,2,5
			c0.1,3.9-1.1,6.8-3.5,9.8c-0.4-1.5-0.8-2.8-1.8-4c0.1,4.1,0.4,4.8-2.2,7.9c-1.5,1.8-2.9,4.5-5.2,5.4c0.5-2.5,0.8-5.8,0.7-8.4
			c3.9-0.3,7.7-10.1,7.4-13.4c-0.7,4.2-3.2,7.5-6,10.7c0.4-3.5-0.7-8-1.3-11.4c-1.2,3.2-0.4,7.5-0.8,10.8c-0.4,3.5-1.3,6.8-1.8,10.2
			c-6.8,0.7-4-9.9-4.2-14.1c-0.2-4.9,0.8-14.6-3.2-18.2c-0.8,3-0.6,7.1,0.4,10c-1.5-1.6-2.8-4.3-5.3-4.1c0.9,3.7,4.5,5,4.9,9.1
			c0.3,3.5,0.4,7.3,0.4,10.8c-1.5-2.9-4.5-5.5-6.3-8.4c-1.6-2.6-3.1-5.3-4.6-8c-0.5,2.8,1,5.7,2.6,8c-2.5-0.9-4.9-3.1-7.6-3.8
			c1.4,4.2,6.4,5.4,9.4,8.2c2.4,2.3,4.7,6,6.8,8.7c-4.7,3.9-12-2.8-16.5-2.9c3.2,1.1,5.8,3.5,9,4.3c-1.3,1.8-3.2,3.9-3.7,5.9
			c1-1.4,3-3.2,4.6-4.1c1.5-0.8,4.3-0.1,5.9-0.7L468.3-330.5z"/>
	</g>
	<g>
		<path class="st15" d="M291.9-194.1c-1.9,0.7-6.3-1.3-3.8-3.2c-3.1-3.6-1-12.8,4.5-12.6c-1.1-2.6,2.1-4.7,4.3-5.1
			c3.7-0.6,5.5,1.7,6.9,4.7c3.7-2,11.2,0.3,9.9,5.4c4.6-0.3,7.7,6.6,3,8.8c1.3,2.8-1,5.3-3.3,6.5c-2.9,1.5-4.8,1.1-7.6-0.2
			c-0.4,3.9-6.3,3.1-8,0.7c-2,1.5-5.9-0.9-5.3-3L291.9-194.1z"/>
		<path class="st15" d="M286.2-203.9c-2.8,2.8-10.4,3-12-1.4c-4.2,1.6-13.9,1.1-14.2-4.9c-4.3,3.4-12.3,1.6-17-0.7
			c-3.1-1.5-7.7-8.2-3.9-11.4c-3.9-7.3,2.3-25.8,12.4-18.7c2.4-9.7,15.9-10.1,20.8-2.6c4.6-6.7,17.9-6.7,19.2,2.7
			c6.5-4.5,14.2,1,10.9,8.7c5.4,0.1,6.9,9.5,1.8,10.9c5.3,2.9-3,12.6-6.8,9c2.5,4.8-5,7-8.4,7c0.2,0.6,0,1.2,0.2,1.8
			c-0.7-0.1-2,0.4-2.2,0.4L286.2-203.9z"/>
		<path class="st15" d="M276.8-187.1c-1.2,3.6-7.6,10.1-9.9,3.7c-2.3,4.4-8.8,3.8-12.7,2.1c-2.9-1.3-10.8-9.5-3.6-10.3
			c-6.1-5.2,1.5-16.8,8.6-11.9c-0.5-3.7,1.9-6.1,5.5-6.1c4.6-0.1,5.9,3.8,7.3,7.6c5.4-6.9,14.4,8,10.7,13.5L276.8-187.1z"/>
		<path class="st16" d="M284.6-187.9c0-6.1,2.2-12,2-17.8c-0.2-6.1-5.3-8.6-10.1-10.3c2.5-1.1,7.2,0.6,8.8,2.9
			c0.5-3.1,0.7-7.6,2.4-10c3.3,8.1,1.4,19.5,2,28.3c3.2-3.7,4.4-14,11.5-13.5c1.2,4.1-5.3,8.2-6.9,12.1c2.1,0.1,4,0.6,5.6,2
			c-6.1,0.2-8.3,2.9-8.8,8.7c-0.4,4.7,0,9.5,0.3,14.1c0.3,4.8,1.2,8.9,3.2,13.3c1,2.2,1.7,4.7,3.1,6.9c1.1,1.8,3.1,3.4,3.9,5.2
			c-3.3,0.4-5.4-3.8-8.5-4.2c0.2,3,3,5.3,3.2,8.2c-5.7-0.8-8.3-9.4-11.5-13.2c-4.2,5-5.9,7.5-10.6,7.2c1.3-5.1,6.6-8.6,8.1-13.9
			c1.3-4.3,0.2-9.6,0.4-14.1c0.3-5.6-0.3-7.4-5.9-9.7c-4.4-1.8-8.8-3.4-13.5-2.6c0-3.3,6.2-2.4,8.5-2.3c3.7,0.3,6,2,8.9,4.3
			c0.1-4.2-6.7-7.5-8.5-11.2c6.6-1.5,7.9,8.6,12.2,10.2L284.6-187.9z"/>
	</g>
	<g>
		<path class="st17" d="M577.4-356.9C577.3-356.9,577.3-356.8,577.4-356.9C577.3-356.9,577.3-356.9,577.4-356.9
			C577.4-356.9,577.4-356.9,577.4-356.9z"/>
		<path class="st17" d="M605.5-318C605.5-318,605.5-318,605.5-318c0-0.5-0.3-0.8-0.7-0.9c-0.1-0.1-0.3-0.2-0.5-0.2
			c-0.5-0.1-0.9,0-1.3,0.2c-0.6,0.1-1.1,0.3-1.4,0.8c-0.2,0.3-0.3,0.6-0.4,0.9c-0.1,0-0.3-0.1-0.4,0c-2.8,0.4-5.5,0.9-8.3,1.5
			c0.5-1.4,1.1-2.7,1.8-4c0,0,0,0,0-0.1c1.9-1,2-3.9,0.9-5.5c-0.3-0.4-0.9-0.6-1.3-0.2c-0.2,0.2-0.3,0.4-0.4,0.5
			c-1.2,1.3-1.5,3.1-1.1,4.8c0,0.1,0.1,0.2,0.1,0.3c-0.7,1.4-1.3,2.8-1.8,4.3c0,0.1,0,0.2,0,0.2c-3.3,0.7-6.5,1.5-9.8,2.3
			c0.1-0.1,0.1-0.2,0.2-0.4c0.1-0.2,0.2-0.4,0.3-0.6c0.1-0.1,0.1-0.2,0.1-0.3c0.4-0.7,0.8-1.5,1.1-2.2c0.1,0,0.2,0,0.4-0.1
			c2.6-1.1,3-4.3,1.3-6.3c-0.3-0.4-0.9-0.3-1.2,0c-1.1,1-1.6,2.2-1.8,3.7c-0.1,0.9,0.1,1.3-0.3,2.2c-0.4,0.9-0.9,1.8-1.3,2.6
			c-0.4,0.6-0.7,1.2-0.9,1.9c-2.2,0.5-4.3,1.1-6.5,1.7v-7.2c0.6-0.6,1.2-1.1,1.8-1.5c0.2-0.1,0.3-0.2,0.5-0.3c0.1,0,0.2,0.1,0.3,0.1
			c2.8,0.3,5.1-2.9,3.5-5.4c-0.3-0.4-0.7-0.5-1.1-0.3c-1.8,0.8-3.5,2.2-3.7,4.3c-0.4,0.3-0.9,0.6-1.3,1v-5.9
			c1.8-1.2,3.7-2.3,5.5-3.4c1.1,0.8,2.3,1.6,3.4,2.4c0.7,1.7,2.5,2.8,4.3,2.7c0.9-0.1,1-1.2,0.4-1.6c-0.7-1.4-2-2.4-3.5-2.5
			c-0.1,0-0.2,0-0.3,0c-0.9-0.6-1.8-1.3-2.7-1.9c1.3-0.7,2.7-1.4,4-2.1c0.5-0.2,1-0.5,1.5-0.8c0.1,0.1,0.1,0.2,0.3,0.2
			c1.2,0.6,2.4,1.3,3.6,1.9c0.8,2.4,3,4,5.6,3.5c0.4-0.1,0.7-0.6,0.6-1c-0.9-2.3-2.7-3.6-5.2-3.9c-1.1-0.5-2.1-1.1-3.1-1.6
			c1.1-0.6,2.2-1.1,3.2-1.7c0,0,0,0,0.1-0.1c0,0,0,0,0,0c2.3-0.9,5.2-2.1,3.8-5c-0.2-0.4-0.8-0.5-1.1-0.3c-1.1,0.5-2.3,1.1-3,2.2
			c-1.1,1.9-2.5,2.7-4.5,3.7c-1.7,0.9-3.4,1.7-5.1,2.6c0.4-1.7,1.2-3.5,1.4-5.2c2.1-1.7,2.3-4.3,0.9-6.6c-0.3-0.4-0.9-0.6-1.3-0.2
			c-1.2,1.4-2.1,3.1-1.9,5c0,0.6,0.7,1.3,0.6,1.9c-0.3,1.3-0.7,2.6-1,3.9c-0.3-0.2-0.5-0.5-0.8-0.7c0-0.1,0.1-0.2,0.1-0.3
			c0-2.2-1.9-3.9-4-3.9c-0.4,0-0.9,0.4-0.8,0.8c0.3,3.3,3.8,3.7,5.2,6.3c0,0,0,0,0,0c-2.1,1.1-4.1,2.3-6.1,3.6V-340
			c0-0.1,0-0.1,0-0.2v0c0.6-0.5,1.2-1,1.8-1.5c0,0,0,0,0-0.1c1.1,0.4,2.2,0.4,3.1-0.4c0.9-0.8,1.4-2,1.6-3.2
			c0.1-0.3-0.1-0.6-0.3-0.8c-0.1-0.2-0.3-0.3-0.6-0.3c-2.3,0-5,1.3-5.2,3.8c-0.1,0.1-0.3,0.2-0.4,0.3v-9.9c3.4,1.4,6.5,3.3,9.8,5
			c0,0,0.1,0,0.1,0c0.5,2,2.2,3.2,4,4.1c0.4,0.2,1.1,0.1,1.2-0.5c0.4-2.7-1.6-5-4.2-5.3c-0.2,0-0.4,0-0.5,0.1
			c-1-0.6-2.1-1.1-3.1-1.7c1.7-0.4,5-1.6,3.9-3.6c-0.7-1.3-2.1-1.4-3.2-0.6c-1.1,0.7-2,2-2.3,3.3c0,0,0,0,0,0.1
			c-1.4-0.8-2.9-1.5-4.4-2.1c3.1-1,6.4-1.5,9.6-2.4c0,0,0,0,0,0c0.9,1,1.8,1.9,2.8,2.8c0.3,2.3,2,3.7,4.2,4.4
			c0.5,0.2,1.1-0.3,1.1-0.8c-0.2-2-1.6-5.2-4-4.8c-0.8-0.7-1.6-1.5-2.3-2.3c0.5-0.2,1-0.4,1.5-0.6c0,0,0.1,0,0.1-0.1
			c0.7,0.1,1.5,0.2,2.2,0c0,0,0,0,0.1,0c1.1-0.1,2.2-0.6,2.9-1.5c0.4-0.6,0.5-1.6,0.1-2.2c-0.5-0.7-1.3-0.9-2.1-0.9
			c-1.8,0-3.4,1.2-3.6,3c0,0,0,0,0,0c-2.2,0.9-4.5,1.5-6.8,2.1c0,0,0,0,0-0.1c0.2-0.6,0.5-1.2,0.7-1.8c0.1,0,0.2-0.1,0.3-0.2
			c1.6-1.8,2.5-3.8,0.8-5.9c-0.3-0.3-0.9-0.3-1.2,0c-1.2,1.5-2.5,3.8-1.5,5.7c-0.1,0.4-0.3,0.7-0.4,1.1c-0.1,0.2-0.2,0.4-0.3,0.7
			c0,0.1-0.1,0.2-0.1,0.2c0,0,0,0,0,0.1c0.1-0.1,0.2-0.1,0.3-0.2c-0.1,0-0.2,0.1-0.3,0.2c0,0.1-0.1,0.1-0.1,0.1
			c-0.1,0.2-0.2,0.4-0.2,0.6c-1.6,0.4-3.2,0.8-4.8,1.3v-6.4c0.8-0.6,1.4-1.3,2-2.1c0,0,0.1,0,0.1,0c1-0.1,2.1-0.5,2.8-1.3
			c0.9-0.9,0.8-2.2,0.2-3.2c-0.7-1.1-2.5-0.1-3.2,0.5c-0.8,0.8-1.3,2-1.3,3.1c-0.2,0.2-0.4,0.5-0.6,0.7v-4.7
			c0.2-0.2,0.4-0.4,0.6-0.6c0.1,0.1,0.2,0.1,0.4,0.1c1.3-0.2,2.7-0.1,4,0c0.9,0.1,1.7,0.2,2.6,0.3c0.1,0.1,0.2,0.2,0.3,0.3
			c1,0.4,1.9,1,3,1c1,0.1,1.8-0.2,2.5-0.7c0.3-0.1,0.6-0.2,0.8-0.4c0.4-0.3,0.6-0.9,0.2-1.3c-0.2-0.1-0.3-0.3-0.5-0.4
			c-1.8-1.7-4.3-1.9-6.1-0.1c-1,0.1-2.3-0.2-3.3-0.3c-0.7,0-1.3-0.1-2,0c1.1-0.9,2.2-1.8,3.1-2.8c2.5,0.2,4.6-2.3,3.1-4.6
			c-0.2-0.3-0.6-0.5-0.9-0.4c-1.5,0.6-3.8,2.2-3.6,4.1c-1.3,1.3-2.8,2.5-4.2,3.7v-3.6c1-0.6,1.7-1.4,2.4-2.3c2.3,0.6,4-2.3,2.7-4.3
			c-0.2-0.3-0.6-0.5-0.9-0.4c-1.8,0.5-3.5,2-3.3,3.9c-0.3,0.4-0.6,0.8-1,1.1v-7.8c1.5,0.3,2.8,0.9,4.1,1.9c1,0.7,2.2,1,3.3,0.5
			c0.5-0.2,0.8-0.7,0.5-1.2c-0.8-1.6-2.3-1.9-4-1.7c-0.1,0-0.1,0-0.2,0.1c-0.8-0.4-1.6-0.7-2.4-0.9c0.5-0.3,1-0.6,1.3-1
			c2.4,0,3.8-2.7,3.2-4.8c-0.1-0.5-0.6-0.7-1-0.6c-1.3,0.2-2.3,1-2.8,2.3c-0.2,0.6-0.4,1.2-0.5,1.8c-0.1,0.3-1,0.7-1.3,0.9
			c-0.1,0.1-0.2,0.1-0.3,0.2v-5.7c1.1-0.6,1.4-2.6,0.8-3.8c-0.4-0.8-1.1-1.1-1.8-1.1c0,0-0.1,0-0.1,0c0,0-0.1,0-0.1,0
			c-0.7,0-1.4,0.4-1.8,1.1c-0.6,1.1-0.3,3.1,0.8,3.8v5.7c-0.1-0.1-0.2-0.1-0.3-0.2c-0.2-0.2-1.2-0.6-1.3-0.9
			c-0.1-0.6-0.3-1.2-0.5-1.8c-0.5-1.3-1.5-2.1-2.8-2.3c-0.4-0.1-0.9,0.1-1,0.6c-0.6,2.1,0.8,4.8,3.2,4.8c0.3,0.4,0.8,0.7,1.3,1
			c-0.8,0.2-1.6,0.6-2.4,0.9c-0.1,0-0.1-0.1-0.2-0.1c-1.7-0.2-3.2,0.2-4,1.7c-0.3,0.5,0,1,0.5,1.2c1.1,0.5,2.4,0.2,3.3-0.5
			c1.3-1,2.6-1.6,4.1-1.9v7.8c-0.3-0.3-0.7-0.7-1-1.1c0.2-1.9-1.5-3.4-3.3-3.9c-0.4-0.1-0.7,0.1-0.9,0.4c-1.3,2,0.4,5,2.7,4.3
			c0.8,0.9,1.5,1.7,2.4,2.3v3.6c-1.4-1.3-2.9-2.4-4.2-3.7c0.2-1.8-2.1-3.4-3.6-4.1c-0.4-0.1-0.8,0.1-0.9,0.4
			c-1.5,2.3,0.6,4.8,3.1,4.6c1,1,2.1,1.9,3.1,2.8c-0.7,0-1.3,0-2,0c-1.1,0.1-2.3,0.4-3.3,0.3c-1.8-1.8-4.3-1.6-6.1,0.1
			c-0.2,0.1-0.3,0.2-0.5,0.4c-0.4,0.4-0.3,1,0.2,1.3c0.3,0.2,0.6,0.3,0.8,0.4c0.7,0.5,1.5,0.8,2.5,0.7c1.1-0.1,2-0.6,3-1
			c0.2-0.1,0.3-0.2,0.3-0.3c0.9,0,1.7-0.2,2.6-0.3c1.3-0.1,2.7-0.1,4,0c0.2,0,0.3,0,0.4-0.1c0.2,0.2,0.4,0.4,0.6,0.6v4.7
			c-0.2-0.2-0.4-0.5-0.6-0.7c0-1.1-0.5-2.3-1.3-3.1c-0.7-0.6-2.5-1.6-3.2-0.5c-0.6,1-0.7,2.3,0.2,3.2c0.7,0.7,1.8,1.1,2.8,1.3
			c0,0,0.1,0,0.1,0c0.6,0.8,1.2,1.5,2,2.1v6.4c-1.6-0.5-3.2-0.9-4.8-1.3c0-0.2,0-0.4-0.2-0.6c0,0,0,0-0.1-0.1
			c-0.1-0.1-0.2-0.1-0.3-0.2c0.2,0,0.3,0.1,0.3,0.2c0,0,0,0,0-0.1c0-0.1-0.1-0.2-0.1-0.2c-0.1-0.2-0.2-0.4-0.3-0.7
			c-0.1-0.4-0.3-0.7-0.4-1.1c1-1.9-0.3-4.2-1.5-5.7c-0.3-0.3-0.9-0.3-1.2,0c-1.7,2.1-0.9,4.1,0.8,5.9c0.1,0.1,0.2,0.2,0.3,0.2
			c0.2,0.6,0.5,1.2,0.7,1.8c0,0,0,0,0,0.1c-2.3-0.6-4.6-1.1-6.8-2.1c0,0,0,0,0,0c-0.2-1.8-1.9-2.9-3.6-3c-0.8,0-1.6,0.2-2.1,0.9
			c-0.4,0.6-0.3,1.6,0.1,2.2c0.7,0.9,1.8,1.4,2.9,1.5c0,0,0,0,0.1,0c0.7,0.2,1.5,0.1,2.2,0c0,0,0.1,0,0.1,0.1c0.5,0.2,1,0.4,1.5,0.6
			c-0.7,0.8-1.5,1.5-2.3,2.3c-2.4-0.4-3.9,2.8-4,4.8c0,0.5,0.6,1,1.1,0.8c2.2-0.7,3.9-2.1,4.2-4.4c1-0.9,1.9-1.9,2.8-2.8
			c0,0,0,0,0,0c3.2,0.9,6.4,1.5,9.6,2.4c-1.5,0.6-2.9,1.4-4.4,2.1c0,0,0,0,0-0.1c-0.3-1.3-1.3-2.6-2.3-3.3c-1.1-0.7-2.6-0.6-3.2,0.6
			c-1.1,2,2.2,3.2,3.9,3.6c-1,0.6-2.1,1.1-3.1,1.7c-0.1-0.1-0.3-0.1-0.5-0.1c-2.7,0.4-4.7,2.6-4.2,5.3c0.1,0.6,0.8,0.7,1.2,0.5
			c1.8-0.9,3.5-2.1,4-4.1c0,0,0.1,0,0.1,0c3.2-1.7,6.4-3.6,9.8-5v9.9c-0.1-0.1-0.3-0.2-0.4-0.3c-0.2-2.5-2.9-3.8-5.2-3.8
			c-0.3,0-0.5,0.1-0.6,0.3c-0.2,0.2-0.4,0.5-0.3,0.8c0.2,1.2,0.6,2.4,1.6,3.2c0.9,0.8,2.1,0.8,3.1,0.4c0,0,0,0,0,0.1
			c0.5,0.6,1.2,1.1,1.8,1.5v0c0,0.1,0,0.1,0,0.2v11.8c-2-1.3-4-2.5-6.1-3.6c0,0,0,0,0,0c1.4-2.6,5-2.9,5.2-6.3
			c0-0.5-0.4-0.8-0.8-0.8c-2.2,0-4.1,1.7-4,3.9c0,0.1,0,0.2,0.1,0.3c-0.3,0.2-0.6,0.4-0.8,0.7c-0.3-1.3-0.8-2.6-1-3.9
			c-0.1-0.6,0.5-1.2,0.6-1.9c0.1-1.9-0.7-3.6-1.9-5c-0.4-0.4-1-0.3-1.3,0.2c-1.4,2.3-1.2,4.9,0.9,6.6c0.2,1.7,1,3.5,1.4,5.2
			c-1.7-0.9-3.4-1.7-5.1-2.6c-1.9-1-3.4-1.8-4.5-3.7c-0.7-1.1-1.9-1.7-3-2.2c-0.4-0.2-0.9-0.1-1.1,0.3c-1.4,2.9,1.5,4.1,3.8,5
			c0,0,0,0,0,0c0,0,0,0,0.1,0.1c1.1,0.6,2.2,1.2,3.2,1.7c-1,0.6-2.1,1.1-3.1,1.6c-2.5,0.2-4.2,1.6-5.2,3.9c-0.2,0.4,0.2,1,0.6,1
			c2.6,0.5,4.8-1.1,5.6-3.5c1.2-0.6,2.4-1.3,3.6-1.9c0.1-0.1,0.2-0.1,0.3-0.2c0.5,0.3,1,0.5,1.5,0.8c1.3,0.7,2.7,1.4,4,2.1
			c-0.9,0.6-1.8,1.3-2.7,1.9c-0.1,0-0.2,0-0.3,0c-1.6,0.1-2.9,1.1-3.5,2.5c-0.6,0.3-0.5,1.5,0.4,1.6c1.9,0.1,3.6-1,4.3-2.7
			c1.1-0.8,2.3-1.6,3.4-2.4c1.9,1,3.7,2.1,5.5,3.4v5.9c-0.4-0.3-0.9-0.6-1.3-1c-0.2-2.1-1.9-3.4-3.7-4.3c-0.4-0.2-0.9-0.1-1.1,0.3
			c-1.6,2.4,0.7,5.6,3.5,5.4c0.1,0,0.2,0,0.3-0.1c0.2,0.1,0.4,0.2,0.5,0.3c0.7,0.5,1.3,1,1.8,1.5v7.2c-2.2-0.6-4.3-1.1-6.5-1.7
			c-0.2-0.7-0.6-1.3-0.9-1.9c-0.5-0.9-0.9-1.7-1.3-2.6c-0.4-0.9-0.2-1.3-0.3-2.2c-0.2-1.5-0.7-2.7-1.8-3.7c-0.3-0.3-0.9-0.4-1.2,0
			c-1.8,2-1.3,5.2,1.3,6.3c0.1,0,0.2,0.1,0.4,0.1c0.4,0.7,0.7,1.5,1.1,2.2c0,0.1,0,0.2,0.1,0.3c0.1,0.2,0.2,0.4,0.3,0.6
			c0.1,0.1,0.1,0.2,0.2,0.4c-3.3-0.8-6.5-1.6-9.8-2.3c0-0.1,0-0.1,0-0.2c-0.5-1.4-1.1-2.9-1.8-4.3c0.1-0.1,0.1-0.2,0.1-0.3
			c0.4-1.7,0.1-3.5-1.1-4.8c-0.1-0.2-0.3-0.4-0.4-0.5c-0.4-0.4-1-0.3-1.3,0.2c-1.1,1.6-1,4.5,0.9,5.5c0,0,0,0,0,0.1
			c0.7,1.3,1.3,2.6,1.8,4c-2.7-0.6-5.5-1.1-8.3-1.5c-0.1,0-0.3,0-0.4,0c0-0.3-0.1-0.6-0.4-0.9c-0.4-0.4-0.9-0.7-1.4-0.8
			c-0.4-0.2-0.8-0.4-1.3-0.2c-0.2,0-0.3,0.1-0.5,0.2c-0.4,0.1-0.7,0.3-0.7,0.8c0,0,0,0,0,0.1c-0.4,0.9-0.5,2,0,2.9
			c0.8,1.3,2.3,0.8,3.2,0c0.2-0.2,0.4-0.4,0.6-0.7c0.1,0.1,0.2,0.2,0.4,0.2c5.4,0.8,10.8,1.9,16.1,3.2c-1.9,1-4,1.8-5.9,2.9
			c0,0,0,0-0.1,0.1c0,0,0,0,0,0c0,0,0,0,0,0c-2.1-0.1-3.8,1.5-3.8,3.7c0,0.9,1.1,1,1.5,0.5c1.5-0.2,2.9-1.2,3.3-2.6
			c0.1-0.1,0.2-0.3,0.3-0.4c2.3-1.3,4.8-2.2,7-3.6c0,0,0,0,0.1-0.1c3.5,0.9,7,1.8,10.5,2.7v17.8c0,0.7,0.7,0.9,1.2,0.7
			c0.5,0.2,1.2-0.1,1.2-0.7v-17.8c3.5-0.9,7-1.8,10.5-2.7c0,0,0,0,0.1,0.1c2.2,1.4,4.7,2.2,7,3.6c0.1,0.2,0.2,0.3,0.3,0.4
			c0.3,1.4,1.8,2.4,3.3,2.6c0.4,0.5,1.5,0.4,1.5-0.5c0.1-2.2-1.7-3.8-3.8-3.7c0,0,0,0,0,0c0,0,0,0,0,0c0,0,0,0-0.1-0.1
			c-1.9-1.1-3.9-1.9-5.9-2.9c5.3-1.3,10.7-2.4,16.1-3.2c0.2,0,0.3-0.1,0.4-0.2c0.2,0.2,0.4,0.5,0.6,0.7c0.9,0.8,2.4,1.3,3.2,0
			C606-315.9,605.9-317.1,605.5-318z"/>
		<path class="st17" d="M565.1-356.8C565.1-356.8,565-356.9,565.1-356.8C565-356.9,565-356.9,565.1-356.8
			C565-356.9,565-356.9,565.1-356.8z"/>
	</g>
	<g>
		<path class="st18" d="M461-181.2c-6.1-4.9-9.5-19.1-10.1-25.2c-0.8-8.4,1.4-16.1,5.1-23.5c6.1-12,10.6-23.5,14.2-35.9
			c2.4,3.2,16.8,16.9,20.7,21.3c9.3,10.4,15.2,25.9,14.1,39.9c-0.8,9.6-2.4,18.9-12.3,23.2c-8,3.5-14.5,6.4-22,3.8
			C468.2-178.5,464.6-178.4,461-181.2z"/>
		<path class="st12" d="M476.5-180.4c2.4,7.1,0,17.2,0,24.6c0,5.2,0.6,5.8-4.6,6.3c-2.3,0.2-9.4-0.4-10,1.6c4.8,0.5,9.4,1,14.4,0.9
			c-2.1,2.3-3.2,5.2-4.7,7.9c2.2-0.4,3.7-2.6,5.4-4.2c2.6-2.4,2.1-1.9,4.9-2.1c4.5-0.2,9.2,0.1,13.7-0.5c-2.7-3.2-9-0.8-11.3-4
			c-2-2.6-0.9-11.8-0.7-15.2c0.2-3.5-0.8-10.4,0.5-13.6c1.6-4,9.6-7.7,9-12.6c-3.3,1.2-6.6,5.1-9.9,7c-0.7-4.1,2.6-9,3.9-12.8
			c-3.6,1.4-4.9,6.3-6.5,9.4c-0.5-7.4,3.1-15,2-22.3c-4.7,5-4.7,15-5.3,21.5c-1.5-4.2-4.7-15.4-10.4-15.2
			c-1.2,6.2,5.7,10.5,7.6,15.7c0.1,0.2,0.2,0.2,0,0c-3.3-2.7-8.3-4.8-12.6-4.4c-1.1,5.1,8.8,8.8,12,11.2L476.5-180.4z"/>
	</g>
	<g>
		<path class="st13" d="M601.8-79.5c-0.4-2.7-2-5.4-3.7-7.4c-2.1-2.4-5.2-3.6-7.9-5.1c-2.9-1.7-4.7-4.7-4-8.1
			c0.4-1.9,1.2-3.6,1.7-5.4c0.5-1.7,0.8-3.6,0.8-5.4c0-5.8-3.4-11.1-8.1-14.3c-4.4-3.1-10.5-3.6-14.9-0.2c-2.6,2-4.7,5-5.3,8.2
			c-0.7,3.8,0.1,7.6,0.4,11.4c0.2,3-0.3,6.4-2.6,8.5c-1.8,1.6-4.4,2.3-6.5,3.5c-3.2,2-5.8,5.1-6.6,8.8c-0.8,3.6,0.3,7.2,1.7,10.6
			c1.1,2.8,2.8,6.2,2.3,9.3c-0.4,3.1-1.8,6.1-2.6,9.2c-1.3,5.1,0.4,11.3,3.3,15.5c1.5,2.1,3.4,3.8,5.8,4.7c0.1,0.1,0.3,0.1,0.4,0.1
			c0.5,0.3,1,0.6,1.5,0.9c3.2,1.7,6.7,2.8,10.2,3.5c0.8,0.1,1.7,0.3,2.7,0.4c1.2,0.4,2.3,0.8,3.5,1.1c2.7,0.7,5.4,1,8.2,0.6
			c3.5-0.6,6.7-2.5,9.2-4.9c5-4.9,6.4-12.8,2.2-18.6c-1.7-2.4-4.1-4.3-5.6-6.8c-0.6-1-1-2.1-0.9-3.2c0-0.6,0.2-1,0.6-1.7
			c0-0.1,0.1-0.1,0.1-0.1c0,0,0,0,0.1-0.1c0.1-0.2,0.3-0.3,0.4-0.4c0.1-0.1,0.7-0.6,0.7-0.6c0.7-0.6,1.6-1,2.4-1.5
			c1.7-0.9,3.5-1.7,5.1-2.6C599.8-72,602.5-75.1,601.8-79.5z"/>
		<path class="st19" d="M579.1-67.1c1-1.7-1.6-3.2-2.6-1.5c-1.8,2.9-3.7,5.6-5.9,8.1c0.2-2.4,0.4-4.9,0.5-7.3c0-1,0.1-2,0.1-3
			c2.9-2.3,5.4-5.4,6.7-8.9c0.7-1.9-2.3-2.6-2.9-0.8c-0.8,2.2-2.3,4.3-4,6c-0.1-0.4-0.2-0.8-0.3-1.2c0.5-1.7-2.3-2.4-3-0.6
			c-2.3,6.1-3.9,12.6-5,19.1c-1.2-4-1.6-8.2-1.6-12.3c0-2-3.1-2-3,0c0,6.4,1,12.7,3.8,18.5c-0.2,1.9-0.4,3.7-0.5,5.6
			c-2-2.9-3.3-6.3-3.9-9.8c-0.3-1.9-3.3-1.1-2.9,0.8c0.9,5.1,3.2,9.8,6.6,13.6c-0.1,2.5-0.2,5-0.2,7.4c0,7.2,0.5,14.5,2.1,21.5
			c0.7,3.1,1.7,6.1,2.2,9.2c0.5,3.3,4.2,4.5,7.1,3.5c2.5-0.9,4.3-3.2,4.1-5.8c-0.2-2.6-1-5.2-1.7-7.6c-0.7-2.5-1.6-5-2.2-7.5
			c-1-3.9-1.2-8.1-1.6-12.2c-0.6-7.7-0.8-15.6-0.4-23.3C573.8-59.1,576.6-62.9,579.1-67.1z"/>
	</g>
	<g>
		<path class="st20" d="M378.8-167.6c-7.4-1.1-13.8-5.2-16.6-12.4c-2.6-6.5,3.3-14.4,0-18.5c-2-2.5-6.1-3.2-8.4-5.7
			c-2.5-2.7-4.6-7.4-5.2-11.1c-1.8-10.7,5-15.3,14-17.3c-0.6-9,0.6-20.4,12.4-22.5c4.5-0.8,10.1,0.9,13.6,3.7c3.8,3,3.6,9,6.4,11.4
			c0.8,0.7,5.1,0.6,6.5,1.2c2.2,1,4.6,3.2,6.1,5.2c2.5,3.3,4,9.1,4.2,13.1c0.4,8.8-4,19.4-12.4,23.3c3.4,7.6,4.7,17.6-0.5,25.3
			c-4.1,5.9-12,5.7-18.3,5.3c-1-0.8,0.2-0.1,0.4-0.4L378.8-167.6z"/>
		<path class="st21" d="M377.8-192.9c0.2,7.2,0,10.6,0,14.8c0,4.3,0,8.6,0,12.9c0,7.9-0.8,15.9-0.4,23.9c1,0.3,3,0.3,4,0
			c2.1-16.6,1-35.1,0.5-51.6H377.8z"/>
	</g>
	<g>
		<path class="st20" d="M332.4-80.6c-0.1-2.7-0.5-3.5-1.6-5.9c-0.5-1-1.3-1.9-2-2.7c-0.6-0.6-1.2-1.2-1.9-1.6
			c0.6-1.3,0.9-2.8,0.9-4.3c0-2.8-1.1-5.5-3.1-7.5l-0.8-0.8c-2-2-4.7-3.1-7.5-3.1c-0.2,0-0.3,0-0.5,0c-1.3-4.4-5.4-7.6-10.2-7.6
			c-0.7,0-1.3,0.1-2,0.2c0-4.7-3-9.4-9.1-9.4c-2.8,0-5,1-6.5,2.6c-1.5-1.6-3.7-2.6-6.5-2.6c-3,0-5.2,1.2-6.8,2.9
			c-1.5-1.7-3.8-2.9-6.8-2.9c-2.8,0-4.9,1-6.4,2.5c-2.4,0-4.9,0.9-6.7,2.7c-1.5,1.5-2.4,3.5-2.6,5.6c-2.4,0.3-4.7,1.3-6.4,3
			c-2,2-3.1,4.7-3.1,7.5v0.8c0,1,0.1,1.9,0.4,2.9c-4.2,1.4-7.2,5.4-7.2,10c0,3.5,1.8,6.7,4.6,8.7c-1.4,1.8-2.3,4.1-2.3,6.5
			c0,5,3.6,9.3,8.4,10.4c-0.5,1.2-0.8,2.6-0.8,4c0,4.9,3.4,9,7.9,10.2c1.2,4.5,5.4,7.9,10.2,7.9c0.5,0,1-0.1,1.5-0.1
			c0,0,0,0.1,0,0.1c0,5.8,4.8,10.6,10.6,10.6c2.5,0,4.8-0.9,6.6-2.3c1.3,0.5,2.6,0.8,4,0.8c3.1,0,6-1.4,7.9-3.6
			c1.1,0.4,2.3,0.6,3.4,0.6c2.2,0,4.4-0.7,6.2-2c3.8-1.2,6.7-4.6,7.3-8.6c0,0,0,0,0,0c1-1,1.7-2.1,2.3-3.4c1.7-0.5,3.3-1.4,4.6-2.7
			c1.5-1.5,2.5-3.3,2.9-5.4c0,0,0,0,0.1,0c0.9-0.8,1.8-2.3,2.4-3.6c4-1.5,6.9-5.4,6.9-9.9c0-1.4-0.3-2.8-0.8-4
			C331.5-75.9,332.5-78.3,332.4-80.6z"/>
		<path class="st22" d="M299.5-52.8c6.1,0.3,12.7-6.2,12.1-12.4c-0.1-1.2-1.9-1.2-1.8,0c0.5,5.2-5.1,10.7-10.2,10.5
			c0.2-3.2,0.1-6.4,0-9.6c-0.1-1.4,0.1-4.6-1.5-5.4c-1-0.6-2,1-0.9,1.6c0.9,0.5,0.6,4.7,0.6,5.6c0.1,1.6,0.1,3.2,0,4.8
			c-2.8,0-4.5-2.6-5.3-5.1c-0.4-1.1-2.1-0.6-1.8,0.5c1,3.2,3.4,6.4,7,6.4c0,0.6,0,1.2-0.1,1.9c-0.4,8.1-4.4,14.9-12.2,17.7
			c0-1,0.1-2,0.1-3c0-13.8,1.8-30.3-3.1-43.1c-2.4,9.1-2.1,20.3-2.9,30c0,0,0,0,0,0c-9.9-0.6-12.4-9.2-13.3-17.9c0,0,0,0,0,0
			c-0.4-4-0.4-8-0.6-11.3c-0.1-1.2-1.9-1.2-1.8,0c0.2,3.1,0.3,6.6,0.6,10.1c-2.4-0.9-4.5-2.2-5.5-4.7c-0.5-1.1-2-0.1-1.6,0.9
			c1.3,3.1,4.3,4.7,7.3,5.7c0.6,5,1.7,10,4.4,13.6c-2.4,1.6-5.5,1.4-8.2,0.7c-1.1-0.3-1.6,1.4-0.5,1.8c3.2,0.9,7,1,9.8-1
			c2.2,2.2,5.1,3.7,9.2,4c-1.4,15.8,1.3,34.7-3.6,49.8c0,0,2.6,2.2,3.7,2.4c1.4,0.4,4.6,1,4.8-0.7c0.5-4.7,0.5-23.5,1.2-35.2
			c2.2-0.7,4.3-1.8,6-3.1c0.1,0,0.1,0.1,0.2,0.1c4.9,0.9,9.8-1.3,12.2-5.7c0.6-1-1-1.9-1.6-0.9c-1.9,3.2-5.3,5.2-9,5
			c3.6-3.4,5.7-8.1,6.1-13.4C299.5-52.5,299.5-52.7,299.5-52.8z"/>
	</g>
	<g>
		<path class="st23" d="M531.2-237.6c-1,4.2,0.8,8.4,4.4,10.6c-3.4,2.3-5.1,6.6-3.8,10.8c1.3,4.1,5,6.8,9.2,6.9
			c-1.7,3.7-1,8.3,2.2,11.2c3.2,2.9,7.8,3.3,11.4,1.2c0.4,4.1,3.4,7.6,7.7,8.5c2.8,0.6,5.6-0.1,7.7-1.7c2.1,1.6,4.9,2.4,7.7,1.9
			c4.3-0.8,7.3-4.2,7.9-8.3c3.5,2.2,8.1,1.9,11.4-1c3.3-2.8,4.2-7.4,2.5-11.2c4.1,0.1,8-2.5,9.3-6.6c1.4-4.1-0.2-8.5-3.6-10.9
			c3.6-2,5.6-6.2,4.6-10.5c-0.9-4.2-4.5-7.2-8.6-7.5c2-3.6,1.6-8.2-1.4-11.4c-3-3.2-7.5-3.9-11.2-2.1c-0.1-4.1-2.8-7.9-7-9.1
			c-4.2-1.2-8.5,0.5-10.7,4c-2.2-3.5-6.4-5.3-10.6-4.2c-4.2,1.1-7,4.8-7.2,8.9c-3.7-1.9-8.3-1.3-11.3,1.8c-3,3.1-3.6,7.7-1.7,11.3
			C535.9-244.6,532.3-241.8,531.2-237.6z"/>
		<path class="st24" d="M565-143c1.3,2.2,6.6,2.4,9.1,1.1c2.6-1.3,1.5-6.8,1.2-9.9c-0.6-6.8-2.4-13.7-2.7-20.5
			c-0.3-5.5-0.6-10.5-1-15.8c-0.2-2.4-1.2-4.6,0.2-6.7c1.3-2,4.2-3.6,5.9-5.1c3.9-3.3,12.5-11.4,9.9-17.1c-4.4,2-6.6,8-9.9,11.5
			c-2.7,2.9-3.6,1.8-2.4-1.9c1.1-3.7,2.4-7.3,3-11.3c0.2-1.4,1.5-8.9-1.2-8.4c-2.4,0.4-3.7,7.3-3.9,9.1c-0.4,3,0.7,12.5-3,13.7
			c-2.9-3-1.9-9-3-12.8c-0.6-1.9-4.8-11.2-7.5-7.3c-1.6,2.4,2,8.3,3.1,10.4c1.7,3.6,3.4,7.2,3.1,11.2c-3.8,0.1-6.8-6.1-10.3-5.8
			c-4.2,0.4,1.5,5.9,3.1,7c2.2,1.6,5.5,2,7,4.2c1.1,1.6,1.1,5.4,1.1,7.4c0,5.7-0.3,11.5-0.3,17.4c0,6.7,0.9,12.9-0.4,19.5
			c-0.3,1.7-1,4.1-1.1,5.5C564.9-146.4,564.4-144,565-143z"/>
	</g>
	<g>
		<path class="st17" d="M276.4-312c-24.8,3-14.6-75.1-10.4-87.3c2-5.7,6.7-10.7,13.4-8.7c4.8,1.4,7.7,7.3,9.6,11.7
			c5.3,12.3,7.3,24.7,7.4,38c0.1,6.8-1.7,57.2-18.2,49.4L276.4-312z"/>
		<path class="st19" d="M284.7-287.4c-1-3.5-1.3-7.3-1.9-10.9c-0.6-4.1-1.2-8.2-1.8-12.3c-1.9-14.2-3.1-28.5-3-42.8
			c0-1.7,0.1-3.5,0.1-5.2c0-0.7-0.5-1.1-1-1.1c-0.7-0.1-1.5,0.4-1.5,1.3c0,1.8-0.1,3.5-0.1,5.3c-0.4,14.7-2.2,29.3-2.1,44
			c0.1,6.9-0.4,13.9,0.2,20.8c0.3,3.8,1.3,11.6,6.6,11.6c2.2,0,4.4-1.2,5.3-3.3C286.5-282.2,285.3-285.1,284.7-287.4z M276.7-326.9"
			/>
	</g>
	<g>
		<path class="st12" d="M478-69.3c-4.6,11.5-4.2,27.3-5.9,39.6c-1.3,9.3-2.4,18.5-3.4,27.6c5,0,13.6-2.3,18.1-0.5
			c0.6-11.3-2.3-22.8-2.9-34.1c-0.5-9.7,3.1-25.1-0.5-33.6L478-69.3z"/>
		<path class="st25" d="M507.6-54.6c-0.4-4.5-3.9-10.9-8.7-15.4c5.7,0.5,11-1.8,17.9-6.2c-2.9-3.4-9-6.5-15.3-7.6
			c4.2-3.6,6.3-9,8.1-16.7c-1.8-0.2-4.1,0.1-6.4,0.8c1.9-3.3,3.1-7.4,4.1-12.6c-4.4-0.3-11.1,2.1-16.2,5.9c-0.2-3-0.8-6.2-1.8-10
			c-3.8,1.6-8.4,6.1-11.4,11.3c-0.8-2.5-2.1-5.2-3.9-8.2c-2.9,2.2-5.6,7.2-6.8,12.4c-3.8-0.6-8.2-0.1-13.6,0.9
			c1.3,3.8,5.2,8.3,9.9,11.7c-5.9-1-11.4,1.1-18.7,5.4c2.8,3.5,8.9,6.9,15.2,8.3c-7.5,0.6-12.3,5-18.1,12.9c4.7,2.6,14,3,21.1,0.5
			c-1.1,3.6-1.4,7.9-1.3,13.1c6.2-1,15.6-8,18.9-15.6c1.5,8.2,6.6,12.4,15.9,17.1c0.8-2.4,1-5.7,0.7-9.1
			C500.1-55.1,503.5-54.8,507.6-54.6z"/>
	</g>
	<g>
		<path class="st24" d="M381.2-52.9c-0.6,13.8-1.3,27.6-2.5,41.3c-0.4,5.2-1.6,8.2,2.8,9.9c2.3,0.9,12.7,1.6,15,0.5
			c5-2.4,1-15.1,0.2-20.2c-1-5.9-1.5-17.2-3.9-21.4L381.2-52.9z"/>
		<path class="st11" d="M385.7-120.6c-7.6,9.9-19.1,20.7-22.7,32.8c4.2,1.4,8.4,0.1,12.7,0.1c-0.5,4.5-5.8,9.5-7.9,13.8
			c-2.7,5.6-4.5,11.6-7,17.1c4.1,1.7,9.4-0.1,13.4-1.5c-1.2,7.1-7.8,13-9.8,20.2c-3.1,10.8,1.6,9.9,10.1,8.6
			c7.7-1.2,15.4,0,23.2-0.1c4.6-0.1,12.9,1.2,17-0.5c-3.3-8.9-13.8-15.1-17.7-23.8c5.4-1.6,24.2-0.1,16.3-9.7
			c-5-6-12-11.2-17.9-16.4c2.3-2.3,8.2-1.3,10.1-4.1c2.5-3.9-3.7-9.9-5.5-12.9C397.2-101.3,389.8-115.4,385.7-120.6L385.7-120.6z"/>
	</g>
</g>
<path class="st6" d="M464.5,231.3c0-7-5.7-12.7-12.7-12.7c-5.4,0-10,3.4-11.8,8.1c-2.8-3.7-7.3-6.1-12.3-6.1
	c-4.2,0-8.1,1.7-10.9,4.5c-0.9-6-6-10.5-12.2-10.5c-1.8,0-3.5,0.4-5.1,1.1c-0.8-7.8-7.3-13.8-15.3-13.8c-8.5,0-15.4,6.9-15.4,15.4
	c0,0.5,0,1,0.1,1.6c-7.3,1.2-12.8,7.6-12.8,15.2c0,7.1,4.8,13.1,11.3,14.9c-1.7,2.5-2.6,5.4-2.6,8.6c0,8.5,6.9,15.4,15.4,15.4
	c8,0,14.6-6.1,15.3-14c2.7,4,7.3,6.6,12.5,6.6c4.2,0,8-1.7,10.7-4.5c1.5,6.4,7.2,11.2,14,11.2c5.7,0,10.6-3.3,12.9-8.1
	c1.4,0.5,2.9,0.7,4.5,0.7c8,0,14.4-6.4,14.4-14.4c0-3.8-1.5-7.3-4-9.9C463,238.1,464.5,234.9,464.5,231.3z"/>
<path class="st26" d="M181.6,274.4c6-4.3,8.1-12.5,4.7-19.3c-3.2-6.3-10.1-9.6-16.8-8.2c0.4-2.9-0.1-6-1.5-8.9
	c-3.8-7.6-13-10.7-20.7-6.9c-1.7,0.8-3.2,2-4.4,3.3v60.7c2.8,0.7,5.8,0.4,8.5-0.9c1.6-0.8,3-1.9,4.1-3.3c4.2,6.6,12.7,9.1,19.9,5.5
	c7.6-3.8,10.7-13,6.9-20.7C182.2,275.3,181.9,274.8,181.6,274.4z"/>
<path class="st27" d="M2176,400.8c1,16.7,2,33.3,3,50c2-0.5,5.5-1.3,10-2c12.6-1.9,100.1-5.1,176.5-6.5c34.8-0.6,71-1.7,107-3
	c21.9-0.8,43.5-0.7,65.5-3.5c7-0.9,12.5-1.7,15-2c0.7-17,1.3-34,2-51c-1.7,1.4-4.1,2.8-7,4c-7.7,3-106.5,6.1-134,7
	c-65.3,2.2-104.8,1.6-192,5C2202.5,399.5,2186.5,400.3,2176,400.8z"/>
<line class="st2" x1="2252.5" y1="383.3" x2="2473.5" y2="383.3"/>
<line class="st2" x1="2257" y1="373.8" x2="2471" y2="373.8"/>
<line class="st2" x1="2267" y1="396.8" x2="2283" y2="382.8"/>
<line class="st2" x1="2334" y1="382.8" x2="2329" y2="395.8"/>
<line class="st2" x1="2268" y1="366.8" x2="2459" y2="366.8"/>
<line class="st2" x1="2253" y1="382.8" x2="2235" y2="398.8"/>
<path class="st2" d="M2184,459.8c2.3,7.3,4.7,14.7,7,22c5.9-0.2,23.5-1.6,34-2c65.8-2.6,235-4,289-9c9.4-0.9,22-3.2,27-4
	c2.3-8.3,4.7-16.7,7-25c-3.6,0.7-11.6,1.9-19,3c-37.5,5.7-286.4,8-320,11C2194.4,457.1,2191.6,458.7,2184,459.8z"/>
<g>
	<path class="st28" d="M897.9,365.9c-1.9,0.7-6.3-1.3-3.8-3.2c-3.1-3.6-1-12.8,4.5-12.6c-1.1-2.6,2.1-4.7,4.3-5.1
		c3.7-0.6,5.5,1.7,6.9,4.7c3.7-2,11.2,0.3,9.9,5.4c4.6-0.3,7.7,6.6,3,8.8c1.3,2.8-1,5.3-3.3,6.5c-2.9,1.5-4.8,1.1-7.6-0.2
		c-0.4,3.9-6.3,3.1-8,0.7c-2,1.5-5.9-0.9-5.3-3L897.9,365.9z"/>
	<path class="st29" d="M892.2,356.1c-2.8,2.8-10.4,3-12-1.4c-4.2,1.6-13.9,1.1-14.2-4.9c-4.3,3.4-12.3,1.6-17-0.7
		c-3.1-1.5-7.7-8.2-3.9-11.4c-3.9-7.3,2.3-25.8,12.4-18.7c2.4-9.7,15.9-10.1,20.8-2.6c4.6-6.7,17.9-6.7,19.2,2.7
		c6.5-4.5,14.2,1,10.9,8.7c5.4,0.1,6.9,9.5,1.8,10.9c5.3,2.9-3,12.6-6.8,9c2.5,4.8-5,7-8.4,7c0.2,0.6,0,1.2,0.2,1.8
		c-0.7-0.1-2,0.4-2.2,0.4L892.2,356.1z"/>
	<path class="st6" d="M882.8,372.9c-1.2,3.6-7.6,10.1-9.9,3.7c-2.3,4.4-8.8,3.8-12.7,2.1c-2.9-1.3-10.8-9.5-3.6-10.3
		c-6.1-5.2,1.5-16.8,8.6-11.9c-0.5-3.7,1.9-6.1,5.5-6.1c4.6-0.1,5.9,3.8,7.3,7.6c5.4-6.9,14.4,8,10.7,13.5L882.8,372.9z"/>
	<path d="M890.6,372.1c0-6.1,2.2-12,2-17.8c-0.2-6.1-5.3-8.6-10.1-10.3c2.5-1.1,7.2,0.6,8.8,2.9c0.5-3.1,0.7-7.6,2.4-10
		c3.3,8.1,1.4,19.5,2,28.3c3.2-3.7,4.4-14,11.5-13.5c1.2,4.1-5.3,8.2-6.9,12.1c2.1,0.1,4,0.6,5.6,2c-6.1,0.2-8.3,2.9-8.8,8.7
		c-0.4,4.7,0,9.5,0.3,14.1c0.3,4.8,1.2,8.9,3.2,13.3c1,2.2,1.7,4.7,3.1,6.9c1.1,1.8,3.1,3.4,3.9,5.2c-3.3,0.4-5.4-3.8-8.5-4.2
		c0.2,3,3,5.3,3.2,8.2c-5.7-0.8-8.3-9.4-11.5-13.2c-4.2,5-5.9,7.5-10.6,7.2c1.3-5.1,6.6-8.6,8.1-13.9c1.3-4.3,0.2-9.6,0.4-14.1
		c0.3-5.6-0.3-7.4-5.9-9.7c-4.4-1.8-8.8-3.4-13.5-2.6c0-3.3,6.2-2.4,8.5-2.3c3.7,0.3,6,2,8.9,4.3c0.1-4.2-6.7-7.5-8.5-11.2
		c6.6-1.5,7.9,8.6,12.2,10.2L890.6,372.1z"/>
</g>
<line class="st0" x1="1014.5" y1="609.3" x2="1014.5" y2="579.3"/>
<line class="st0" x1="1012.5" y1="609.3" x2="1012.5" y2="579.3"/>
<line class="st0" x1="1052.5" y1="578.3" x2="1052.5" y2="609.3"/>
<line class="st1" x1="1063.5" y1="609.3" x2="1063.5" y2="578.3"/>
<line class="st1" x1="1079.5" y1="610.3" x2="1079.5" y2="577.8"/>
<path class="st30" d="M1058.5,555.3c-18.9,0.3-33.9,3.8-30,6c7,4,26,5,26,5"/>
<path class="st30" d="M1117.5,564.3c0.4-0.2,1.1-0.6,2-1c4.6-2,28-3,37-3c3.7,0,10.4-0.3,24-1c9.8-0.5,17-0.9,28-1c3,0,5.4,0,7,0"/>
</svg>
